<svg xmlns="http://www.w3.org/2000/svg" width="32" height="32" viewBox="0 0 32 32">
  <g id="그룹_5235" data-name="그룹 5235" transform="translate(-5584 -6404)">
    <g id="그룹_5233" data-name="그룹 5233" transform="translate(4648.858 6080.198)">
      <path id="패스_1481" data-name="패스 1481" d="M953.743,340.278c0,1.95,0,3.9,0,5.849a2.612,2.612,0,0,1-5.059.894,2.82,2.82,0,0,1-.171-.926q-.017-5.836,0-11.673a2.615,2.615,0,0,1,5.147-.658,2.907,2.907,0,0,1,.085.715Q953.749,337.378,953.743,340.278Zm-1.679-.015q0-2.85,0-5.7a2.242,2.242,0,0,0-.019-.348.942.942,0,0,0-1.177-.748.971.971,0,0,0-.678.994v11.6c0,.058,0,.117,0,.175a.951.951,0,0,0,1.192.822.98.98,0,0,0,.679-1.02Q952.065,343.151,952.064,340.263Z" fill="#7f7f7f"/>
      <path id="패스_1482" data-name="패스 1482" d="M961.14,342.652c0,1.142,0,2.284,0,3.425a2.617,2.617,0,0,1-5.162.6,3,3,0,0,1-.076-.668q-.008-3.387,0-6.775a2.62,2.62,0,1,1,5.24-.009C961.143,340.369,961.14,341.51,961.14,342.652Zm-3.555.037q0,1.676,0,3.349a1.384,1.384,0,0,0,.037.37.931.931,0,0,0,1.828-.3q0-3.411,0-6.822a1.146,1.146,0,0,0-.038-.32.925.925,0,0,0-1.045-.654.915.915,0,0,0-.781.9C957.582,340.374,957.586,341.532,957.585,342.689Z" fill="#7f7f7f"/>
      <path id="패스_1483" data-name="패스 1483" d="M941.142,343.736c0-.774,0-1.548,0-2.323a2.62,2.62,0,1,1,5.24-.01q.011,2.361,0,4.721a2.62,2.62,0,1,1-5.24-.015C941.14,345.318,941.142,344.527,941.142,343.736Zm3.555.023c0-.783,0-1.566,0-2.35a.936.936,0,1,0-1.867,0q0,2.339,0,4.676a.937.937,0,1,0,1.867,0C944.7,345.31,944.7,344.534,944.7,343.759Z" fill="#7f7f7f"/>
    </g>
    <rect id="사각형_498" data-name="사각형 498" width="32" height="32" rx="5" transform="translate(5584 6404)" fill="none"/>
  </g>
</svg>
