<svg xmlns="http://www.w3.org/2000/svg" width="23" height="23" viewBox="0 0 23 23">
  <g id="그룹_343" data-name="그룹 343" transform="translate(-317 -249)">
    <path id="패스_979" data-name="패스 979" d="M-1228.688-89.95l-1.25-1.248.107-.112.148-.156c.087-.092.158-.168.232-.242l1.122-1.121c.781-.78,1.59-1.587,2.379-2.386a1,1,0,0,0,.333-.777.784.784,0,0,0-.354-.574.835.835,0,0,0-1.165.191q-1.109,1.1-2.213,2.21l-1.255,1.256c-.089.089-.182.174-.289.274l-.186.172-.125.117-.107-.133c-.053-.066-.1-.129-.146-.188a2.965,2.965,0,0,0-.244-.294l-.729-.736c-.878-.889-1.786-1.807-2.711-2.676a1.215,1.215,0,0,0-.746-.284.6.6,0,0,0-.129.013.931.931,0,0,0-.561.6,1.243,1.243,0,0,0,.344.873c.8.847,1.645,1.683,2.459,2.493q.477.474.952.949c.091.091.177.185.269.284l.135.146.1.112-.109.108-1.128,1.124c-.936.932-1.819,1.812-2.717,2.715a.843.843,0,0,0-.106,1.268.854.854,0,0,0,1.274-.092c.851-.837,1.678-1.664,2.459-2.459.309-.314.6-.633.915-.97q.21-.227.424-.457l.108-.116.116.108.2.181c.107.1.191.176.272.257l2.2,2.2,1.043,1.044a1.5,1.5,0,0,0,.981.538.712.712,0,0,0,.518-.246c.242-.25.472-.674-.314-1.46Z" transform="translate(1559.615 351.729)" fill="#fff"/>
    <g id="타원_49" data-name="타원 49" transform="translate(317 249)" fill="none" stroke="#fff" stroke-width="1">
      <circle cx="11.5" cy="11.5" r="11.5" stroke="none"/>
      <circle cx="11.5" cy="11.5" r="11" fill="none"/>
    </g>
  </g>
</svg>
