<svg xmlns="http://www.w3.org/2000/svg" width="32" height="32" viewBox="0 0 32 32">
  <g id="그룹_5234" data-name="그룹 5234" transform="translate(-5544 -6404)">
    <path id="패스_3347" data-name="패스 3347" d="M615.449,203.8a2.8,2.8,0,0,1,2.607-.416,7.692,7.692,0,0,1,.707.346.313.313,0,0,0,.24.02c.5-.3.99-.609,1.5-.928l-.109-.153a2.824,2.824,0,0,1,2.329-4.526,2.815,2.815,0,0,1,.542,5.576,6.531,6.531,0,0,1-1.085.022.635.635,0,0,0-.3.059c-.637.386-1.264.787-1.9,1.174a.219.219,0,0,0-.113.3,2.823,2.823,0,1,1-5.446.08.412.412,0,0,0-.061-.384c-.617-.884-1.225-1.775-1.85-2.686a2.845,2.845,0,0,1-1.952.761,2.8,2.8,0,0,1-1.949-.8l-1.17,1.495c-.215.275-.424.556-.648.823a.216.216,0,0,0-.013.3,2.838,2.838,0,1,1-3.076-1.253,2.758,2.758,0,0,1,1.559.065.233.233,0,0,0,.312-.085c.7-.9,1.411-1.793,2.11-2.7a.5.5,0,0,0,.094-.328,2.845,2.845,0,0,1,2.352-3.142,2.809,2.809,0,0,1,3.207,2.184,6.115,6.115,0,0,1,.049.97.552.552,0,0,0,.047.26C614.1,201.823,614.77,202.8,615.449,203.8Zm-3.613-3.586a1.258,1.258,0,1,0-1.253,1.259A1.262,1.262,0,0,0,611.837,200.213Zm-8.716,6.132a1.258,1.258,0,1,0,2.516.015,1.258,1.258,0,0,0-2.516-.015Zm19.528-4.129a1.257,1.257,0,1,0-1.261-1.251A1.257,1.257,0,0,0,622.648,202.216Zm-4.229,3.841a1.257,1.257,0,1,0-1.259,1.25A1.256,1.256,0,0,0,618.419,206.056Z" transform="translate(4946.463 6216.616)" fill="#7f7f7f"/>
    <rect id="사각형_497" data-name="사각형 497" width="32" height="32" rx="5" transform="translate(5544 6404)" fill="none"/>
  </g>
</svg>
