<svg xmlns="http://www.w3.org/2000/svg" width="32" height="32" viewBox="0 0 32 32">
  <g id="그룹_5236" data-name="그룹 5236" transform="translate(-5620 -6405)">
    <path id="패스_3346" data-name="패스 3346" d="M799.349,207.8a.622.622,0,0,1,.3-.058,6.543,6.543,0,0,0,1.086-.022,2.815,2.815,0,0,0-.542-5.576,2.824,2.824,0,0,0-2.329,4.526l.109.153c-.512.319-1,.63-1.5.928a.31.31,0,0,1-.24-.02,7.715,7.715,0,0,0-.707-.346,2.8,2.8,0,0,0-2.607.417c-.679-1-1.349-1.977-2.012-2.961a.538.538,0,0,1-.047-.261,6.186,6.186,0,0,0-.049-.969,2.809,2.809,0,0,0-3.207-2.185,2.845,2.845,0,0,0-2.353,3.143.507.507,0,0,1-.094.329c-.7.9-1.409,1.795-2.111,2.7a.232.232,0,0,1-.311.085,2.761,2.761,0,0,0-1.56-.066,2.834,2.834,0,0,0,.2,5.551c-.04-.007-.081-.007-.121-.015v3.7a2.253,2.253,0,0,0,2.25,2.25h15a2.253,2.253,0,0,0,2.25-2.25v-9.134a.159.159,0,0,0-.018.005,6.544,6.544,0,0,1-1.086.022.631.631,0,0,0-.3.059l-.1.061v8.987a.751.751,0,0,1-.75.75h-15a.751.751,0,0,1-.75-.75v-3.8l-.012,0a2.822,2.822,0,0,0,1.508-4.189.216.216,0,0,1,.012-.3c.224-.267.433-.548.648-.824l1.171-1.495a2.8,2.8,0,0,0,1.948.8,2.846,2.846,0,0,0,1.952-.762c.626.911,1.233,1.8,1.85,2.686a.412.412,0,0,1,.061.384,2.824,2.824,0,1,0,5.446-.08.22.22,0,0,1,.113-.3C798.083,208.583,798.712,208.182,799.349,207.8Zm.757-4.1a1.257,1.257,0,1,1-1.254,1.262A1.264,1.264,0,0,1,800.105,203.7Zm-17.825,9.47a2.588,2.588,0,0,1-.53.034,2.646,2.646,0,0,0,.53-.036l.043-.01C782.308,213.163,782.3,213.169,782.281,213.171Zm-.447-1.559a1.266,1.266,0,0,1-1.25-1.268,1.258,1.258,0,0,1,2.516.014A1.27,1.27,0,0,1,781.834,211.612Zm6.214-6.141a1.255,1.255,0,0,1-1.262-1.251,1.257,1.257,0,1,1,2.515-.008A1.252,1.252,0,0,1,788.047,205.47Zm6.575,5.834a1.254,1.254,0,0,1-1.253-1.259,1.256,1.256,0,1,1,2.512.009A1.248,1.248,0,0,1,794.623,211.3Z" transform="translate(4845 6210.618)" fill="#7f7f7f"/>
    <rect id="사각형_499" data-name="사각형 499" width="32" height="32" rx="5" transform="translate(5620 6405)" fill="none"/>
  </g>
</svg>
