<svg xmlns="http://www.w3.org/2000/svg" width="12.4" height="15.2" viewBox="0 0 12.4 15.2">
  <g id="저장_클릭" data-name="저장 클릭" transform="translate(-974.188 215.317)">
    <path id="패스_154" data-name="패스 154" d="M986.485-207.668a2.216,2.216,0,0,0-.084-.606,1.885,1.885,0,0,0-1.767-1.334c-.115,0-.228,0-.347,0h-.138v-.145c0-.18,0-.361,0-.541,0-.4,0-.81-.006-1.215a3.8,3.8,0,0,0-.731-2.209,3.584,3.584,0,0,0-2.856-1.493,3.592,3.592,0,0,0-2.859,1.092,3.782,3.782,0,0,0-1.064,2.616c-.012.431-.009.853-.006,1.3,0,.187,0,.38,0,.573h-.112c-.1,0-.2,0-.29,0h-.018a2.514,2.514,0,0,0-.4.041,1.912,1.912,0,0,0-1.523,1.921c0,1.86,0,3.743,0,5.5a2.022,2.022,0,0,0,.034.39,1.9,1.9,0,0,0,.672,1.132,2.014,2.014,0,0,0,1.275.427h3.286l4.963,0a2.126,2.126,0,0,0,.4-.034,1.893,1.893,0,0,0,1.134-.67,2.009,2.009,0,0,0,.43-1.274C986.491-204.231,986.491-205.94,986.485-207.668Zm-1,5.483a.9.9,0,0,1-.964.963h-8.29a.886.886,0,0,1-.913-.695,1.153,1.153,0,0,1-.022-.254c0-2,0-3.8,0-5.5a.9.9,0,0,1,.957-.959h8.276a.9.9,0,0,1,.957.959C985.485-205.927,985.485-204.133,985.484-202.185Zm-2.323-8.416c0,.225,0,.446,0,.679q0,.141,0,.285h-5.541v0a.241.241,0,0,1,0-.04c0-.185,0-.373,0-.555,0-.421-.005-.855.008-1.282a2.676,2.676,0,0,1,1.045-2.152,2.726,2.726,0,0,1,2.823-.345,2.54,2.54,0,0,1,1.631,2.173,6.476,6.476,0,0,1,.038.9C983.16-210.831,983.159-210.715,983.161-210.6Z" transform="translate(0 0)" fill="#7f7f7f" stroke="#7f7f7f" stroke-width="0.2"/>
    <path id="패스_155" data-name="패스 155" d="M1161.022,88.391a1.006,1.006,0,0,0-.874.725.99.99,0,0,0,.355,1.078.2.2,0,0,1,.092.192c0,.17,0,.343,0,.51q0,.1,0,.2v.724a.518.518,0,0,0,.185.419.5.5,0,0,0,.326.126.535.535,0,0,0,.22-.05.5.5,0,0,0,.306-.489c0-.457,0-.949,0-1.449a.193.193,0,0,1,.088-.18,1.012,1.012,0,0,0,.276-1.3A.975.975,0,0,0,1161.022,88.391Z" transform="translate(-180.723 -295.338)" fill="#7f7f7f" stroke="#7f7f7f" stroke-width="0.2"/>
  </g>
</svg>
