<svg xmlns="http://www.w3.org/2000/svg" xmlns:xlink="http://www.w3.org/1999/xlink" viewBox="0 0 780.07 450.35"><defs><style>.cls-1,.cls-4,.cls-42,.cls-5,.cls-6{fill:none;}.cls-2{fill:#eee;}.cls-3,.cls-32{fill:#666;}.cls-4,.cls-5,.cls-6{stroke:#aaa;}.cls-10,.cls-12,.cls-14,.cls-16,.cls-17,.cls-19,.cls-21,.cls-23,.cls-25,.cls-4,.cls-42,.cls-6{stroke-miterlimit:10;}.cls-10,.cls-12,.cls-14,.cls-16,.cls-17,.cls-19,.cls-21,.cls-23,.cls-25,.cls-4,.cls-5,.cls-6{stroke-width:0.25px;}.cls-5{stroke-linecap:round;stroke-linejoin:round;}.cls-6{stroke-linecap:square;}.cls-7{clip-path:url(#clip-path);}.cls-8{clip-path:url(#clip-path-2);}.cls-9{clip-path:url(#clip-path-3);}.cls-10{fill:#c9daab;stroke:#a7c38d;}.cls-11{fill:#a7c38d;}.cls-12{fill:#bcd4d6;stroke:#aac8cb;}.cls-13{fill:#aac8cb;}.cls-14{fill:#ffe4a4;stroke:#f6cd80;}.cls-15{fill:#f6cd80;}.cls-16{fill:#c9b6e7;stroke:#a289d7;}.cls-17{fill:#b8c5c4;stroke:#95a8a7;}.cls-18{fill:#95a8a7;}.cls-19{fill:#accdf2;stroke:#8bb8ee;}.cls-20{fill:#8bb8ee;}.cls-21{fill:#f4d5e6;stroke:#f2c1dd;}.cls-22{fill:#f2c1dd;}.cls-23{fill:#afe0d7;stroke:#8ccfc5;}.cls-24{fill:#8ccfc5;}.cls-25{fill:#ffc29e;stroke:#ffaa80;}.cls-26{fill:#fff;}.cls-27{fill:#ffc600;}.cls-28{font-size:10px;}.cls-28,.cls-29,.cls-32{font-family:NotoSansKR-Bold-KSCpc-EUC-H, Noto Sans KR;}.cls-29,.cls-32{font-size:6px;}.cls-30,.cls-33{font-family:NotoSansKR-Medium-KSCpc-EUC-H, Noto Sans KR;}.cls-30{letter-spacing:-0.04em;}.cls-31{letter-spacing:0em;}.cls-34{letter-spacing:-0.01em;}.cls-35{letter-spacing:-0.02em;}.cls-36{letter-spacing:-0.02em;}.cls-37{letter-spacing:-0.02em;}.cls-38{letter-spacing:-0.02em;}.cls-39{letter-spacing:-0.02em;}.cls-40{letter-spacing:-0.01em;}.cls-41{letter-spacing:-0.08em;}.cls-42{stroke:#00a800;stroke-width:0.5px;}.cls-43{fill:#00a800;}.cls-44{letter-spacing:0em;}.cls-45{letter-spacing:0.01em;}</style><clipPath id="clip-path" transform="translate(0 15.18)"><polygon class="cls-1" points="588.81 405.15 568.13 417.26 529.91 392.48 545.25 376.94 588.81 405.15"/></clipPath><clipPath id="clip-path-2" transform="translate(0 15.18)"><polygon class="cls-1" points="416.35 13.55 428.24 33.56 400.46 70.33 384.45 56.15 416.35 13.55"/></clipPath><clipPath id="clip-path-3" transform="translate(0 15.18)"><polygon class="cls-1" points="352.17 14.95 342.08 18 368.9 69.39 377.22 65.42 376.89 61.88 352.17 14.95"/></clipPath></defs><g id="레이어_2" data-name="레이어 2"><g id="Layer_15_copy" data-name="Layer 15 copy"><path class="cls-2" d="M460.3,350.21a.28.28,0,0,0-.13,0H455a.26.26,0,0,0-.17.07l-.95.89-6.34-.06-.88-.88a.25.25,0,0,0-.18-.08l-120.66-.66a.25.25,0,0,0-.18.08l-.77.76-6.33.12-.95-.94a.21.21,0,0,0-.17-.08l-16.2-.06a.25.25,0,0,0-.19.09l-36.87,45-62.33-51.07,40.21-32.5a.29.29,0,0,0,.09-.2l-.12-20a.24.24,0,0,0-.11-.2l-20.28-14.58a.24.24,0,0,0-.14-.05l-74.88,1a.25.25,0,0,0-.18.08.24.24,0,0,0-.07.18l.35,22.49L56,301.09l-.53-31.66,20.5-.35.18,11.57a.26.26,0,0,0,.07.17.24.24,0,0,0,.18.07l49.86-.9a.25.25,0,0,0,.25-.25V277.4a.25.25,0,0,0-.08-.18.26.26,0,0,0-.17-.07l-41.94.72-.47-26.33a.25.25,0,0,0-.08-.18.26.26,0,0,0-.17-.07L55,251.83l-1.13-65.56,28.61-.54a.25.25,0,0,0,.25-.25l-.48-26.33,23.57-.42a.29.29,0,0,0,.18-.07.26.26,0,0,0,.07-.18L106,156a.25.25,0,0,0-.25-.25l-31.51.54a.23.23,0,0,0-.17.08.24.24,0,0,0-.07.18l.23,13.61-38.2.71-.59-33.76,108.4-1.85.42,22.55a.25.25,0,0,0,.25.24l71.82-1a.25.25,0,0,0,.25-.25l-.06-5a.28.28,0,0,0-.07-.17L153.94,86.32l-.18-13.4a.25.25,0,0,0-.08-.18.26.26,0,0,0-.17-.07L100,73.39l-.28-.28a.27.27,0,0,0-.18-.08l-46.26.6-1.61-2.11-.3-21.14,1.56-2.17,46.25-.6a.25.25,0,0,0,.16-.06l.29-.24,79.88-1.07.42,29.39a.23.23,0,0,0,.07.17l54.9,57.36a.24.24,0,0,0,.18.07l88.68-.12a.23.23,0,0,0,.2-.1l44-58.74a.24.24,0,0,0,0-.26L354.24,47.88l.09-.33a.22.22,0,0,0,0-.18l-9.19-17.49.09-.33a.22.22,0,0,0,0-.18L339,17.69l13.91-4.29,4.89,9.3a.23.23,0,0,0,.15.12l.32.09,9.19,17.49a.25.25,0,0,0,.13.12l.39.14L378.19,60a.23.23,0,0,0,.2.13h0a.22.22,0,0,0,.2-.1l30-40.17.38-.05a.23.23,0,0,0,.17-.1L416.7,9.54l13.83,24-1,1.43a.23.23,0,0,0-.05.18l.05.32L397.87,77.63a.26.26,0,0,0-.05.19.27.27,0,0,0,.1.16l7.18,5.37-6.6,8.78-7.12-5.37a.3.3,0,0,0-.15-.05h0a.22.22,0,0,0-.16.09l-49.62,66.36a.3.3,0,0,0-.05.15v3.12a.25.25,0,0,0,.25.25l34.38.12a.27.27,0,0,0,.17-.06l1.73-1.56,40.71.36,1.55,1.61a.27.27,0,0,0,.18.07l21,.24a.25.25,0,0,0,.25-.24l.12-8.94,11,.12-.12,8.93a.25.25,0,0,0,.24.25l7.27.12a.22.22,0,0,0,.17-.07l1.61-1.55,40.71.72,1.55,1.61a.26.26,0,0,0,.17.07L616.39,161l-.65,28a.25.25,0,0,0,.23.25l1.54.09a.27.27,0,0,0,.17-.06.25.25,0,0,0,.08-.18l.27-10.64,36.22.83L654,189.83a.25.25,0,0,0,.24.25l18.79.45a.22.22,0,0,0,.17-.07l1.61-1.54,51.78,1.19-1.49,65.56-51.78-1.19-1.55-1.61a.25.25,0,0,0-.18-.08l-27.72-.6a.25.25,0,0,0-.25.25L643.4,263l-27.4-.65.3-10.61a.24.24,0,0,0-.07-.18.25.25,0,0,0-.18-.08h-1.5a.25.25,0,0,0-.25.25l-.66,28-111.17-2.52a.29.29,0,0,0-.18.07l-1.6,1.55-40.77-.72-1.55-1.6a.25.25,0,0,0-.18-.08l-6.9-.06a.25.25,0,0,0-.25.25l-.12,8.93-11-.17.12-8.93a.29.29,0,0,0-.07-.18.25.25,0,0,0-.18-.08L420.69,276a.24.24,0,0,0-.25.25l-.24,46.13-51.28-.24.12-15.27,2.87.05a.25.25,0,0,0,.25-.24l.06-2.28a.29.29,0,0,0-.07-.18.25.25,0,0,0-.18-.08l-6.84-.06a.26.26,0,0,0-.25.24l-.12,2.28a.2.2,0,0,0,.07.18.23.23,0,0,0,.18.08h1.91l-.18,16.49a.24.24,0,0,0,.07.18.29.29,0,0,0,.18.07l101,.54,114.7,74.31.1.33a.24.24,0,0,0,.1.14l9.8,6.44-24.77,14.48Z" transform="translate(0 15.18)"/><path class="cls-3" d="M416.67,10l13.56,23.48-1,1.3a.5.5,0,0,0-.09.36l0,.22L397.67,77.48a.5.5,0,0,0-.1.37.48.48,0,0,0,.2.33l7,5.22-6.3,8.38-6.92-5.22a.54.54,0,0,0-.3-.1h-.07a.53.53,0,0,0-.33.19L341.21,153a.47.47,0,0,0-.1.3v3.12a.5.5,0,0,0,.5.5l34.38.12h0a.46.46,0,0,0,.33-.13l1.66-1.49,40.51.36,1.48,1.53a.47.47,0,0,0,.35.15l21,.24h0a.51.51,0,0,0,.5-.49l.11-8.68,10.46.11-.11,8.68a.49.49,0,0,0,.49.5L460,158h0a.52.52,0,0,0,.35-.14l1.53-1.47,40.5.71,1.48,1.53a.51.51,0,0,0,.35.15l111.88,2.51-.65,27.7a.49.49,0,0,0,.47.51l1.52.09h0a.47.47,0,0,0,.34-.13.48.48,0,0,0,.16-.35l.27-10.4,35.72.82-.23,10.33a.49.49,0,0,0,.49.51l18.78.45h0a.52.52,0,0,0,.35-.14l1.53-1.47,51.43,1.18-1.48,65.06-51.43-1.18L672,252.7a.52.52,0,0,0-.35-.16l-27.72-.6h0a.5.5,0,0,0-.5.49l-.23,10.3-26.9-.64.29-10.35a.5.5,0,0,0-.5-.52h-1.5a.5.5,0,0,0-.5.49l-.65,27.76L502.48,277h0a.5.5,0,0,0-.35.14l-1.53,1.48L460,277.87l-1.47-1.53a.48.48,0,0,0-.36-.16l-6.9-.06h0a.5.5,0,0,0-.5.5l-.12,8.67-10.46-.16.12-8.68a.54.54,0,0,0-.14-.36.53.53,0,0,0-.36-.15l-19.14-.18h0a.5.5,0,0,0-.35.14.49.49,0,0,0-.15.36L420,322.14l-50.78-.24.11-14.77,2.62.05h0a.5.5,0,0,0,.5-.48l.06-2.28a.51.51,0,0,0-.14-.36.5.5,0,0,0-.36-.16l-6.84-.06h0a.5.5,0,0,0-.5.48l-.12,2.28a.48.48,0,0,0,.14.37.48.48,0,0,0,.36.15h1.65l-.17,16.24a.5.5,0,0,0,.14.35.49.49,0,0,0,.36.15l100.95.54L582.5,398.62l.07.24a.47.47,0,0,0,.2.28l9.47,6.22-24.3,14.2L460.44,350a.53.53,0,0,0-.27-.08H455a.48.48,0,0,0-.34.14l-.88.82-6.13-.06-.82-.81a.51.51,0,0,0-.35-.15l-120.66-.66h0a.55.55,0,0,0-.36.15l-.69.7-6.13.11-.87-.87a.51.51,0,0,0-.35-.15l-16.2-.06h0a.51.51,0,0,0-.39.19l-36.7,44.79-61.9-50.71,40-32.32a.49.49,0,0,0,.19-.39l-.12-20a.49.49,0,0,0-.21-.4l-20.28-14.58a.51.51,0,0,0-.29-.1h0l-74.88,1a.51.51,0,0,0-.35.15.54.54,0,0,0-.14.36l.35,22.24-90.2,1.54-.52-31.16,20-.34.17,11.32a.51.51,0,0,0,.15.35.5.5,0,0,0,.35.14h0l49.86-.9a.49.49,0,0,0,.49-.5V277.4a.51.51,0,0,0-.15-.35.47.47,0,0,0-.35-.15h0l-41.68.71-.47-26.08a.51.51,0,0,0-.15-.35.52.52,0,0,0-.35-.14h0l-28.36.53-1.12-65.06L82.48,186a.5.5,0,0,0,.49-.51l-.47-26.08,23.32-.41a.51.51,0,0,0,.35-.15.54.54,0,0,0,.14-.36l-.06-2.46a.51.51,0,0,0-.5-.49h0l-31.5.54a.52.52,0,0,0-.35.16.5.5,0,0,0-.14.35L74,169.93l-37.7.7-.58-33.26,107.9-1.84.41,22.3a.5.5,0,0,0,.5.49h0l71.82-1a.5.5,0,0,0,.49-.5l-.06-5a.48.48,0,0,0-.14-.34L154.19,86.22,154,72.92a.53.53,0,0,0-.15-.36.52.52,0,0,0-.35-.14h0l-53.43.72-.21-.21a.51.51,0,0,0-.35-.15h0l-46.13.6-1.48-1.95-.3-21,1.44-2,46.12-.6a.52.52,0,0,0,.32-.11l.22-.19,79.55-1.07.41,29.14a.48.48,0,0,0,.14.34l54.9,57.36a.48.48,0,0,0,.36.15h0l88.68-.12a.49.49,0,0,0,.4-.2l44-58.74a.51.51,0,0,0,0-.53l-13.65-26,.07-.23a.53.53,0,0,0,0-.37l-9.15-17.4.07-.23a.53.53,0,0,0,0-.37l-6-11.41,13.43-4.14,4.79,9.12a.45.45,0,0,0,.3.24l.22.06,9.14,17.4a.49.49,0,0,0,.26.23l.3.11L378,60.08a.49.49,0,0,0,.4.26h0a.48.48,0,0,0,.4-.2l29.91-40.09.27,0a.5.5,0,0,0,.34-.2L416.67,10m.06-.91-7.8,10.44-.48.06-30,40.26L368.19,40.46l-.48-.18L358.47,22.7l-.42-.12-5-9.48-14.4,4.44L345,29.48l-.12.42,9.24,17.58-.12.42,13.74,26.22-44,58.74-88.68.12-54.9-57.36L179.73,46,99.51,47.06l-.36.3L52.77,48,51.09,50.3l.3,21.3,1.74,2.28,46.38-.6.36.36,53.64-.72.18,13.5,62.58,65.4.06,5-71.82,1-.42-22.8-108.9,1.86.6,34.26,38.7-.72-.24-13.86,31.5-.54.06,2.46L82,158.9l.48,26.58L53.61,186l1.14,66.06,28.86-.54.48,26.58,42.18-.72v2.34l-49.86.9-.18-11.82-21,.36.54,32.16,91.2-1.56L146.61,277l74.88-1,20.28,14.58.12,20-40.44,32.7,62.76,51.42,37-45.18,16.2.06,1,1,6.54-.12.84-.84,120.66.66,1,1,6.54.06,1-1h5.16l107.76,69.72,25.26-14.76-10.14-6.66-.12-.42L468.09,323.9,367,323.36l.18-16.74H365l.12-2.28,6.84.06-.06,2.28-3.12-.06-.12,15.78,51.78.24.24-46.38,19.14.18-.12,9.18,11.46.18.12-9.18,6.9.06,1.62,1.68,41,.72,1.68-1.62L613.89,280l.66-28.26h1.5l-.3,10.86,27.9.66.24-10.8,27.72.6,1.62,1.68,52.14,1.2,1.5-66.06-52.14-1.2-1.68,1.62-18.78-.45.24-10.83-36.72-.84-.28,10.89L616,189l.66-28.2-112.38-2.52-1.62-1.68-40.92-.72-1.68,1.62-7.26-.12.12-9.18L441.45,148l-.12,9.18-21-.24-1.62-1.68-40.92-.36-1.8,1.62-34.38-.12v-3.12L391.23,87l7.32,5.52,6.9-9.18-7.38-5.52,31.68-42.3-.06-.42,1.14-1.56L416.73,9.08Z" transform="translate(0 15.18)"/><polygon class="cls-4" points="204.27 360.02 244.53 327.09 244.35 304.53 221.01 287.67 144.57 288.63 144.99 311.67 143.67 313.05 57.69 314.55 57.21 286.29 74.25 285.99 74.49 297.81 128.31 296.91 128.13 288.93 87.63 289.65 87.15 261.45 58.29 261.93 57.27 206.37 86.19 205.83 85.65 177.63 107.85 177.27 107.67 169.23 72.27 169.83 72.51 183.69 37.71 184.29 37.17 154.05 140.85 152.19 142.23 153.51 142.59 176.67 219.03 175.59 218.91 165.93 156.27 100.59 156.09 85.41 53.47 86.76 53.2 65.46 177.15 63.81 177.45 91.69 234.09 150.99 325.05 150.69 371.22 89.02 342.08 33.19 352.17 30.13 376.89 77.07 378.99 78.64 416.35 28.74 428.24 48.75 395.01 92.73 403.17 98.79 398.25 105.39 390.09 99.27 339.03 167.61 338.97 175.23 442.95 176.01 443.07 164.85 451.29 164.97 451.11 176.13 612.93 179.43 612.27 207.69 618.45 207.81 618.75 194.37 653.49 195.15 653.19 208.59 723.15 210.21 721.89 265.77 642.87 264.09 642.69 277.35 616.65 276.87 617.07 263.37 611.01 263.25 610.35 291.45 449.67 288.15 449.55 299.31 441.33 299.19 441.51 288.03 383.19 287.49 383.13 295.05 416.31 295.35 417.27 296.31 416.85 333.21 415.83 334.23 373.17 333.99 372.33 333.09 372.57 318.75 364.59 318.87 364.35 341.13 467.31 341.67 588.81 420.33 568.13 432.44 460.95 362.97 299.97 362.13 262.65 407.78 204.27 360.02"/><line class="cls-4" x1="406.29" y1="202.22" x2="406.29" y2="187.41"/><line class="cls-4" x1="405.3" y1="202.22" x2="405.3" y2="187.41"/><line class="cls-4" x1="404.31" y1="202.22" x2="404.31" y2="187.41"/><line class="cls-4" x1="403.32" y1="202.22" x2="403.32" y2="187.41"/><line class="cls-4" x1="402.33" y1="202.22" x2="402.33" y2="187.41"/><line class="cls-4" x1="401.34" y1="202.22" x2="401.34" y2="187.41"/><line class="cls-4" x1="400.35" y1="202.22" x2="400.35" y2="187.41"/><line class="cls-4" x1="399.36" y1="202.22" x2="399.36" y2="187.41"/><line class="cls-4" x1="398.37" y1="202.22" x2="398.37" y2="187.41"/><line class="cls-4" x1="397.38" y1="202.22" x2="397.38" y2="187.41"/><line class="cls-4" x1="396.39" y1="202.22" x2="396.39" y2="187.41"/><line class="cls-4" x1="395.4" y1="202.22" x2="395.4" y2="187.41"/><line class="cls-4" x1="390.45" y1="202.1" x2="390.45" y2="187.29"/><line class="cls-4" x1="389.46" y1="202.1" x2="389.46" y2="187.29"/><line class="cls-4" x1="388.47" y1="202.11" x2="388.47" y2="187.3"/><line class="cls-4" x1="387.48" y1="202.04" x2="387.48" y2="187.23"/><line class="cls-4" x1="386.49" y1="202.04" x2="386.49" y2="187.23"/><line class="cls-4" x1="385.5" y1="201.98" x2="385.5" y2="187.17"/><line class="cls-4" x1="384.51" y1="202.01" x2="384.51" y2="187.2"/><line class="cls-4" x1="383.52" y1="201.98" x2="383.52" y2="187.17"/><line class="cls-4" x1="382.53" y1="201.98" x2="382.53" y2="187.17"/><line class="cls-4" x1="406.27" y1="275.63" x2="406.27" y2="260.82"/><line class="cls-4" x1="405.28" y1="275.63" x2="405.28" y2="260.82"/><line class="cls-4" x1="404.29" y1="275.63" x2="404.29" y2="260.82"/><line class="cls-4" x1="403.3" y1="275.63" x2="403.3" y2="260.82"/><line class="cls-4" x1="402.31" y1="275.63" x2="402.31" y2="260.82"/><line class="cls-4" x1="401.32" y1="275.63" x2="401.32" y2="260.82"/><line class="cls-4" x1="400.33" y1="275.63" x2="400.33" y2="260.82"/><line class="cls-4" x1="399.34" y1="275.63" x2="399.34" y2="260.82"/><line class="cls-4" x1="398.35" y1="275.63" x2="398.35" y2="260.82"/><line class="cls-4" x1="397.36" y1="275.63" x2="397.36" y2="260.82"/><line class="cls-4" x1="396.37" y1="275.63" x2="396.37" y2="260.82"/><line class="cls-4" x1="395.38" y1="275.63" x2="395.38" y2="260.82"/><line class="cls-4" x1="390.43" y1="275.51" x2="390.43" y2="260.7"/><line class="cls-4" x1="389.44" y1="275.51" x2="389.44" y2="260.7"/><line class="cls-4" x1="388.45" y1="275.52" x2="388.45" y2="260.71"/><line class="cls-4" x1="387.46" y1="275.45" x2="387.46" y2="260.64"/><line class="cls-4" x1="386.47" y1="275.45" x2="386.47" y2="260.64"/><line class="cls-4" x1="385.48" y1="275.39" x2="385.48" y2="260.58"/><line class="cls-4" x1="384.49" y1="275.42" x2="384.49" y2="260.61"/><line class="cls-4" x1="383.5" y1="275.39" x2="383.5" y2="260.58"/><line class="cls-4" x1="382.51" y1="275.39" x2="382.51" y2="260.58"/><line class="cls-4" x1="269.92" y1="381.7" x2="262.72" y2="375.88"/><line class="cls-4" x1="269.38" y1="382.38" x2="262.17" y2="376.56"/><line class="cls-4" x1="268.84" y1="383.05" x2="261.63" y2="377.23"/><line class="cls-4" x1="268.29" y1="383.72" x2="261.08" y2="377.91"/><line class="cls-4" x1="267.75" y1="384.4" x2="260.54" y2="378.58"/><line class="cls-4" x1="267.2" y1="385.07" x2="260" y2="379.25"/><line class="cls-4" x1="266.66" y1="385.75" x2="259.45" y2="379.93"/><line class="cls-4" x1="266.11" y1="386.42" x2="258.91" y2="380.6"/><line class="cls-4" x1="265.57" y1="387.09" x2="258.36" y2="381.28"/><line class="cls-4" x1="265.03" y1="387.77" x2="257.82" y2="381.95"/><line class="cls-4" x1="264.48" y1="388.44" x2="257.28" y2="382.62"/><line class="cls-4" x1="261.7" y1="391.76" x2="254.5" y2="385.95"/><line class="cls-4" x1="261.16" y1="392.44" x2="253.95" y2="386.62"/><line class="cls-4" x1="260.58" y1="393.09" x2="253.38" y2="387.28"/><line class="cls-4" x1="260.04" y1="393.8" x2="252.83" y2="387.98"/><line class="cls-4" x1="259.46" y1="394.46" x2="252.25" y2="388.64"/><line class="cls-4" x1="407.31" y1="187.48" x2="407.31" y2="177.15"/><line class="cls-4" x1="405.33" y1="187.48" x2="405.33" y2="177.15"/><line class="cls-4" x1="403.35" y1="187.48" x2="403.35" y2="177.15"/><line class="cls-4" x1="401.37" y1="187.32" x2="401.37" y2="176.99"/><line class="cls-4" x1="399.39" y1="187.41" x2="399.39" y2="177.08"/><line class="cls-4" x1="397.41" y1="187.23" x2="397.41" y2="176.9"/><line class="cls-4" x1="395.43" y1="187.23" x2="395.43" y2="176.9"/><line class="cls-4" x1="393.45" y1="187.25" x2="393.45" y2="176.92"/><line class="cls-4" x1="391.47" y1="187.23" x2="391.47" y2="176.9"/><line class="cls-4" x1="389.49" y1="187.23" x2="389.49" y2="176.9"/><line class="cls-4" x1="387.51" y1="187.23" x2="387.51" y2="176.9"/><line class="cls-4" x1="385.53" y1="187.23" x2="385.53" y2="176.9"/><line class="cls-4" x1="383.55" y1="187.23" x2="383.55" y2="176.9"/><line class="cls-5" x1="415.29" y1="177.21" x2="381.96" y2="176.91"/><line class="cls-5" x1="415.29" y1="182.46" x2="381.96" y2="182.16"/><line class="cls-5" x1="415.29" y1="187.47" x2="381.96" y2="187.17"/><line class="cls-4" x1="406.27" y1="286.24" x2="406.27" y2="275.64"/><line class="cls-4" x1="404.29" y1="286.16" x2="404.29" y2="275.64"/><line class="cls-4" x1="402.31" y1="286.14" x2="402.31" y2="275.64"/><line class="cls-4" x1="400.33" y1="286.12" x2="400.33" y2="275.6"/><line class="cls-4" x1="398.35" y1="285.97" x2="398.35" y2="275.64"/><line class="cls-4" x1="396.37" y1="286" x2="396.37" y2="275.6"/><line class="cls-4" x1="394.39" y1="286" x2="394.39" y2="275.51"/><line class="cls-4" x1="392.41" y1="286.05" x2="392.41" y2="275.52"/><line class="cls-4" x1="390.43" y1="285.97" x2="390.43" y2="275.45"/><line class="cls-4" x1="388.45" y1="285.97" x2="388.45" y2="275.45"/><line class="cls-4" x1="386.47" y1="285.97" x2="386.47" y2="275.52"/><line class="cls-4" x1="384.49" y1="285.97" x2="384.49" y2="275.47"/><line class="cls-4" x1="382.51" y1="285.97" x2="382.51" y2="275.42"/><line class="cls-5" x1="414.39" y1="275.7" x2="380.78" y2="275.4"/><line class="cls-5" x1="414.25" y1="280.96" x2="380.92" y2="280.66"/><line class="cls-5" x1="414.25" y1="286.25" x2="380.92" y2="285.95"/><line class="cls-4" x1="393.91" y1="352.36" x2="393.91" y2="342.37"/><line class="cls-4" x1="391.93" y1="352.29" x2="391.93" y2="342.37"/><line class="cls-4" x1="389.95" y1="352.27" x2="389.95" y2="342.37"/><line class="cls-4" x1="387.97" y1="352.25" x2="387.97" y2="342.34"/><line class="cls-4" x1="385.99" y1="352.11" x2="385.99" y2="342.37"/><line class="cls-4" x1="384.01" y1="352.14" x2="384.01" y2="342.34"/><line class="cls-4" x1="382.03" y1="352.14" x2="382.03" y2="342.25"/><line class="cls-4" x1="380.05" y1="352.18" x2="380.05" y2="342.26"/><line class="cls-4" x1="378.07" y1="352.11" x2="378.07" y2="342.19"/><line class="cls-4" x1="376.09" y1="352.11" x2="376.09" y2="342.19"/><line class="cls-4" x1="417.66" y1="352.53" x2="417.66" y2="342.54"/><line class="cls-4" x1="415.68" y1="352.45" x2="415.68" y2="342.54"/><line class="cls-4" x1="413.7" y1="352.43" x2="413.7" y2="342.54"/><line class="cls-4" x1="411.72" y1="352.42" x2="411.72" y2="342.5"/><line class="cls-4" x1="409.74" y1="352.28" x2="409.74" y2="342.54"/><line class="cls-4" x1="407.76" y1="352.31" x2="407.76" y2="342.5"/><line class="cls-4" x1="405.78" y1="352.31" x2="405.78" y2="342.42"/><line class="cls-4" x1="403.8" y1="352.35" x2="403.8" y2="342.42"/><line class="cls-4" x1="401.82" y1="352.28" x2="401.82" y2="342.36"/><line class="cls-4" x1="399.84" y1="352.28" x2="399.84" y2="342.36"/><line class="cls-4" x1="397.86" y1="352.28" x2="397.86" y2="342.42"/><line class="cls-4" x1="395.88" y1="352.27" x2="395.88" y2="342.37"/><line class="cls-4" x1="429.46" y1="352.7" x2="429.46" y2="342.48"/><line class="cls-4" x1="427.48" y1="352.62" x2="427.48" y2="342.48"/><line class="cls-4" x1="425.5" y1="352.61" x2="425.5" y2="342.42"/><line class="cls-4" x1="423.52" y1="352.59" x2="423.52" y2="342.46"/><line class="cls-4" x1="421.54" y1="352.45" x2="421.54" y2="342.48"/><line class="cls-4" x1="419.56" y1="352.48" x2="419.56" y2="342.38"/><line class="cls-4" x1="447.26" y1="352.76" x2="447.26" y2="342.57"/><line class="cls-4" x1="445.28" y1="352.61" x2="445.28" y2="342.56"/><line class="cls-4" x1="443.3" y1="352.64" x2="443.3" y2="342.55"/><line class="cls-4" x1="441.32" y1="352.64" x2="441.32" y2="342.51"/><line class="cls-4" x1="439.34" y1="352.69" x2="439.34" y2="342.51"/><line class="cls-4" x1="437.36" y1="352.62" x2="437.36" y2="342.51"/><line class="cls-4" x1="435.38" y1="352.62" x2="435.38" y2="342.54"/><line class="cls-4" x1="433.4" y1="352.62" x2="433.4" y2="342.51"/><line class="cls-4" x1="431.42" y1="352.61" x2="431.42" y2="342.55"/><line class="cls-5" x1="454.08" y1="342.61" x2="368.42" y2="342.15"/><line class="cls-5" x1="453.72" y1="347.56" x2="368.78" y2="347.1"/><line class="cls-5" x1="453.72" y1="352.55" x2="368.78" y2="352.09"/><line class="cls-4" x1="490.14" y1="369.8" x2="495.61" y2="361.29"/><line class="cls-4" x1="488.5" y1="368.65" x2="493.92" y2="360.2"/><line class="cls-4" x1="486.82" y1="367.55" x2="492.23" y2="359.12"/><line class="cls-4" x1="485.14" y1="366.46" x2="490.56" y2="358"/><line class="cls-4" x1="483.53" y1="365.25" x2="488.86" y2="356.95"/><line class="cls-4" x1="481.82" y1="364.19" x2="487.19" y2="355.84"/><line class="cls-4" x1="480.14" y1="363.11" x2="485.55" y2="354.68"/><line class="cls-4" x1="478.43" y1="362.06" x2="483.86" y2="353.6"/><line class="cls-4" x1="476.78" y1="360.92" x2="482.2" y2="352.47"/><line class="cls-4" x1="510.3" y1="382.93" x2="515.76" y2="374.42"/><line class="cls-4" x1="508.65" y1="381.79" x2="514.07" y2="373.34"/><line class="cls-4" x1="506.97" y1="380.69" x2="512.39" y2="372.25"/><line class="cls-4" x1="505.29" y1="379.59" x2="510.72" y2="371.14"/><line class="cls-4" x1="503.68" y1="378.39" x2="509.01" y2="370.09"/><line class="cls-4" x1="501.98" y1="377.33" x2="507.34" y2="368.97"/><line class="cls-4" x1="500.29" y1="376.24" x2="505.7" y2="367.82"/><line class="cls-4" x1="498.58" y1="375.2" x2="504.01" y2="366.74"/><line class="cls-4" x1="496.93" y1="374.05" x2="502.36" y2="365.6"/><line class="cls-4" x1="495.24" y1="372.97" x2="500.67" y2="364.52"/><line class="cls-4" x1="493.55" y1="371.89" x2="498.94" y2="363.49"/><line class="cls-4" x1="491.87" y1="370.8" x2="497.28" y2="362.36"/><line class="cls-4" x1="520.26" y1="389.54" x2="525.85" y2="380.82"/><line class="cls-4" x1="518.61" y1="388.39" x2="524.16" y2="379.74"/><line class="cls-4" x1="516.94" y1="387.29" x2="522.51" y2="378.6"/><line class="cls-4" x1="515.26" y1="386.19" x2="520.8" y2="377.56"/><line class="cls-4" x1="513.65" y1="384.99" x2="519.1" y2="376.49"/><line class="cls-4" x1="511.94" y1="383.93" x2="517.47" y2="375.32"/><line class="cls-4" x1="521.99" y1="390.53" x2="527.49" y2="381.96"/><line class="cls-5" x1="546.78" y1="394.41" x2="474" y2="347.15"/><line class="cls-5" x1="543.76" y1="398.43" x2="471.6" y2="351.57"/><line class="cls-5" x1="541.03" y1="402.68" x2="468.87" y2="355.82"/><line class="cls-4" x1="262.65" y1="375.82" x2="255.33" y2="370.09"/><line class="cls-4" x1="261.52" y1="377.15" x2="254.26" y2="371.46"/><line class="cls-4" x1="260.44" y1="378.51" x2="253.19" y2="372.83"/><line class="cls-4" x1="259.35" y1="379.86" x2="252.09" y2="374.17"/><line class="cls-4" x1="258.18" y1="381.15" x2="251.04" y2="375.56"/><line class="cls-4" x1="257.13" y1="382.53" x2="249.94" y2="376.91"/><line class="cls-4" x1="256.06" y1="383.9" x2="248.81" y2="378.23"/><line class="cls-4" x1="255.02" y1="385.29" x2="247.74" y2="379.6"/><line class="cls-4" x1="253.89" y1="386.62" x2="246.63" y2="380.93"/><line class="cls-4" x1="252.82" y1="387.99" x2="245.56" y2="382.3"/><line class="cls-4" x1="251.75" y1="389.36" x2="244.53" y2="383.7"/><line class="cls-4" x1="250.68" y1="390.72" x2="243.42" y2="385.04"/><line class="cls-4" x1="249.61" y1="392.09" x2="242.32" y2="386.38"/><line class="cls-5" x1="259.76" y1="364.52" x2="241.69" y2="387.16"/><line class="cls-5" x1="263.32" y1="367.45" x2="245.08" y2="390.31"/><line class="cls-5" x1="266.97" y1="370.32" x2="248.73" y2="393.17"/><line class="cls-4" x1="277.13" y1="387.56" x2="269.91" y2="381.71"/><line class="cls-4" x1="275.98" y1="388.87" x2="268.82" y2="383.05"/><line class="cls-4" x1="274.87" y1="390.21" x2="267.72" y2="384.4"/><line class="cls-4" x1="273.77" y1="391.55" x2="266.6" y2="385.73"/><line class="cls-4" x1="272.57" y1="392.81" x2="265.53" y2="387.1"/><line class="cls-4" x1="271.5" y1="394.18" x2="264.41" y2="388.43"/><line class="cls-4" x1="270.4" y1="395.53" x2="263.26" y2="389.72"/><line class="cls-4" x1="269.34" y1="396.9" x2="262.17" y2="391.08"/><line class="cls-4" x1="268.19" y1="398.21" x2="261.02" y2="392.39"/><line class="cls-4" x1="267.1" y1="399.56" x2="259.93" y2="393.74"/><line class="cls-4" x1="266" y1="400.9" x2="258.88" y2="395.12"/><line class="cls-4" x1="264.9" y1="402.25" x2="257.75" y2="396.44"/><line class="cls-4" x1="263.81" y1="403.6" x2="256.62" y2="397.76"/><line class="cls-5" x1="274.45" y1="376.21" x2="255.65" y2="398.94"/><line class="cls-5" x1="277.95" y1="379.21" x2="259.31" y2="401.74"/><line class="cls-5" x1="281.55" y1="382.13" x2="262.91" y2="404.67"/><line class="cls-4" x1="470.98" y1="287.17" x2="471.2" y2="276.57"/><line class="cls-4" x1="472.96" y1="287.13" x2="473.18" y2="276.62"/><line class="cls-4" x1="474.94" y1="287.15" x2="475.16" y2="276.66"/><line class="cls-4" x1="476.92" y1="287.18" x2="477.14" y2="276.66"/><line class="cls-4" x1="478.9" y1="287.07" x2="479.12" y2="276.74"/><line class="cls-4" x1="480.88" y1="287.14" x2="481.1" y2="276.74"/><line class="cls-4" x1="482.86" y1="287.18" x2="483.08" y2="276.69"/><line class="cls-4" x1="484.84" y1="287.27" x2="485.06" y2="276.74"/><line class="cls-4" x1="486.82" y1="287.23" x2="487.04" y2="276.72"/><line class="cls-4" x1="488.8" y1="287.28" x2="489.02" y2="276.76"/><line class="cls-4" x1="490.78" y1="287.32" x2="491" y2="276.87"/><line class="cls-4" x1="492.76" y1="287.35" x2="492.98" y2="276.85"/><line class="cls-4" x1="494.74" y1="287.4" x2="494.96" y2="276.85"/><line class="cls-5" x1="463.08" y1="276.47" x2="496.69" y2="276.87"/><line class="cls-5" x1="463.11" y1="281.72" x2="496.44" y2="282.12"/><line class="cls-5" x1="463" y1="287.01" x2="496.33" y2="287.41"/><line class="cls-4" x1="473.38" y1="203.19" x2="473.7" y2="188.18"/><line class="cls-4" x1="474.37" y1="203.17" x2="474.69" y2="188.2"/><line class="cls-4" x1="475.36" y1="203.18" x2="475.68" y2="188.22"/><line class="cls-4" x1="476.35" y1="203.21" x2="476.67" y2="188.24"/><line class="cls-4" x1="477.34" y1="203.21" x2="477.66" y2="188.26"/><line class="cls-4" x1="478.33" y1="203.25" x2="478.65" y2="188.28"/><line class="cls-4" x1="479.32" y1="203.28" x2="479.63" y2="188.3"/><line class="cls-4" x1="480.31" y1="203.25" x2="480.62" y2="188.32"/><line class="cls-4" x1="481.3" y1="203.34" x2="481.61" y2="188.34"/><line class="cls-4" x1="482.29" y1="203.37" x2="482.6" y2="188.37"/><line class="cls-4" x1="483.28" y1="203.31" x2="483.59" y2="188.39"/><line class="cls-4" x1="484.27" y1="203.37" x2="484.58" y2="188.41"/><line class="cls-4" x1="489.22" y1="203.43" x2="489.53" y2="188.39"/><line class="cls-4" x1="490.21" y1="203.49" x2="490.52" y2="188.41"/><line class="cls-4" x1="491.2" y1="203.54" x2="491.51" y2="188.44"/><line class="cls-4" x1="492.19" y1="203.56" x2="492.5" y2="188.4"/><line class="cls-4" x1="493.18" y1="203.58" x2="493.49" y2="188.42"/><line class="cls-4" x1="494.17" y1="203.55" x2="494.49" y2="188.38"/><line class="cls-4" x1="495.16" y1="203.62" x2="495.47" y2="188.43"/><line class="cls-4" x1="496.15" y1="203.65" x2="496.47" y2="188.42"/><line class="cls-4" x1="472.67" y1="188.22" x2="472.89" y2="177.9"/><line class="cls-4" x1="474.65" y1="188.26" x2="474.87" y2="177.94"/><line class="cls-4" x1="476.63" y1="188.3" x2="476.85" y2="177.98"/><line class="cls-4" x1="478.62" y1="188.19" x2="478.83" y2="177.86"/><line class="cls-4" x1="480.59" y1="188.32" x2="480.81" y2="178"/><line class="cls-4" x1="482.58" y1="188.18" x2="482.79" y2="177.86"/><line class="cls-4" x1="484.56" y1="188.23" x2="484.77" y2="177.9"/><line class="cls-4" x1="486.54" y1="188.28" x2="486.75" y2="177.96"/><line class="cls-4" x1="488.52" y1="188.31" x2="488.73" y2="177.98"/><line class="cls-4" x1="490.5" y1="188.35" x2="490.71" y2="178.03"/><line class="cls-4" x1="492.48" y1="188.39" x2="492.69" y2="178.07"/><line class="cls-4" x1="494.45" y1="188.43" x2="494.67" y2="178.11"/><line class="cls-4" x1="496.43" y1="188.48" x2="496.65" y2="178.15"/><line class="cls-5" x1="464.91" y1="177.79" x2="498.24" y2="178.19"/><line class="cls-5" x1="464.8" y1="183.04" x2="498.13" y2="183.44"/><line class="cls-5" x1="464.7" y1="188.05" x2="498.03" y2="188.44"/><line class="cls-4" x1="472.21" y1="276.58" x2="472.53" y2="261.57"/><line class="cls-4" x1="473.2" y1="276.56" x2="473.52" y2="261.59"/><line class="cls-4" x1="474.19" y1="276.57" x2="474.51" y2="261.62"/><line class="cls-4" x1="475.18" y1="276.61" x2="475.5" y2="261.64"/><line class="cls-4" x1="476.17" y1="276.6" x2="476.49" y2="261.66"/><line class="cls-4" x1="477.16" y1="276.64" x2="477.48" y2="261.68"/><line class="cls-4" x1="478.15" y1="276.67" x2="478.46" y2="261.7"/><line class="cls-4" x1="479.14" y1="276.64" x2="479.46" y2="261.72"/><line class="cls-4" x1="480.13" y1="276.73" x2="480.44" y2="261.74"/><line class="cls-4" x1="481.12" y1="276.76" x2="481.43" y2="261.76"/><line class="cls-4" x1="482.11" y1="276.71" x2="482.42" y2="261.78"/><line class="cls-4" x1="483.1" y1="276.76" x2="483.41" y2="261.8"/><line class="cls-4" x1="488.05" y1="276.82" x2="488.36" y2="261.79"/><line class="cls-4" x1="489.04" y1="276.88" x2="489.35" y2="261.81"/><line class="cls-4" x1="490.03" y1="276.87" x2="490.34" y2="261.84"/><line class="cls-4" x1="491.02" y1="276.87" x2="491.33" y2="261.79"/><line class="cls-4" x1="492.01" y1="276.87" x2="492.32" y2="261.81"/><line class="cls-4" x1="493" y1="276.82" x2="493.31" y2="261.77"/><line class="cls-4" x1="493.99" y1="276.93" x2="494.3" y2="261.82"/><line class="cls-4" x1="494.98" y1="276.85" x2="495.3" y2="261.81"/><line class="cls-4" x1="701.27" y1="264" x2="701.53" y2="251.71"/><line class="cls-4" x1="702.26" y1="263.98" x2="702.52" y2="251.73"/><line class="cls-4" x1="703.25" y1="264" x2="703.51" y2="251.75"/><line class="cls-4" x1="704.24" y1="264.03" x2="704.5" y2="251.77"/><line class="cls-4" x1="705.23" y1="264.03" x2="705.49" y2="251.79"/><line class="cls-4" x1="706.22" y1="264.06" x2="706.48" y2="251.81"/><line class="cls-4" x1="707.21" y1="264.09" x2="707.47" y2="251.83"/><line class="cls-4" x1="708.2" y1="264.07" x2="708.46" y2="251.85"/><line class="cls-4" x1="709.19" y1="264.15" x2="709.45" y2="251.87"/><line class="cls-4" x1="710.18" y1="264.18" x2="710.44" y2="251.9"/><line class="cls-4" x1="711.17" y1="264.14" x2="711.43" y2="251.92"/><line class="cls-4" x1="712.16" y1="264.19" x2="712.42" y2="251.94"/><line class="cls-4" x1="713.15" y1="264.2" x2="713.41" y2="251.98"/><line class="cls-4" x1="714.14" y1="264.25" x2="714.4" y2="252"/><line class="cls-6" x1="714.14" y1="264.25" x2="701.27" y2="264"/><line class="cls-6" x1="714.39" y1="252.09" x2="701.52" y2="251.84"/><line class="cls-4" x1="714.25" y1="258.17" x2="701.38" y2="257.92"/><line class="cls-4" x1="702.07" y1="223.46" x2="702.32" y2="211.17"/><line class="cls-4" x1="703.06" y1="223.44" x2="703.31" y2="211.19"/><line class="cls-4" x1="704.05" y1="223.45" x2="704.3" y2="211.21"/><line class="cls-4" x1="705.04" y1="223.49" x2="705.29" y2="211.23"/><line class="cls-4" x1="706.03" y1="223.49" x2="706.28" y2="211.25"/><line class="cls-4" x1="707.02" y1="223.52" x2="707.27" y2="211.27"/><line class="cls-4" x1="708" y1="223.55" x2="708.26" y2="211.29"/><line class="cls-4" x1="709" y1="223.53" x2="709.25" y2="211.31"/><line class="cls-4" x1="709.98" y1="223.61" x2="710.24" y2="211.33"/><line class="cls-4" x1="710.97" y1="223.64" x2="711.23" y2="211.35"/><line class="cls-4" x1="711.97" y1="223.6" x2="712.22" y2="211.38"/><line class="cls-4" x1="712.96" y1="223.65" x2="713.21" y2="211.4"/><line class="cls-4" x1="713.94" y1="223.66" x2="714.2" y2="211.44"/><line class="cls-4" x1="714.93" y1="223.71" x2="715.19" y2="211.46"/><line class="cls-6" x1="714.93" y1="223.71" x2="702.07" y2="223.46"/><line class="cls-6" x1="715.18" y1="211.55" x2="702.31" y2="211.3"/><line class="cls-4" x1="715.05" y1="217.63" x2="702.18" y2="217.38"/><line class="cls-4" x1="376.35" y1="319.68" x2="372.55" y2="319.68"/><line class="cls-4" x1="376.35" y1="320.55" x2="372.55" y2="320.55"/><line class="cls-4" x1="376.35" y1="321.42" x2="372.55" y2="321.42"/><line class="cls-4" x1="376.35" y1="322.29" x2="372.55" y2="322.29"/><line class="cls-4" x1="376.35" y1="323.16" x2="372.55" y2="323.16"/><line class="cls-4" x1="376.35" y1="324.03" x2="372.55" y2="324.03"/><line class="cls-4" x1="376.35" y1="324.9" x2="372.55" y2="324.9"/><line class="cls-4" x1="376.35" y1="325.77" x2="372.55" y2="325.77"/><line class="cls-4" x1="376.35" y1="326.64" x2="372.55" y2="326.64"/><line class="cls-4" x1="376.35" y1="327.51" x2="372.42" y2="327.51"/><line class="cls-4" x1="376.35" y1="328.38" x2="372.41" y2="328.38"/><line class="cls-6" x1="376.35" y1="319.68" x2="376.35" y2="334"/><line class="cls-4" x1="66.16" y1="260.5" x2="65.81" y2="248.21"/><line class="cls-4" x1="67.15" y1="260.44" x2="66.81" y2="248.19"/><line class="cls-4" x1="68.14" y1="260.4" x2="67.8" y2="248.16"/><line class="cls-4" x1="69.13" y1="260.39" x2="68.79" y2="248.13"/><line class="cls-4" x1="70.12" y1="260.34" x2="69.77" y2="248.1"/><line class="cls-4" x1="71.11" y1="260.33" x2="70.76" y2="248.08"/><line class="cls-4" x1="72.1" y1="260.31" x2="71.75" y2="248.05"/><line class="cls-4" x1="73.09" y1="260.24" x2="72.74" y2="248.02"/><line class="cls-4" x1="74.08" y1="260.27" x2="73.73" y2="247.99"/><line class="cls-4" x1="75.07" y1="260.25" x2="74.72" y2="247.96"/><line class="cls-4" x1="76.06" y1="260.15" x2="75.71" y2="247.94"/><line class="cls-4" x1="77.05" y1="260.16" x2="76.7" y2="247.91"/><line class="cls-4" x1="78.03" y1="260.12" x2="77.69" y2="247.9"/><line class="cls-4" x1="79.03" y1="260.12" x2="78.68" y2="247.87"/><line class="cls-6" x1="79.03" y1="260.12" x2="66.16" y2="260.5"/><line class="cls-6" x1="78.68" y1="247.97" x2="65.81" y2="248.35"/><line class="cls-4" x1="78.84" y1="254.04" x2="65.97" y2="254.43"/><line class="cls-4" x1="65.35" y1="219.82" x2="65" y2="207.53"/><line class="cls-4" x1="66.34" y1="219.76" x2="66" y2="207.51"/><line class="cls-4" x1="67.33" y1="219.72" x2="66.99" y2="207.48"/><line class="cls-4" x1="68.32" y1="219.71" x2="67.98" y2="207.45"/><line class="cls-4" x1="69.31" y1="219.66" x2="68.96" y2="207.42"/><line class="cls-4" x1="70.3" y1="219.65" x2="69.95" y2="207.4"/><line class="cls-4" x1="71.29" y1="219.63" x2="70.94" y2="207.37"/><line class="cls-4" x1="72.28" y1="219.56" x2="71.93" y2="207.34"/><line class="cls-4" x1="73.27" y1="219.59" x2="72.92" y2="207.31"/><line class="cls-4" x1="74.26" y1="219.57" x2="73.91" y2="207.28"/><line class="cls-4" x1="75.25" y1="219.47" x2="74.9" y2="207.26"/><line class="cls-4" x1="76.24" y1="219.48" x2="75.89" y2="207.23"/><line class="cls-4" x1="77.22" y1="219.44" x2="76.88" y2="207.22"/><line class="cls-4" x1="78.22" y1="219.44" x2="77.87" y2="207.19"/><line class="cls-6" x1="78.22" y1="219.44" x2="65.35" y2="219.82"/><line class="cls-6" x1="77.87" y1="207.29" x2="65" y2="207.67"/><line class="cls-4" x1="78.03" y1="213.36" x2="65.16" y2="213.75"/><line class="cls-4" x1="543.03" y1="415.14" x2="569.02" y2="431.92"/><g class="cls-7"><line class="cls-4" x1="544.12" y1="415.94" x2="548.35" y2="409.29"/><line class="cls-4" x1="545.01" y1="416.42" x2="549.2" y2="409.84"/><line class="cls-4" x1="545.84" y1="416.99" x2="550.05" y2="410.39"/><line class="cls-4" x1="546.71" y1="417.51" x2="550.9" y2="410.94"/><line class="cls-4" x1="547.56" y1="418.06" x2="551.74" y2="411.49"/><line class="cls-4" x1="548.4" y1="418.61" x2="552.59" y2="412.04"/><line class="cls-4" x1="549.25" y1="419.16" x2="553.44" y2="412.59"/><line class="cls-4" x1="550.04" y1="419.79" x2="554.28" y2="413.14"/><line class="cls-4" x1="550.93" y1="420.29" x2="555.09" y2="413.76"/><line class="cls-4" x1="551.77" y1="420.84" x2="555.98" y2="414.24"/><line class="cls-4" x1="552.6" y1="421.42" x2="556.83" y2="414.8"/><line class="cls-4" x1="553.44" y1="421.98" x2="557.67" y2="415.35"/><line class="cls-4" x1="554.34" y1="422.53" x2="558.49" y2="416.02"/><line class="cls-4" x1="555.19" y1="423.08" x2="559.34" y2="416.56"/><line class="cls-4" x1="556.06" y1="423.6" x2="560.2" y2="417.11"/><line class="cls-4" x1="556.89" y1="424.17" x2="561.05" y2="417.65"/><line class="cls-4" x1="557.74" y1="424.72" x2="561.9" y2="418.19"/><line class="cls-4" x1="558.61" y1="425.23" x2="562.75" y2="418.74"/><line class="cls-4" x1="559.45" y1="425.79" x2="563.6" y2="419.28"/><line class="cls-4" x1="567.76" y1="431.11" x2="571.86" y2="424.68"/><line class="cls-4" x1="568.61" y1="431.65" x2="572.72" y2="425.22"/><line class="cls-4" x1="569.4" y1="432.3" x2="573.56" y2="425.77"/><line class="cls-4" x1="570.25" y1="432.84" x2="574.43" y2="426.28"/><line class="cls-4" x1="571.11" y1="433.37" x2="575.29" y2="426.82"/><line class="cls-4" x1="571.98" y1="433.89" x2="576.15" y2="427.34"/><line class="cls-4" x1="562.63" y1="427.88" x2="566.83" y2="421.29"/><line class="cls-4" x1="563.48" y1="428.43" x2="567.68" y2="421.84"/><line class="cls-4" x1="564.33" y1="428.97" x2="568.53" y2="422.39"/><line class="cls-4" x1="565.2" y1="429.49" x2="569.37" y2="422.94"/><line class="cls-4" x1="566.05" y1="430.03" x2="570.22" y2="423.49"/><line class="cls-4" x1="566.91" y1="430.56" x2="571.07" y2="424.04"/><line class="cls-4" x1="554.21" y1="413.26" x2="560.6" y2="403.25"/><line class="cls-4" x1="552.56" y1="412.12" x2="558.91" y2="402.17"/><line class="cls-4" x1="550.88" y1="411.02" x2="557.22" y2="401.08"/><line class="cls-4" x1="574.48" y1="426.21" x2="580.78" y2="416.37"/><line class="cls-4" x1="572.72" y1="425.25" x2="579.09" y2="415.29"/><line class="cls-4" x1="571.04" y1="424.15" x2="577.4" y2="414.21"/><line class="cls-4" x1="569.36" y1="423.05" x2="575.71" y2="413.1"/><line class="cls-4" x1="567.75" y1="421.85" x2="574" y2="412.05"/><line class="cls-4" x1="566.04" y1="420.79" x2="572.33" y2="410.93"/><line class="cls-4" x1="564.36" y1="419.71" x2="570.69" y2="409.78"/><line class="cls-4" x1="562.65" y1="418.66" x2="569" y2="408.7"/><line class="cls-4" x1="561" y1="417.52" x2="567.34" y2="407.56"/><line class="cls-4" x1="559.31" y1="416.43" x2="565.66" y2="406.48"/><line class="cls-4" x1="557.62" y1="415.35" x2="563.93" y2="405.45"/><line class="cls-4" x1="555.93" y1="414.26" x2="562.27" y2="404.32"/><line class="cls-4" x1="582.68" y1="431.85" x2="589.18" y2="421.69"/><line class="cls-4" x1="581" y1="430.75" x2="587.52" y2="420.56"/><line class="cls-4" x1="579.32" y1="429.66" x2="585.81" y2="419.51"/><line class="cls-4" x1="577.71" y1="428.45" x2="584.11" y2="418.44"/><line class="cls-4" x1="576.01" y1="427.39" x2="582.48" y2="417.27"/><line class="cls-5" x1="611.7" y1="436.4" x2="538.92" y2="389.14"/><line class="cls-5" x1="608.27" y1="441.36" x2="536.11" y2="394.49"/><line class="cls-5" x1="605.09" y1="446.15" x2="532.93" y2="399.28"/></g><line class="cls-4" x1="131.54" y1="72.67" x2="131.44" y2="65.34"/><line class="cls-4" x1="130.55" y1="72.69" x2="130.45" y2="65.36"/><line class="cls-4" x1="129.56" y1="72.71" x2="129.46" y2="65.38"/><line class="cls-4" x1="128.57" y1="72.73" x2="128.47" y2="65.4"/><line class="cls-4" x1="127.58" y1="72.75" x2="127.48" y2="65.42"/><line class="cls-4" x1="126.59" y1="72.77" x2="126.49" y2="65.44"/><line class="cls-4" x1="125.6" y1="72.79" x2="125.5" y2="65.46"/><line class="cls-4" x1="124.61" y1="72.81" x2="124.51" y2="65.48"/><line class="cls-4" x1="123.62" y1="72.83" x2="123.52" y2="65.5"/><line class="cls-4" x1="122.63" y1="72.85" x2="122.53" y2="65.51"/><line class="cls-4" x1="121.64" y1="72.87" x2="121.54" y2="65.53"/><line class="cls-4" x1="120.64" y1="72.86" x2="120.54" y2="65.61"/><line class="cls-4" x1="119.65" y1="72.87" x2="119.55" y2="65.63"/><line class="cls-4" x1="118.66" y1="72.89" x2="118.56" y2="65.65"/><line class="cls-4" x1="117.67" y1="72.91" x2="117.57" y2="65.67"/><line class="cls-4" x1="116.68" y1="72.93" x2="116.58" y2="65.69"/><line class="cls-4" x1="115.69" y1="72.95" x2="115.6" y2="65.71"/><line class="cls-4" x1="114.7" y1="72.97" x2="114.61" y2="65.72"/><line class="cls-4" x1="113.71" y1="72.99" x2="113.62" y2="65.74"/><line class="cls-4" x1="112.72" y1="73.01" x2="112.63" y2="65.76"/><line class="cls-4" x1="109.05" y1="72.95" x2="108.95" y2="65.77"/><line class="cls-4" x1="108.06" y1="72.97" x2="107.96" y2="65.79"/><line class="cls-4" x1="107.07" y1="72.99" x2="106.97" y2="65.81"/><line class="cls-4" x1="106.08" y1="73.01" x2="105.98" y2="65.83"/><line class="cls-4" x1="105.09" y1="73.03" x2="105" y2="65.85"/><line class="cls-4" x1="104.1" y1="73.05" x2="104.01" y2="65.87"/><line class="cls-4" x1="103.11" y1="73.07" x2="103.02" y2="65.89"/><line class="cls-4" x1="102.12" y1="73.09" x2="102.03" y2="65.91"/><line class="cls-4" x1="101.13" y1="73.11" x2="101.04" y2="65.93"/><line class="cls-4" x1="100.14" y1="73.13" x2="100.05" y2="65.95"/><line class="cls-4" x1="99.15" y1="73.14" x2="99.06" y2="65.97"/><line class="cls-4" x1="98.15" y1="73.13" x2="98.06" y2="65.91"/><line class="cls-4" x1="97.16" y1="73.15" x2="97.07" y2="65.93"/><line class="cls-4" x1="96.17" y1="73.17" x2="96.08" y2="65.95"/><line class="cls-4" x1="95.18" y1="73.19" x2="95.09" y2="65.96"/><line class="cls-4" x1="94.19" y1="73.21" x2="94.1" y2="65.98"/><line class="cls-4" x1="93.2" y1="73.23" x2="93.11" y2="66"/><line class="cls-4" x1="92.21" y1="73.25" x2="92.12" y2="66.02"/><line class="cls-4" x1="88.42" y1="73.3" x2="88.32" y2="66.16"/><line class="cls-4" x1="87.43" y1="73.31" x2="87.33" y2="66.18"/><line class="cls-4" x1="86.44" y1="73.33" x2="86.34" y2="66.2"/><line class="cls-4" x1="85.45" y1="73.35" x2="85.35" y2="66.22"/><line class="cls-4" x1="84.46" y1="73.37" x2="84.36" y2="66.24"/><line class="cls-4" x1="83.47" y1="73.39" x2="83.37" y2="66.26"/><line class="cls-4" x1="82.48" y1="73.41" x2="82.38" y2="66.28"/><line class="cls-4" x1="81.49" y1="73.43" x2="81.39" y2="66.29"/><line class="cls-4" x1="80.5" y1="73.45" x2="80.4" y2="66.31"/><line class="cls-4" x1="79.51" y1="73.47" x2="79.41" y2="66.33"/><line class="cls-4" x1="78.52" y1="73.49" x2="78.42" y2="66.35"/><line class="cls-4" x1="77.52" y1="73.48" x2="77.42" y2="66.29"/><line class="cls-4" x1="76.53" y1="73.5" x2="76.43" y2="66.31"/><line class="cls-4" x1="75.54" y1="73.52" x2="75.44" y2="66.33"/><line class="cls-4" x1="74.55" y1="73.53" x2="74.45" y2="66.35"/><line class="cls-4" x1="73.56" y1="73.55" x2="73.46" y2="66.37"/><line class="cls-4" x1="72.57" y1="73.57" x2="72.47" y2="66.39"/><line class="cls-4" x1="71.58" y1="73.59" x2="71.48" y2="66.41"/><line class="cls-4" x1="67.83" y1="73.68" x2="67.74" y2="66.45"/><line class="cls-4" x1="66.84" y1="73.65" x2="66.75" y2="66.46"/><line class="cls-4" x1="65.85" y1="73.65" x2="65.76" y2="66.48"/><line class="cls-4" x1="64.86" y1="73.72" x2="64.77" y2="66.5"/><line class="cls-4" x1="63.87" y1="73.71" x2="63.78" y2="66.52"/><line class="cls-4" x1="62.88" y1="73.63" x2="62.78" y2="66.54"/><line class="cls-4" x1="61.89" y1="73.65" x2="61.79" y2="66.56"/><line class="cls-4" x1="60.9" y1="73.67" x2="60.8" y2="66.58"/><line class="cls-4" x1="59.91" y1="73.69" x2="59.81" y2="66.6"/><line class="cls-4" x1="58.92" y1="73.71" x2="58.83" y2="66.62"/><line class="cls-4" x1="57.93" y1="73.73" x2="57.84" y2="66.64"/><line class="cls-4" x1="56.93" y1="73.72" x2="56.83" y2="66.58"/><line class="cls-4" x1="55.94" y1="73.74" x2="55.84" y2="66.6"/><line class="cls-4" x1="54.95" y1="73.76" x2="54.86" y2="66.62"/><line class="cls-4" x1="53.96" y1="73.77" x2="53.87" y2="66.63"/><line class="cls-4" x1="132.72" y1="84.73" x2="132.53" y2="72.65"/><line class="cls-4" x1="130.74" y1="84.68" x2="130.55" y2="72.7"/><line class="cls-4" x1="128.76" y1="84.7" x2="128.57" y2="72.74"/><line class="cls-4" x1="126.78" y1="84.72" x2="126.59" y2="72.73"/><line class="cls-4" x1="124.8" y1="84.81" x2="124.61" y2="72.82"/><line class="cls-4" x1="122.82" y1="84.88" x2="122.63" y2="72.82"/><line class="cls-4" x1="120.84" y1="84.91" x2="120.65" y2="72.75"/><line class="cls-4" x1="118.86" y1="84.8" x2="118.67" y2="72.8"/><line class="cls-4" x1="116.88" y1="84.93" x2="116.69" y2="72.93"/><line class="cls-4" x1="114.9" y1="84.93" x2="114.71" y2="72.95"/><line class="cls-4" x1="112.92" y1="85" x2="112.73" y2="72.93"/><line class="cls-4" x1="110.94" y1="85.03" x2="110.75" y2="72.91"/><line class="cls-4" x1="108.96" y1="85.06" x2="108.77" y2="73.05"/><line class="cls-4" x1="106.98" y1="85.15" x2="106.79" y2="73.17"/><line class="cls-4" x1="105" y1="85.18" x2="104.81" y2="73.21"/><line class="cls-4" x1="103.02" y1="85.2" x2="102.83" y2="73.21"/><line class="cls-4" x1="101.04" y1="85.07" x2="100.85" y2="73.3"/><line class="cls-4" x1="99.06" y1="85.14" x2="98.87" y2="73.29"/><line class="cls-4" x1="97.08" y1="85.19" x2="96.89" y2="73.23"/><line class="cls-4" x1="95.1" y1="85.28" x2="94.91" y2="73.28"/><line class="cls-4" x1="93.12" y1="85.23" x2="92.93" y2="73.25"/><line class="cls-4" x1="91.14" y1="85.28" x2="90.95" y2="73.29"/><line class="cls-4" x1="89.16" y1="85.32" x2="88.97" y2="73.41"/><line class="cls-4" x1="87.18" y1="85.35" x2="86.99" y2="73.38"/><line class="cls-4" x1="85.2" y1="85.4" x2="85.01" y2="73.37"/><line class="cls-4" x1="83.22" y1="85.48" x2="83.03" y2="73.49"/><line class="cls-4" x1="81.24" y1="85.49" x2="81.05" y2="73.58"/><line class="cls-4" x1="79.26" y1="85.43" x2="79.07" y2="73.58"/><line class="cls-4" x1="77.28" y1="85.47" x2="77.08" y2="73.51"/><line class="cls-4" x1="75.3" y1="85.56" x2="75.1" y2="73.57"/><line class="cls-4" x1="73.32" y1="85.52" x2="73.12" y2="73.53"/><line class="cls-4" x1="71.34" y1="85.56" x2="71.14" y2="73.57"/><line class="cls-4" x1="69.36" y1="85.6" x2="69.17" y2="73.69"/><line class="cls-4" x1="67.38" y1="85.64" x2="67.19" y2="73.67"/><line class="cls-4" x1="65.4" y1="85.68" x2="65.2" y2="73.66"/><line class="cls-4" x1="63.42" y1="85.76" x2="63.23" y2="73.84"/><line class="cls-4" x1="61.44" y1="85.79" x2="61.25" y2="73.77"/><line class="cls-4" x1="59.46" y1="85.82" x2="59.27" y2="73.81"/><line class="cls-4" x1="57.48" y1="85.83" x2="57.29" y2="73.84"/><line class="cls-4" x1="55.5" y1="85.91" x2="55.31" y2="73.89"/><line class="cls-5" x1="140.65" y1="72.55" x2="53.31" y2="73.9"/><line class="cls-5" x1="140.35" y1="78.55" x2="53.46" y2="79.89"/><line class="cls-5" x1="140.43" y1="84.58" x2="53.53" y2="85.92"/><line class="cls-5" x1="132.2" y1="65.44" x2="53.22" y2="66.66"/><g class="cls-8"><line class="cls-4" x1="402.37" y1="69.13" x2="408.23" y2="73.54"/><line class="cls-4" x1="402.96" y1="68.34" x2="408.82" y2="72.75"/><line class="cls-4" x1="403.55" y1="67.54" x2="409.41" y2="71.95"/><line class="cls-4" x1="404.14" y1="66.75" x2="410" y2="71.16"/><line class="cls-4" x1="404.73" y1="65.95" x2="410.59" y2="70.36"/><line class="cls-4" x1="405.32" y1="65.16" x2="411.18" y2="69.57"/><line class="cls-4" x1="405.91" y1="64.36" x2="411.77" y2="68.78"/><line class="cls-4" x1="406.5" y1="63.57" x2="412.36" y2="67.98"/><line class="cls-4" x1="407.09" y1="62.78" x2="412.95" y2="67.19"/><line class="cls-4" x1="407.68" y1="61.98" x2="413.54" y2="66.39"/><line class="cls-4" x1="408.3" y1="61.2" x2="414.09" y2="65.56"/><line class="cls-4" x1="408.89" y1="60.4" x2="414.68" y2="64.76"/><line class="cls-4" x1="409.48" y1="59.61" x2="415.27" y2="63.97"/><line class="cls-4" x1="410.07" y1="58.81" x2="415.86" y2="63.17"/><line class="cls-4" x1="410.66" y1="58.02" x2="416.45" y2="62.38"/><line class="cls-4" x1="411.25" y1="57.22" x2="417.04" y2="61.58"/><line class="cls-4" x1="411.84" y1="56.43" x2="417.63" y2="60.79"/><line class="cls-4" x1="412.43" y1="55.63" x2="418.22" y2="59.99"/><line class="cls-4" x1="413.02" y1="54.84" x2="418.81" y2="59.2"/><line class="cls-4" x1="415.32" y1="51.97" x2="421.05" y2="56.29"/><line class="cls-4" x1="415.91" y1="51.17" x2="421.64" y2="55.49"/><line class="cls-4" x1="416.5" y1="50.38" x2="422.23" y2="54.7"/><line class="cls-4" x1="417.09" y1="49.59" x2="422.82" y2="53.9"/><line class="cls-4" x1="417.68" y1="48.79" x2="423.41" y2="53.11"/><line class="cls-4" x1="418.27" y1="48" x2="424" y2="52.31"/><line class="cls-4" x1="418.86" y1="47.2" x2="424.59" y2="51.52"/><line class="cls-4" x1="419.45" y1="46.41" x2="425.18" y2="50.72"/><line class="cls-4" x1="420.04" y1="45.61" x2="425.77" y2="49.93"/><line class="cls-4" x1="420.63" y1="44.82" x2="426.36" y2="49.13"/><line class="cls-4" x1="421.22" y1="44.02" x2="426.95" y2="48.34"/><line class="cls-4" x1="421.84" y1="43.24" x2="427.61" y2="47.58"/><line class="cls-4" x1="422.43" y1="42.44" x2="428.2" y2="46.79"/><line class="cls-4" x1="423.02" y1="41.65" x2="428.79" y2="46"/><line class="cls-4" x1="423.61" y1="40.85" x2="429.38" y2="45.2"/><line class="cls-4" x1="424.2" y1="40.06" x2="429.98" y2="44.41"/><line class="cls-4" x1="424.79" y1="39.26" x2="430.57" y2="43.61"/><line class="cls-4" x1="425.38" y1="38.47" x2="431.16" y2="42.82"/><line class="cls-4" x1="391.52" y1="63.49" x2="401.19" y2="70.72"/><line class="cls-4" x1="392.77" y1="61.95" x2="402.36" y2="69.13"/><line class="cls-4" x1="393.96" y1="60.38" x2="403.54" y2="67.54"/><line class="cls-4" x1="395.16" y1="58.8" x2="404.76" y2="65.98"/><line class="cls-4" x1="396.3" y1="57.18" x2="405.9" y2="64.36"/><line class="cls-4" x1="397.45" y1="55.57" x2="407.11" y2="62.79"/><line class="cls-4" x1="398.64" y1="53.99" x2="408.38" y2="61.27"/><line class="cls-4" x1="399.94" y1="52.48" x2="409.55" y2="59.67"/><line class="cls-4" x1="401.05" y1="50.84" x2="410.66" y2="58.03"/><line class="cls-4" x1="402.26" y1="49.27" x2="411.85" y2="56.45"/><line class="cls-4" x1="403.41" y1="47.66" x2="413.08" y2="54.89"/><line class="cls-4" x1="404.6" y1="46.08" x2="414.31" y2="53.34"/><line class="cls-4" x1="405.79" y1="44.5" x2="415.41" y2="51.69"/><line class="cls-4" x1="406.93" y1="42.87" x2="416.52" y2="50.05"/><line class="cls-4" x1="408.12" y1="41.29" x2="417.7" y2="48.46"/><line class="cls-4" x1="409.32" y1="39.71" x2="418.91" y2="46.89"/><line class="cls-4" x1="410.63" y1="38.22" x2="420.06" y2="45.28"/><line class="cls-4" x1="411.78" y1="36.61" x2="421.27" y2="43.71"/><line class="cls-4" x1="412.96" y1="35.02" x2="422.53" y2="42.18"/><line class="cls-4" x1="414.1" y1="33.4" x2="423.7" y2="40.59"/><line class="cls-4" x1="415.34" y1="31.86" x2="424.94" y2="39.04"/><line class="cls-4" x1="416.52" y1="30.27" x2="426.12" y2="37.45"/><line class="cls-4" x1="417.7" y1="28.68" x2="427.24" y2="35.81"/><line class="cls-4" x1="418.88" y1="27.09" x2="428.47" y2="34.26"/><line class="cls-4" x1="420.06" y1="25.49" x2="429.69" y2="32.7"/><line class="cls-4" x1="421.21" y1="23.87" x2="430.81" y2="31.05"/><line class="cls-4" x1="422.41" y1="22.3" x2="431.95" y2="29.44"/><line class="cls-4" x1="423.67" y1="20.77" x2="433.17" y2="27.87"/><line class="cls-4" x1="424.85" y1="19.18" x2="434.43" y2="26.34"/><line class="cls-4" x1="425.99" y1="17.56" x2="435.6" y2="24.75"/><line class="cls-4" x1="427.24" y1="16.02" x2="436.84" y2="23.2"/><line class="cls-4" x1="428.42" y1="14.43" x2="438.02" y2="21.61"/><line class="cls-4" x1="429.59" y1="12.84" x2="439.13" y2="19.97"/><line class="cls-4" x1="430.78" y1="11.25" x2="440.36" y2="18.42"/><line class="cls-4" x1="431.95" y1="9.65" x2="441.58" y2="16.86"/><line class="cls-4" x1="433.1" y1="8.04" x2="442.65" y2="15.18"/><line class="cls-4" x1="434.29" y1="6.45" x2="443.92" y2="13.66"/><line class="cls-4" x1="435.47" y1="4.87" x2="445.1" y2="12.07"/><line class="cls-4" x1="436.68" y1="3.3" x2="446.28" y2="10.48"/><line class="cls-4" x1="437.83" y1="1.69" x2="447.46" y2="8.89"/><line class="cls-5" x1="396.3" y1="77.21" x2="448.67" y2="7.3"/><line class="cls-5" x1="391.74" y1="73.31" x2="443.84" y2="3.75"/><line class="cls-5" x1="386.92" y1="69.68" x2="439.03" y2="0.13"/><line class="cls-5" x1="407.09" y1="74.88" x2="454.45" y2="11.66"/></g><g class="cls-9"><line class="cls-4" x1="367.12" y1="78.81" x2="374.4" y2="75"/><line class="cls-4" x1="366.65" y1="77.94" x2="373.93" y2="74.12"/><line class="cls-4" x1="366.19" y1="77.06" x2="373.47" y2="73.25"/><line class="cls-4" x1="365.72" y1="76.19" x2="373" y2="72.37"/><line class="cls-4" x1="365.26" y1="75.32" x2="372.54" y2="71.5"/><line class="cls-4" x1="364.79" y1="74.44" x2="372.07" y2="70.63"/><line class="cls-4" x1="364.33" y1="73.57" x2="371.61" y2="69.75"/><line class="cls-4" x1="362.6" y1="70.33" x2="369.95" y2="66.48"/><line class="cls-4" x1="362.14" y1="69.45" x2="369.48" y2="65.61"/><line class="cls-4" x1="361.67" y1="68.58" x2="369.02" y2="64.73"/><line class="cls-4" x1="361.21" y1="67.7" x2="368.55" y2="63.86"/><line class="cls-4" x1="363.86" y1="72.88" x2="371.21" y2="69.03"/><line class="cls-4" x1="363.4" y1="72" x2="370.74" y2="68.15"/><line class="cls-4" x1="362.93" y1="71.13" x2="370.28" y2="67.28"/><line class="cls-4" x1="360.74" y1="66.83" x2="368.09" y2="62.98"/><line class="cls-4" x1="360.28" y1="65.96" x2="367.62" y2="62.11"/><line class="cls-4" x1="357.96" y1="61.59" x2="365.3" y2="57.74"/><line class="cls-4" x1="357.52" y1="60.69" x2="364.91" y2="56.81"/><line class="cls-4" x1="357.05" y1="59.81" x2="364.45" y2="55.94"/><line class="cls-4" x1="356.59" y1="58.94" x2="363.98" y2="55.06"/><line class="cls-4" x1="356.12" y1="58.06" x2="363.52" y2="54.19"/><line class="cls-4" x1="355.66" y1="57.19" x2="363.05" y2="53.32"/><line class="cls-4" x1="355.19" y1="56.32" x2="362.59" y2="52.44"/><line class="cls-4" x1="354.73" y1="55.44" x2="362.12" y2="51.57"/><line class="cls-4" x1="354.31" y1="54.63" x2="361.7" y2="50.75"/><line class="cls-4" x1="353.84" y1="53.75" x2="361.24" y2="49.88"/><line class="cls-4" x1="353.38" y1="52.88" x2="360.77" y2="49"/><line class="cls-4" x1="352.99" y1="52.07" x2="360.28" y2="48.25"/><line class="cls-4" x1="352.53" y1="51.19" x2="359.81" y2="47.37"/><line class="cls-4" x1="352.07" y1="50.32" x2="359.35" y2="46.5"/><line class="cls-4" x1="351.6" y1="49.44" x2="358.88" y2="45.63"/><line class="cls-4" x1="351.14" y1="48.57" x2="358.42" y2="44.75"/><line class="cls-4" x1="350.67" y1="47.69" x2="357.96" y2="43.88"/><line class="cls-4" x1="348.35" y1="43.32" x2="355.63" y2="39.51"/><line class="cls-4" x1="347.91" y1="42.42" x2="355.24" y2="38.58"/><line class="cls-4" x1="347.45" y1="41.55" x2="354.78" y2="37.71"/><line class="cls-4" x1="346.98" y1="40.68" x2="354.31" y2="36.83"/><line class="cls-4" x1="346.52" y1="39.8" x2="353.85" y2="35.96"/><line class="cls-4" x1="346.05" y1="38.93" x2="353.38" y2="35.08"/><line class="cls-4" x1="345.59" y1="38.05" x2="352.92" y2="34.21"/><line class="cls-4" x1="345.12" y1="37.18" x2="352.46" y2="33.34"/><line class="cls-4" x1="344.66" y1="36.33" x2="351.99" y2="32.49"/><line class="cls-4" x1="344.2" y1="35.46" x2="351.53" y2="31.62"/><line class="cls-4" x1="343.73" y1="34.59" x2="351.07" y2="30.74"/><line class="cls-4" x1="343.27" y1="33.71" x2="350.6" y2="29.87"/><line class="cls-5" x1="377.14" y1="98.05" x2="336.47" y2="20.74"/><line class="cls-5" x1="380.76" y1="87.06" x2="343.98" y2="17.15"/></g><polygon class="cls-10" points="652.83 263.49 642.6 263.25 642.33 277.11 617.07 276.51 617.43 262.65 610.38 262.53 610.59 252.87 653.07 253.89 652.83 263.49"/><polygon class="cls-10" points="619.05 194.67 618.75 208.45 615.03 208.47 615.03 211.05 654.45 212.01 654.51 209.31 652.89 209.19 653.19 195.51 619.05 194.67"/><polygon class="cls-11" points="642.33 277.11 634.59 276.99 634.77 263.79 642.58 264.03 642.33 277.11"/><polygon class="cls-11" points="617.07 276.51 617.41 263.49 624.99 263.49 624.99 276.66 617.07 276.51"/><polygon class="cls-11" points="633.81 276.87 625.65 276.72 625.95 263.59 634.35 263.78 633.81 276.87"/><polygon class="cls-11" points="652.17 263.47 652.17 259.05 617.49 258.33 617.43 262.65 652.17 263.47"/><polygon class="cls-11" points="653.19 195.51 645.27 195.31 645.09 208.59 652.9 208.53 653.19 195.51"/><polygon class="cls-11" points="644.65 195.3 644.34 208.53 636.27 208.29 636.45 195.06 644.65 195.3"/><polygon class="cls-11" points="635.79 195.12 635.46 208.17 627.39 208.03 627.39 194.87 635.79 195.12"/><polygon class="cls-11" points="626.91 194.86 626.73 207.99 618.76 207.81 619.05 194.67 626.91 194.86"/><polygon class="cls-12" points="560.91 289.35 609.69 290.79 610.59 252.87 653.07 253.89 652.83 263.49 693.69 264.33 694.14 250.11 714.39 250.53 714.93 225.15 694.65 224.61 694.95 210.39 654.51 209.31 654.45 212.01 615.03 211.05 615.03 208.47 611.61 208.29 612.27 180.09 563.43 179.31 560.91 289.35"/><polygon class="cls-13" points="692.54 264.3 692.54 259.59 676.59 259.26 676.18 263.97 692.54 264.3"/><polygon class="cls-13" points="677.25 209.91 677.25 214.89 694.14 215.25 694.29 210.3 677.25 209.91"/><polygon class="cls-14" points="459.93 261.51 460.95 203.19 472.53 203.13 497.13 203.67 497.61 177.69 563.43 179.31 560.91 289.35 496.29 288.03 496.71 261.9 471.63 261.51 459.93 261.51"/><polygon class="cls-15" points="560.91 289.35 536.64 288.81 536.94 278.55 561.15 278.87 560.91 289.35"/><polygon class="cls-15" points="496.29 288.03 496.71 261.9 515.04 261.99 514.83 288.41 496.29 288.03"/><polygon class="cls-15" points="515.52 288.51 515.73 261.99 537.03 262.08 536.13 288.81 515.52 288.51"/><polygon class="cls-15" points="561.92 245.07 537.93 244.71 537.24 277.89 561.16 278.28 561.92 245.07"/><polygon class="cls-15" points="537.24 244.68 461.06 243.03 460.89 260.76 536.94 261.39 537.24 244.68"/><polygon class="cls-15" points="513.51 204.59 498.09 204.33 498.57 177.71 513.99 178.09 513.51 204.59"/><polygon class="cls-15" points="513.51 205.35 513.03 232.89 500.37 232.68 500.9 205.08 513.51 205.35"/><polygon class="cls-15" points="499.96 205.17 489.21 204.93 489.12 232.47 499.89 232.68 499.96 205.17"/><polygon class="cls-15" points="478.47 204.93 478.19 226.76 488.49 226.86 488.85 204.93 478.47 204.93"/><polygon class="cls-15" points="478.05 204.42 467.73 204.42 467.85 205.47 461.61 205.35 461.58 210.72 478.05 210.87 478.05 204.42"/><polygon class="cls-15" points="478.05 211.71 461.55 211.41 461.13 234.39 464.73 234.45 464.73 231.96 477.46 232.11 478.05 211.71"/><polygon class="cls-15" points="478.05 232.23 478.17 227.01 488.43 227.25 488.43 232.41 478.05 232.23"/><rect class="cls-15" x="548.1" y="210.23" width="6.48" height="4.94" transform="translate(1102.69 440.59) rotate(180)"/><rect class="cls-15" x="548.04" y="204.2" width="6.48" height="5.53" transform="translate(1102.56 429.12) rotate(180)"/><rect class="cls-15" x="548.01" y="197.22" width="6.48" height="6.48" transform="translate(1102.5 416.1) rotate(180)"/><rect class="cls-15" x="548.16" y="184.79" width="6.48" height="6.48" transform="translate(1102.8 391.25) rotate(180)"/><rect class="cls-15" x="548.04" y="191.78" width="6.48" height="4.94" transform="translate(1102.56 403.68) rotate(180)"/><rect class="cls-15" x="548.36" y="179.35" width="6.48" height="4.94" transform="translate(1103.21 378.83) rotate(180)"/><rect class="cls-15" x="519.52" y="209.12" width="4.94" height="2.55" transform="translate(1043.98 435.98) rotate(180)"/><rect class="cls-15" x="519.52" y="206.23" width="4.94" height="2.55" transform="translate(1043.98 430.19) rotate(180)"/><rect class="cls-15" x="519.52" y="203.33" width="4.94" height="2.55" transform="translate(1043.98 424.4) rotate(180)"/><rect class="cls-15" x="519.52" y="200.44" width="4.94" height="2.55" transform="translate(1043.98 418.61) rotate(180)"/><rect class="cls-15" x="519.52" y="197.54" width="4.94" height="2.55" transform="translate(1043.98 412.82) rotate(180)"/><rect class="cls-15" x="519.52" y="194.65" width="4.94" height="2.55" transform="translate(1043.98 407.03) rotate(180)"/><rect class="cls-15" x="519.52" y="191.75" width="4.94" height="2.55" transform="translate(1043.98 401.24) rotate(180)"/><rect class="cls-15" x="519.52" y="188.86" width="4.94" height="2.55" transform="translate(1043.98 395.45) rotate(180)"/><rect class="cls-15" x="519.52" y="185.96" width="4.94" height="2.55" transform="translate(1043.98 389.66) rotate(180)"/><rect class="cls-15" x="542.13" y="168.5" width="2.58" height="6.6" transform="translate(1086.84 358.79) rotate(180)"/><rect class="cls-15" x="539.16" y="168.5" width="2.58" height="6.6" transform="translate(1080.9 358.79) rotate(180)"/><rect class="cls-15" x="536.19" y="168.5" width="2.58" height="6.6" transform="translate(1074.96 358.79) rotate(180)"/><rect class="cls-15" x="533.22" y="168.5" width="2.58" height="6.6" transform="translate(1069.02 358.79) rotate(180)"/><rect class="cls-15" x="530.25" y="168.5" width="2.58" height="6.6" transform="translate(1063.08 358.79) rotate(180)"/><rect class="cls-15" x="527.28" y="168.5" width="2.58" height="6.6" transform="translate(1057.14 358.79) rotate(180)"/><rect class="cls-15" x="524.31" y="168.5" width="2.58" height="6.6" transform="translate(1051.2 358.79) rotate(180)"/><polygon class="cls-16" points="444.09 173.07 450.03 173.13 450.45 177.63 464.79 177.81 464.67 188.13 472.65 188.31 472.53 203.13 460.95 203.19 459.93 261.51 471.63 261.51 471.33 276.63 463.35 276.45 463.11 287 449.07 286.65 448.35 291.03 442.77 290.97 442.11 286.59 414.33 286.29 414.33 275.85 407.25 275.61 407.43 260.85 381.15 260.79 380.97 285.99 370.77 285.81 370.89 266.37 359.79 266.61 352.29 266.67 352.53 203.25 353.37 204.27 381.93 204.69 381.93 201.99 407.13 202.23 407.31 187.41 415.23 187.53 415.29 177.21 443.43 177.39 444.09 173.07"/><polygon class="cls-17" points="337.77 176.25 337.77 183.63 341.97 189.69 341.67 189.93 351.45 203.97 352.53 203.25 353.37 204.27 381.93 204.69 381.93 201.99 381.96 176.4 337.77 176.25"/><polygon class="cls-18" points="351.45 203.97 352.53 203.25 353.73 202.4 343.96 188.31 341.97 189.69 341.67 189.93 351.45 203.97"/><polygon class="cls-18" points="381.15 196.63 373.41 196.54 373.41 194.64 369 194.58 368.94 203.73 381.03 203.8 381.15 196.63"/><polygon class="cls-18" points="381.15 196.05 373.8 195.99 373.86 190.47 381.21 190.47 381.15 196.05"/><polygon class="cls-18" points="381.21 189.93 373.86 189.75 373.98 184.26 381.21 184.29 381.21 189.93"/><polygon class="cls-18" points="373.5 194.37 369 194.37 369 190.35 373.47 190.41 373.5 194.37"/><polygon class="cls-18" points="373.47 189.87 369 189.75 369.06 185.67 373.51 185.67 373.47 189.87"/><polygon class="cls-19" points="86.37 178.29 87.09 221.67 66.69 222.03 67.11 245.97 87.51 245.61 88.29 288.99 128.84 288.24 129.03 297.81 73.8 298.67 73.65 286.53 57.81 286.95 58.23 313.57 142.96 312.36 144.33 311.25 144 288.03 220.53 287.13 221.01 285.99 221.01 280.53 220.34 182.52 220.23 176.13 141.76 177.31 141.54 153.83 140.31 152.85 37.71 154.6 38.37 183.63 71.73 183.07 71.61 169.17 108.13 168.54 108.28 177.9 86.37 178.29"/><polygon class="cls-20" points="86.91 211.65 103.05 211.65 103.05 205.23 86.79 205.23 86.91 211.65"/><rect class="cls-20" x="87.69" y="240.2" width="16.38" height="6.45" transform="translate(191.76 502.04) rotate(180)"/><polygon class="cls-20" points="91.05 183.26 90.99 178.21 170.4 176.88 170.51 181.83 91.05 183.26"/><polygon class="cls-20" points="141.76 176.67 134.67 176.79 134.73 173.07 141.72 173.07 141.76 176.67"/><polygon class="cls-20" points="108.27 177.33 115.68 177.1 115.68 173.49 108.21 173.58 108.27 177.33"/><polygon class="cls-20" points="133.38 176.79 133.41 173.19 125.79 173.25 125.79 176.92 133.38 176.79"/><polygon class="cls-20" points="124.47 176.92 124.47 173.31 117.03 173.47 117.03 177.07 124.47 176.92"/><polygon class="cls-20" points="71.68 177.15 64.17 177.33 64.29 183.19 71.73 183.07 71.68 177.15"/><polygon class="cls-20" points="63.51 177.33 55.38 177.51 55.35 183.34 63.63 183.19 63.51 177.33"/><polygon class="cls-20" points="46.53 177.63 46.53 183.49 54.73 183.34 54.75 177.45 46.53 177.63"/><polygon class="cls-20" points="38.23 177.69 38.37 183.63 45.9 183.51 45.9 177.57 38.23 177.69"/><polygon class="cls-20" points="193.68 287.44 144.75 288.02 144.39 261.93 193.41 261.27 193.68 287.44"/><polygon class="cls-20" points="98.25 288.8 98.25 284.01 144.33 283.23 144.39 288.02 98.25 288.8"/><polygon class="cls-20" points="98.22 283.41 98.01 278.79 144.33 278.01 144.39 282.57 98.22 283.41"/><polygon class="cls-20" points="144.06 292.29 128.92 292.59 128.85 288.92 144.01 288.69 144.06 292.29"/><polygon class="cls-20" points="73.72 292.71 66.21 292.71 66.03 286.73 73.65 286.53 73.72 292.71"/><polygon class="cls-20" points="57.9 292.89 57.81 286.95 65.49 286.74 65.43 292.71 57.9 292.89"/><path class="cls-20" d="M192.39,161.36l.36,19.26,19.5-.36a97.51,97.51,0,0,1,6.46-11.77l-.19-7.52Z" transform="translate(0 15.18)"/><path class="cls-20" d="M212,180.9s-3.79,7-6.16,20.54l-13,.21-.12-20.56Z" transform="translate(0 15.18)"/><path class="cls-20" d="M205.68,202.15a99.84,99.84,0,0,0-1.15,15.21l-11.57.22-.09-15.43Z" transform="translate(0 15.18)"/><path class="cls-20" d="M205.23,226.34l-11.52.18.23,26,18.61-.36A87.73,87.73,0,0,1,205.23,226.34Z" transform="translate(0 15.18)"/><path class="cls-20" d="M212.71,252.92,194,253.1l.24,19.15,25.74-.3v-6.64A61.74,61.74,0,0,1,212.71,252.92Z" transform="translate(0 15.18)"/><path class="cls-21" d="M393.87,77.6l1.92,2-3.42,4.62-2.58-1.44-52.08,69.72.06,15.9,4.2,6.06-.3.24,9.78,14,1.08-.72-.24,63.42,7.5-.06V265l3.72,10.32L363,327l5.58.06-.06,10.14,85.32.48.06-10.2,13.08-.06,10.53,6.82-5.67,8.72L527,378.62l5.68-8.76,14.18,9.06-6.54,10.2,6.9,4.5L543,400l-81.84-53-162.78-1-53-33.5-.36-24.06L221,270.81v-5.47a83.74,83.74,0,0,1-15.16-40.61,86.64,86.64,0,0,1,14.5-57.39l-.12-16.6L157.35,85l-.3-15.78-16.62.29-.06-12.17-8.28.12L132,50.24l44.28-.72.3,27.66,57.12,59.58,91.8-.42,46.78-62.22L369,67.52l7.44-3.9,2.27,1.62,8.23-11,9.57,7.21,5-6.59,5.9,4.42Z" transform="translate(0 15.18)"/><path class="cls-22" d="M231.87,253.88l1.39,2.12-.41.48A54.42,54.42,0,0,1,215,216.05a55.12,55.12,0,0,1,16.56-38.55l.42.42-1.32,2.1,3.78,1.46s10.75,15.86,10.44,36.67-9.29,34.18-9.29,34.18Z" transform="translate(0 15.18)"/><rect class="cls-22" x="350.19" y="216.32" width="4.92" height="0.66" transform="translate(705.3 448.49) rotate(180)"/><rect class="cls-22" x="350.19" y="198.26" width="4.92" height="0.66" transform="translate(705.3 412.37) rotate(180)"/><rect class="cls-22" x="350.25" y="213.2" width="4.86" height="1.32" transform="translate(705.36 442.91) rotate(180)"/><rect class="cls-22" x="350.25" y="210.08" width="4.86" height="1.32" transform="translate(705.36 436.67) rotate(180)"/><rect class="cls-22" x="350.25" y="206.96" width="4.86" height="1.32" transform="translate(705.36 430.43) rotate(180)"/><rect class="cls-22" x="350.25" y="203.84" width="4.86" height="1.32" transform="translate(705.36 424.19) rotate(180)"/><rect class="cls-22" x="350.25" y="200.72" width="4.86" height="1.32" transform="translate(705.36 417.95) rotate(180)"/><rect class="cls-22" x="349.65" y="197.6" width="6.18" height="0.66" transform="translate(705.48 411.05) rotate(180)"/><rect class="cls-22" x="349.65" y="194" width="6.18" height="0.66" transform="translate(705.48 403.85) rotate(180)"/><polygon class="cls-23" points="380.97 285.99 381.03 296.01 416.19 296.31 415.89 333.21 376.89 332.91 377.01 317.79 363.27 317.67 363.51 290.55 359.79 280.23 359.79 266.61 370.89 266.37 370.77 285.81 380.97 285.99"/><rect class="cls-24" x="381.81" y="304.28" width="7.98" height="7.5" transform="translate(771.6 631.25) rotate(180)"/><rect class="cls-24" x="391.38" y="280.97" width="7.77" height="8.28" transform="translate(790.53 585.41) rotate(180)"/><rect class="cls-24" x="364.77" y="272.72" width="8.22" height="24.99" transform="translate(737.76 585.62) rotate(180)"/><polygon class="cls-24" points="369.85 287.3 363.18 287.3 360.61 279.99 360.81 267.06 370.05 267.22 369.85 287.3"/><polygon class="cls-24" points="380.97 285.99 381.03 296.01 390.9 296.09 390.78 312.93 382.83 312.84 382.77 300.93 387.51 301.04 387.51 300.09 377.43 300.03 377.43 300.99 382.17 300.99 382.11 312.9 373.47 312.81 373.77 285.81 380.97 285.99"/><rect class="cls-24" x="410.2" y="286.58" width="5.81" height="13.98" transform="translate(826.21 602.33) rotate(180)"/><rect class="cls-24" x="399.42" y="312.03" width="16.47" height="5.99" transform="translate(815.31 645.24) rotate(180)"/><rect class="cls-24" x="398.55" y="301.1" width="17.4" height="5.75" transform="translate(814.5 623.14) rotate(180)"/><polygon class="cls-25" points="298.41 361.17 280.11 384.33 258.09 366.21 245.49 382.11 266.73 401.19 262.2 406.59 205.09 359.91 245.44 327.67 298.41 361.17"/><circle class="cls-26" cx="341.04" cy="203.34" r="2.31"/><circle class="cls-26" cx="316.38" cy="203.34" r="2.31"/><circle class="cls-26" cx="291.66" cy="203.4" r="2.31"/><circle class="cls-26" cx="267" cy="201.66" r="2.31"/><circle class="cls-26" cx="242.34" cy="201.84" r="2.31"/><circle class="cls-26" cx="217.62" cy="202.02" r="2.31"/><circle class="cls-26" cx="341.04" cy="231.24" r="2.31"/><circle class="cls-26" cx="316.38" cy="231.18" r="2.31"/><circle class="cls-26" cx="291.66" cy="231.18" r="2.31"/><circle class="cls-26" cx="267.18" cy="231.29" r="2.31"/><circle class="cls-26" cx="242.52" cy="231.47" r="2.31"/><circle class="cls-26" cx="242.76" cy="261" r="2.31"/><circle class="cls-26" cx="267.3" cy="260.91" r="2.31"/><circle class="cls-26" cx="291.84" cy="259.05" r="2.31"/><circle class="cls-26" cx="316.38" cy="258.96" r="2.31"/><circle class="cls-26" cx="340.92" cy="259.05" r="2.31"/><circle class="cls-26" cx="341.7" cy="315.57" r="2.31"/><circle class="cls-26" cx="317.1" cy="316.02" r="2.31"/><circle class="cls-26" cx="292.47" cy="316.44" r="2.31"/><circle class="cls-26" cx="267.84" cy="316.86" r="2.31"/><circle class="cls-26" cx="292.92" cy="341.16" r="2.31"/><circle class="cls-26" cx="317.52" cy="340.56" r="2.31"/><circle class="cls-26" cx="342.12" cy="340.29" r="2.31"/><circle class="cls-26" cx="268.32" cy="341.41" r="3.19"/><circle class="cls-26" cx="365.4" cy="259.02" r="2.31"/><circle class="cls-26" cx="365.58" cy="231.3" r="2.31"/><circle class="cls-26" cx="390.18" cy="231.45" r="2.31"/><circle class="cls-26" cx="414.75" cy="231.69" r="2.31"/><circle class="cls-26" cx="439.44" cy="231.96" r="2.31"/><circle class="cls-26" cx="439.02" cy="259.74" r="2.31"/><circle class="cls-26" cx="439.8" cy="204.09" r="2.31"/><circle class="cls-26" cx="218.22" cy="261.27" r="2.31"/><circle class="cls-26" cx="217.91" cy="231.6" r="1.94"/><circle class="cls-26" cx="365.76" cy="203.43" r="1.94"/><circle class="cls-26" cx="464.04" cy="232.29" r="1.94"/><circle class="cls-26" cx="488.64" cy="232.83" r="1.94"/><circle class="cls-26" cx="513.27" cy="233.22" r="1.94"/><circle class="cls-26" cx="537.85" cy="233.67" r="1.94"/><circle class="cls-26" cx="538.5" cy="206.07" r="1.94"/><circle class="cls-26" cx="563.16" cy="206.58" r="1.94"/><circle class="cls-26" cx="587.7" cy="207.12" r="1.94"/><circle class="cls-26" cx="587.07" cy="234.87" r="1.94"/><circle class="cls-26" cx="586.44" cy="262.65" r="1.94"/><circle class="cls-26" cx="611.7" cy="235.44" r="1.94"/><circle class="cls-26" cx="636.3" cy="235.98" r="1.94"/><circle class="cls-26" cx="660.9" cy="236.55" r="1.94"/><circle class="cls-26" cx="685.5" cy="237.12" r="1.94"/><circle class="cls-26" cx="704.04" cy="237.54" r="1.94"/><path class="cls-26" d="M722.55,220.92a1.89,1.89,0,0,0-1.88,1.94,1.84,1.84,0,0,0,1.82,1.94Z" transform="translate(0 15.18)"/><circle class="cls-26" cx="562.35" cy="234.33" r="1.94"/><circle class="cls-26" cx="561.75" cy="262.14" r="1.94"/><circle class="cls-26" cx="537.15" cy="261.63" r="1.94"/><circle class="cls-26" cx="512.7" cy="261.06" r="1.94"/><circle class="cls-26" cx="513.78" cy="205.5" r="1.94"/><circle class="cls-26" cx="193.26" cy="231.9" r="1.94"/><circle class="cls-26" cx="193.65" cy="261.51" r="1.94"/><circle class="cls-26" cx="169.14" cy="261.88" r="1.94"/><circle class="cls-26" cx="144.57" cy="262.21" r="1.94"/><circle class="cls-26" cx="120" cy="262.67" r="1.94"/><circle class="cls-26" cx="95.37" cy="263.04" r="1.94"/><circle class="cls-26" cx="192.96" cy="202.26" r="1.94"/><circle class="cls-26" cx="168.69" cy="232.15" r="1.94"/><circle class="cls-26" cx="168.39" cy="202.51" r="1.94"/><circle class="cls-26" cx="144.12" cy="232.63" r="1.94"/><circle class="cls-26" cx="119.52" cy="233.07" r="1.94"/><circle class="cls-26" cx="94.86" cy="233.46" r="1.94"/><circle class="cls-26" cx="76.35" cy="233.82" r="1.94"/><path class="cls-26" d="M57.75,217a1.91,1.91,0,0,1,2,1.89,1.94,1.94,0,0,1-1.89,2Z" transform="translate(0 15.18)"/><circle class="cls-26" cx="143.43" cy="202.99" r="1.94"/><circle class="cls-26" cx="118.98" cy="203.46" r="1.94"/><circle class="cls-26" cx="94.41" cy="203.88" r="1.94"/><rect class="cls-26" x="314.22" y="153.32" width="4.29" height="6.96" rx="2.14" transform="translate(632.73 328.79) rotate(180)"/><rect class="cls-26" x="338.65" y="271.7" width="4.29" height="6.96" rx="2.14" transform="translate(681.6 565.55) rotate(-180)"/><rect class="cls-26" x="314.23" y="271.67" width="4.29" height="6.96" rx="2.14" transform="translate(632.76 565.49) rotate(180)"/><rect class="cls-26" x="289.63" y="271.64" width="4.29" height="6.96" rx="2.14" transform="translate(583.56 565.43) rotate(-180)"/><rect class="cls-26" x="265.27" y="271.82" width="4.29" height="6.96" rx="2.14" transform="translate(534.84 565.79) rotate(-180)"/><rect class="cls-26" x="240.79" y="271.82" width="4.29" height="6.96" rx="2.14" transform="translate(485.88 565.79) rotate(180)"/><rect class="cls-26" x="289.45" y="153.32" width="4.29" height="6.96" rx="2.14" transform="translate(583.2 328.79) rotate(-180)"/><rect class="cls-26" x="264.7" y="153.5" width="4.29" height="6.96" rx="2.14" transform="translate(533.68 329.15) rotate(180)"/><rect class="cls-26" x="239.95" y="153.5" width="4.29" height="6.96" rx="2.14" transform="translate(484.2 329.15) rotate(180)"/><rect class="cls-27" x="426.7" y="23.29" width="11.34" height="11.34" rx="1.42"/><text class="cls-28" transform="translate(429.43 32.37)">3</text><text class="cls-29" transform="translate(440.71 28.09)">출입구<tspan class="cls-30"><tspan x="0" y="7">E</tspan><tspan class="cls-31" x="3.37" y="7">xit</tspan></tspan></text><rect class="cls-27" x="334.05" y="15.66" width="11.34" height="11.34" rx="1.42"/><text class="cls-28" transform="translate(336.78 24.75)">2</text><text class="cls-29" transform="translate(314.82 20.46)">출입구<tspan class="cls-30"><tspan x="5.94" y="7">E</tspan><tspan class="cls-31" x="9.31" y="7">xit</tspan></tspan></text><rect class="cls-27" x="220.64" y="388.19" width="11.34" height="11.34" rx="1.42"/><text class="cls-28" transform="translate(223.36 397.28)">5</text><text class="cls-29" transform="translate(201.41 392.99)">출입구<tspan class="cls-30"><tspan x="5.94" y="7">E</tspan><tspan class="cls-31" x="9.31" y="7">xit</tspan></tspan></text><rect class="cls-27" x="35.27" y="69.32" width="11.34" height="11.34" rx="1.42"/><text class="cls-28" transform="translate(37.99 78.41)">1</text><text class="cls-29" transform="translate(16.04 74.12)">출입구<tspan class="cls-30"><tspan x="5.94" y="7">E</tspan><tspan class="cls-31" x="9.31" y="7">xit</tspan></tspan></text><rect class="cls-27" x="582.63" y="430.81" width="11.34" height="11.34" rx="1.42"/><text class="cls-28" transform="translate(585.36 439.89)">4</text><text class="cls-29" transform="translate(596.64 435.61)">출입구<tspan class="cls-30"><tspan x="0" y="7">E</tspan><tspan class="cls-31" x="3.37" y="7">xit</tspan></tspan></text><rect class="cls-3" x="479.62" y="268.1" width="11.34" height="11.34" rx="1.42"/><path class="cls-26" d="M489.33,256.7a1.09,1.09,0,0,0-.3-.23,2.09,2.09,0,0,0-.49-.08c-.5,0-1,0-1.5,0a.66.66,0,0,0-.49.22l-.51.51-.36.36v-.38a.42.42,0,0,0-.43-.44h-.59a.43.43,0,0,0-.47.48v1.75a.17.17,0,0,1-.05.12l-.94.95a.3.3,0,0,1-.25.1h-1a1,1,0,0,0-.08,1.92c.2,0,.41,0,.61,0l1.14,0a.68.68,0,0,0,.48-.21l3.33-3.34.06-.06a.3.3,0,0,1,.21-.08h.83a.93.93,0,0,0,.88-.55A1,1,0,0,0,489.33,256.7Zm-.4.84a.46.46,0,0,1-.47.33h-1a.39.39,0,0,0-.32.13l-2.68,2.69-.81.81a.44.44,0,0,1-.19.07h-1.53a.47.47,0,0,1-.45-.32.49.49,0,0,1,.14-.54.54.54,0,0,1,.35-.11h1.13a.31.31,0,0,0,.24-.1l3.47-3.48a.42.42,0,0,1,.32-.13h1.27A.51.51,0,0,1,488.93,257.54Z" transform="translate(0 15.18)"/><path class="cls-26" d="M484.92,256.38a.62.62,0,0,0,.61-.61.61.61,0,0,0-.61-.6.61.61,0,0,0,0,1.21Z" transform="translate(0 15.18)"/><text class="cls-32" transform="translate(493.63 272.9)">타는 곳(센트럴파크방면)<tspan class="cls-33"><tspan x="0" y="7">Es</tspan><tspan class="cls-34" x="6.48" y="7">c</tspan><tspan x="9.52" y="7">al</tspan><tspan class="cls-35" x="14.75" y="7">at</tspan><tspan x="20.38" y="7">or</tspan></tspan></text><rect class="cls-3" x="388.62" y="268.1" width="11.34" height="11.34" rx="1.42"/><path class="cls-26" d="M398.33,256.7a.86.86,0,0,0-.3-.23,1.93,1.93,0,0,0-.48-.08c-.5,0-1,0-1.5,0a.68.68,0,0,0-.5.22c-.16.18-.33.34-.5.51l-.36.36v-.38a.43.43,0,0,0-.44-.44h-.58a.43.43,0,0,0-.47.48v1.75a.17.17,0,0,1-.05.12l-.94.95a.3.3,0,0,1-.25.1h-1a1,1,0,0,0-.08,1.92c.2,0,.4,0,.61,0l1.14,0a.7.7,0,0,0,.48-.21l3.33-3.34.06-.06a.3.3,0,0,1,.2-.08h.84a.93.93,0,0,0,.88-.55A1,1,0,0,0,398.33,256.7Zm-.4.84a.44.44,0,0,1-.46.33h-1a.39.39,0,0,0-.32.13l-2.68,2.69-.82.81a.36.36,0,0,1-.19.07h-1.53a.49.49,0,0,1-.45-.32.51.51,0,0,1,.14-.54.59.59,0,0,1,.36-.11h1.13a.31.31,0,0,0,.24-.1l3.47-3.48a.42.42,0,0,1,.31-.13h1.28A.5.5,0,0,1,397.93,257.54Z" transform="translate(0 15.18)"/><path class="cls-26" d="M393.93,256.38a.62.62,0,0,0,.61-.61.61.61,0,0,0-.61-.6.61.61,0,1,0,0,1.21Z" transform="translate(0 15.18)"/><text class="cls-32" transform="translate(402.63 272.9)">타는 곳(센트럴파크방면)<tspan class="cls-33"><tspan x="0" y="7">Es</tspan><tspan class="cls-34" x="6.48" y="7">c</tspan><tspan x="9.52" y="7">al</tspan><tspan class="cls-35" x="14.75" y="7">at</tspan><tspan x="20.38" y="7">or</tspan></tspan></text><rect class="cls-3" x="479.62" y="184.89" width="11.34" height="11.34" rx="1.42"/><path class="cls-26" d="M489.33,173.5a1.09,1.09,0,0,0-.3-.23,2.09,2.09,0,0,0-.49-.08c-.5,0-1,0-1.5,0a.63.63,0,0,0-.49.22l-.51.51-.36.36v-.39a.41.41,0,0,0-.43-.43h-.59a.42.42,0,0,0-.47.48v1.75a.18.18,0,0,1-.05.12l-.94.95a.33.33,0,0,1-.25.1h-1a1,1,0,0,0-.08,1.93c.2,0,.41,0,.61,0h1.14a.69.69,0,0,0,.48-.22l3.33-3.33.06-.06a.26.26,0,0,1,.21-.08h.83a1,1,0,0,0,.78-1.59Zm-.4.84a.47.47,0,0,1-.47.33h-1a.43.43,0,0,0-.32.14l-2.68,2.68-.81.82a.33.33,0,0,1-.19.06h-1.53a.47.47,0,0,1-.45-.33.48.48,0,0,1,.14-.53.49.49,0,0,1,.35-.11c.38,0,.76,0,1.13,0a.35.35,0,0,0,.24-.1l3.47-3.48a.42.42,0,0,1,.32-.13h1.27A.52.52,0,0,1,488.93,174.34Z" transform="translate(0 15.18)"/><path class="cls-26" d="M484.92,173.18a.61.61,0,0,0,0-1.22.6.6,0,0,0-.6.61A.61.61,0,0,0,484.92,173.18Z" transform="translate(0 15.18)"/><text class="cls-32" transform="translate(493.63 189.69)">타는 곳(지식정보단지방면)<tspan class="cls-33"><tspan x="0" y="7">Es</tspan><tspan class="cls-34" x="6.48" y="7">c</tspan><tspan x="9.52" y="7">al</tspan><tspan class="cls-35" x="14.75" y="7">at</tspan><tspan x="20.38" y="7">or</tspan></tspan></text><rect class="cls-3" x="388.62" y="184.89" width="11.34" height="11.34" rx="1.42"/><path class="cls-26" d="M398.33,173.5a.86.86,0,0,0-.3-.23,1.93,1.93,0,0,0-.48-.08c-.5,0-1,0-1.5,0a.65.65,0,0,0-.5.22c-.16.18-.33.34-.5.51l-.36.36v-.39a.42.42,0,0,0-.44-.43h-.58a.42.42,0,0,0-.47.48v1.75a.18.18,0,0,1-.05.12l-.94.95a.33.33,0,0,1-.25.1h-1a1,1,0,0,0-.08,1.93c.2,0,.4,0,.61,0h1.14a.71.71,0,0,0,.48-.22l3.33-3.33.06-.06a.26.26,0,0,1,.2-.08h.84a1,1,0,0,0,.77-1.59Zm-.4.84a.45.45,0,0,1-.46.33h-1a.43.43,0,0,0-.32.14l-2.68,2.68-.82.82a.29.29,0,0,1-.19.06h-1.53a.48.48,0,0,1-.45-.33.5.5,0,0,1,.14-.53.53.53,0,0,1,.36-.11c.37,0,.75,0,1.13,0a.35.35,0,0,0,.24-.1l3.47-3.48a.42.42,0,0,1,.31-.13h1.28A.51.51,0,0,1,397.93,174.34Z" transform="translate(0 15.18)"/><path class="cls-26" d="M393.93,173.18a.61.61,0,1,0,0-1.22.61.61,0,0,0-.61.61A.61.61,0,0,0,393.93,173.18Z" transform="translate(0 15.18)"/><text class="cls-32" transform="translate(402.63 189.69)">타는 곳(지식정보단지방면)<tspan class="cls-33"><tspan x="0" y="7">Es</tspan><tspan class="cls-34" x="6.48" y="7">c</tspan><tspan x="9.52" y="7">al</tspan><tspan class="cls-35" x="14.75" y="7">at</tspan><tspan x="20.38" y="7">or</tspan></tspan></text><rect class="cls-3" x="439.62" y="304.5" width="11.34" height="11.34" rx="1.42"/><path class="cls-26" d="M448.48,293.81a.77.77,0,0,0-.77-.79h-5a.77.77,0,0,0-.61.77v4.64a.78.78,0,0,0,.8.8h4.79a.78.78,0,0,0,.79-.8Zm-.4,4.6a.37.37,0,0,1-.41.41h-4.76a.36.36,0,0,1-.4-.4v-4.59a.36.36,0,0,1,.41-.4h4.75a.37.37,0,0,1,.41.4v4.58Z" transform="translate(0 15.18)"/><path class="cls-26" d="M444.71,294.84H444a.42.42,0,0,0-.41.4v1.07a.14.14,0,0,0,.15.14.13.13,0,0,0,.14-.13v-.95c.09,0,.07,0,.07.08V298a.18.18,0,0,0,.13.18.19.19,0,0,0,.25-.2v-1.51c.08,0,.07,0,.07.07V298a.18.18,0,0,0,.12.2.19.19,0,0,0,.27-.2v-2.53s0-.07.06-.05v.92a.14.14,0,0,0,.15.16.14.14,0,0,0,.14-.16v-1A.42.42,0,0,0,444.71,294.84Z" transform="translate(0 15.18)"/><path class="cls-26" d="M444.35,294.75a.35.35,0,0,0,.33-.34.34.34,0,1,0-.67,0A.34.34,0,0,0,444.35,294.75Z" transform="translate(0 15.18)"/><path class="cls-26" d="M446.6,294.84h-.73a.41.41,0,0,0-.4.4c0,.36,0,.71,0,1.07a.13.13,0,0,0,.14.14.13.13,0,0,0,.14-.13v-.95c.09,0,.07,0,.07.08V298a.2.2,0,1,0,.39,0v-1.51c.08,0,.06,0,.06.07V298a.18.18,0,0,0,.12.2.19.19,0,0,0,.27-.2v-2.53s0-.07.07-.05v.1c0,.28,0,.55,0,.82,0,.1,0,.16.14.16s.14-.06.14-.16c0-.34,0-.68,0-1A.42.42,0,0,0,446.6,294.84Z" transform="translate(0 15.18)"/><path class="cls-26" d="M446.24,294.75a.35.35,0,0,0,.33-.34.33.33,0,0,0-.33-.33.34.34,0,0,0-.34.34A.35.35,0,0,0,446.24,294.75Z" transform="translate(0 15.18)"/><path class="cls-26" d="M443.59,291.76a.22.22,0,0,0,.23-.05l.22-.24.06-.06v1.12a.19.19,0,0,0,.2.2h0a.19.19,0,0,0,.2-.19v-1.16l.1.1.22.2a.21.21,0,0,0,.29,0,.22.22,0,0,0,.06-.15.21.21,0,0,0-.07-.14l-.66-.59a.18.18,0,0,0-.27,0l-.63.64a.21.21,0,0,0,0,.33Z" transform="translate(0 15.18)"/><path class="cls-26" d="M446.14,292.68a.24.24,0,0,0,.14.05.18.18,0,0,0,.13-.06l.64-.63a.45.45,0,0,0,.06-.12.2.2,0,0,0-.11-.21.19.19,0,0,0-.23.05l-.23.24-.05.05v-1.12a.19.19,0,0,0-.2-.2.2.2,0,0,0-.2.19v1.17L446,292l-.21-.2a.21.21,0,0,0-.3,0,.25.25,0,0,0-.05.15.21.21,0,0,0,.07.14Z" transform="translate(0 15.18)"/><text class="cls-32" transform="translate(453.63 309.3)">승강기<tspan class="cls-33"><tspan x="0" y="7">Ele</tspan><tspan class="cls-36" x="8.78" y="7">v</tspan><tspan class="cls-35" x="11.92" y="7">at</tspan><tspan x="17.54" y="7">or</tspan></tspan></text><rect class="cls-3" x="441.26" y="147.94" width="11.34" height="11.34" rx="1.42"/><path class="cls-26" d="M450.12,137.25a.77.77,0,0,0-.78-.79c-1,0-3.85,0-4.81,0h-.18a.76.76,0,0,0-.61.77c0,.77,0,1.55,0,2.32s0,1.55,0,2.32a.77.77,0,0,0,.79.8h4.79a.78.78,0,0,0,.8-.8Zm-.41,4.61a.36.36,0,0,1-.41.4h-4.75a.37.37,0,0,1-.41-.4v-4.59a.37.37,0,0,1,.41-.4h4.75a.37.37,0,0,1,.41.4v4.59Z" transform="translate(0 15.18)"/><path class="cls-26" d="M446.35,138.28h-.74a.41.41,0,0,0-.4.4c0,.36,0,.72,0,1.07a.13.13,0,0,0,.14.14.13.13,0,0,0,.14-.13.17.17,0,0,0,0-.07v-.88c.09,0,.06,0,.06.08v2.53a.2.2,0,1,0,.39,0v-1.51c.08,0,.06,0,.06.07v1.43a.18.18,0,0,0,.12.2.19.19,0,0,0,.27-.2v-2.53s0-.07.07-.05v.93a.15.15,0,0,0,.14.16.14.14,0,0,0,.14-.16c0-.35,0-.69,0-1A.43.43,0,0,0,446.35,138.28Z" transform="translate(0 15.18)"/><path class="cls-26" d="M446,138.19a.35.35,0,0,0,.33-.34.33.33,0,0,0-.33-.33.32.32,0,0,0-.33.34A.33.33,0,0,0,446,138.19Z" transform="translate(0 15.18)"/><path class="cls-26" d="M448.24,138.28h-.74a.41.41,0,0,0-.4.4c0,.36,0,.72,0,1.07a.13.13,0,0,0,.14.14.14.14,0,0,0,.15-.13v-.95c.09,0,.06,0,.06.08v2.34a1.21,1.21,0,0,0,0,.19.19.19,0,0,0,.12.18.2.2,0,0,0,.26-.2v-1.51c.08,0,.07,0,.07.07v1.43c0,.11,0,.17.12.2s.26,0,.26-.2v-2.53s0-.07.07-.05v.93a.15.15,0,0,0,.14.16.15.15,0,0,0,.15-.16v-1A.44.44,0,0,0,448.24,138.28Z" transform="translate(0 15.18)"/><path class="cls-26" d="M447.88,138.19a.34.34,0,0,0,.32-.34.33.33,0,0,0-.33-.33.34.34,0,0,0-.33.34A.34.34,0,0,0,447.88,138.19Z" transform="translate(0 15.18)"/><path class="cls-26" d="M445.22,135.2a.2.2,0,0,0,.23,0l.23-.24.05-.06V136a.19.19,0,0,0,.2.2h0a.18.18,0,0,0,.19-.19v-1.16a.94.94,0,0,1,.1.1l.22.2a.2.2,0,0,0,.29,0,.22.22,0,0,0,.06-.15.19.19,0,0,0-.07-.14c-.21-.19-.42-.39-.66-.59a.19.19,0,0,0-.27,0l-.63.64a.23.23,0,0,0-.06.12A.19.19,0,0,0,445.22,135.2Z" transform="translate(0 15.18)"/><path class="cls-26" d="M447.78,136.12a.17.17,0,0,0,.13,0,.2.2,0,0,0,.14-.06l.63-.63a.23.23,0,0,0,.06-.12.19.19,0,0,0-.11-.21.19.19,0,0,0-.23,0l-.23.24-.05.06v-1.13a.19.19,0,0,0-.2-.2.2.2,0,0,0-.2.19v1.17l-.1-.1-.22-.2a.2.2,0,0,0-.29,0,.2.2,0,0,0-.06.15.21.21,0,0,0,.07.14Z" transform="translate(0 15.18)"/><text class="cls-32" transform="translate(455.26 152.74)">승강기<tspan class="cls-33"><tspan x="0" y="7">Ele</tspan><tspan class="cls-36" x="8.78" y="7">v</tspan><tspan class="cls-35" x="11.92" y="7">at</tspan><tspan x="17.54" y="7">or</tspan></tspan></text><rect class="cls-3" x="405.1" y="103" width="11.34" height="11.34" rx="1.42"/><path class="cls-26" d="M414,92.31a.76.76,0,0,0,0-.15.77.77,0,0,0-.76-.65h-4.82l-.18,0a.77.77,0,0,0-.61.77v4.64a.76.76,0,0,0,.79.79h4.8a.76.76,0,0,0,.79-.79Zm-.41,4.6a.36.36,0,0,1-.4.41h-4.76a.36.36,0,0,1-.4-.4V92.33a.37.37,0,0,1,.41-.41h4.75a.37.37,0,0,1,.4.41v4.58Z" transform="translate(0 15.18)"/><path class="cls-26" d="M410.19,93.34c-.25,0-.49,0-.73,0a.42.42,0,0,0-.41.4c0,.35,0,.71,0,1.07a.13.13,0,0,0,.15.14.14.14,0,0,0,.14-.14v-.94c.09,0,.07,0,.07.07v2.34a1.34,1.34,0,0,0,0,.2.19.19,0,0,0,.12.18.2.2,0,0,0,.26-.2V95c.08,0,.07,0,.07.07v1.42a.2.2,0,0,0,.12.21c.14.06.26,0,.26-.2,0-.71,0-1.41,0-2.12,0-.14,0-.27,0-.41s0-.07.07,0v.92a.14.14,0,0,0,.15.16.14.14,0,0,0,.14-.16v-1A.42.42,0,0,0,410.19,93.34Z" transform="translate(0 15.18)"/><path class="cls-26" d="M409.83,93.24a.33.33,0,1,0-.34-.33A.33.33,0,0,0,409.83,93.24Z" transform="translate(0 15.18)"/><path class="cls-26" d="M412.08,93.34c-.24,0-.49,0-.73,0a.41.41,0,0,0-.4.4c0,.35,0,.71,0,1.07a.14.14,0,0,0,.15.14.14.14,0,0,0,.14-.14v-.94c.09,0,.07,0,.07.07v2.54a.18.18,0,0,0,.13.18.19.19,0,0,0,.25-.2c0-.48,0-.95,0-1.42V95c.08,0,.07,0,.07.07v1.42a.2.2,0,0,0,.12.21.19.19,0,0,0,.27-.2V93.92s0-.07.06,0v.92a.14.14,0,0,0,.15.16.14.14,0,0,0,.14-.16v-1A.42.42,0,0,0,412.08,93.34Z" transform="translate(0 15.18)"/><path class="cls-26" d="M411.72,93.24a.33.33,0,1,0-.34-.33A.33.33,0,0,0,411.72,93.24Z" transform="translate(0 15.18)"/><path class="cls-26" d="M409.07,90.25a.18.18,0,0,0,.22,0l.23-.25.05,0V91a.19.19,0,0,0,.21.2h0A.18.18,0,0,0,410,91a.13.13,0,0,0,0-.06v-1.1l.1.1.22.2a.21.21,0,0,0,.29,0,.17.17,0,0,0,.05-.15.2.2,0,0,0-.06-.15l-.66-.59a.19.19,0,0,0-.27,0l-.63.63a.26.26,0,0,0-.06.13A.18.18,0,0,0,409.07,90.25Z" transform="translate(0 15.18)"/><path class="cls-26" d="M411.62,91.18a.24.24,0,0,0,.13,0,.2.2,0,0,0,.14-.06c.18-.17.41-.4.63-.63a.29.29,0,0,0,.07-.12.2.2,0,0,0-.11-.21.19.19,0,0,0-.23.05,2.66,2.66,0,0,0-.23.24l0,0V89.43a.19.19,0,0,0-.21-.2.18.18,0,0,0-.19.19v1.16l-.11-.09-.21-.21a.22.22,0,0,0-.3,0,.18.18,0,0,0-.05.15.18.18,0,0,0,.07.15Z" transform="translate(0 15.18)"/><text class="cls-32" transform="translate(419.11 107.8)">승강기<tspan class="cls-33"><tspan x="0" y="7">Ele</tspan><tspan class="cls-36" x="8.78" y="7">v</tspan><tspan class="cls-35" x="11.92" y="7">at</tspan><tspan x="17.54" y="7">or</tspan></tspan></text><rect class="cls-3" x="354.4" y="180.89" width="11.34" height="11.34" rx="1.42"/><path class="cls-26" d="M363.08,168.37a4.23,4.23,0,0,0-3-1.24h0a4.26,4.26,0,0,0-4.25,4.25,4.25,4.25,0,0,0,4.25,4.25h0a4.26,4.26,0,0,0,3-7.26Zm-.36,5.68a3.75,3.75,0,0,1-2.64,1.09h0a3.76,3.76,0,0,1-2.64-6.43,3.71,3.71,0,0,1,2.66-1.09,3.76,3.76,0,0,1,3.75,3.76A3.72,3.72,0,0,1,362.72,174.05Z" transform="translate(0 15.18)"/><path class="cls-26" d="M360.6,173.21l-.23,0c-.12,0-.19-.06-.2-.17a.76.76,0,0,1,0-.3c.05-.29.12-.58.18-.87a4.08,4.08,0,0,0,.14-.85.6.6,0,0,0-.67-.66,1.9,1.9,0,0,0-.75.25l0,.15c0,.06,0,.08.12.06h.2a.19.19,0,0,1,.19.17,1.07,1.07,0,0,1,0,.31c-.05.28-.12.57-.18.85a3.67,3.67,0,0,0-.14.87.61.61,0,0,0,.65.65,1.66,1.66,0,0,0,.75-.24s0,0,0-.05a.7.7,0,0,0,0-.14A.1.1,0,0,0,360.6,173.21Z" transform="translate(0 15.18)"/><path class="cls-26" d="M360.2,168.88a.59.59,0,0,0-.6.59.6.6,0,0,0,.58.61.59.59,0,0,0,.59-.6A.58.58,0,0,0,360.2,168.88Z" transform="translate(0 15.18)"/><text class="cls-32" transform="translate(318.44 185.69)">고객안내센터<tspan class="cls-33"><tspan x="-21.62" y="7">In</tspan><tspan class="cls-34" x="-16.03" y="7">f</tspan><tspan x="-14.02" y="7">orm</tspan><tspan class="cls-37" x="-2.23" y="7">a</tspan><tspan x="1.12" y="7">tion Cen</tspan><tspan class="cls-38" x="25" y="7">t</tspan><tspan x="27.28" y="7">er</tspan></tspan></text><rect class="cls-3" x="340.4" y="248.46" width="11.34" height="11.34" rx="1.42"/><path class="cls-26" d="M348.22,234.69h-2.75a.62.62,0,0,0-.18,0,.56.56,0,0,0-.42.57v2.4a.14.14,0,0,1,0,.11l0,0-1,1a1.49,1.49,0,0,0-.44,1.08V240c0,.32,0,.65,0,1a2,2,0,0,0,.37,1.25.19.19,0,0,1,0,.1v.6a.23.23,0,0,0,.22.26.23.23,0,0,0,.16-.06.33.33,0,0,0,.08-.2v-.14c0-.18,0-.36,0-.54a.31.31,0,0,0-.06-.19,1.67,1.67,0,0,1-.34-1.06c0-.33,0-.66,0-1a1,1,0,0,1,.32-.78l.56-.58.2-.2v.21a.24.24,0,0,0,.24.23.24.24,0,0,0,.22-.23v-3.29c0-.14,0-.17.16-.17h1.88v5.51h-1.05a.21.21,0,0,0-.22.15.26.26,0,0,0,0,.21.3.3,0,0,0,.19.1h.31a1.76,1.76,0,0,1-.12.7.58.58,0,0,1-.22.27.19.19,0,0,0-.07.14v.71a.27.27,0,0,0,.07.19.23.23,0,0,0,.16.06h0a.22.22,0,0,0,.22-.25v-.19c0-.11,0-.23,0-.34s0,0,0-.06a1.2,1.2,0,0,0,.29-.54c0-.17.06-.33.09-.51a1.1,1.1,0,0,1,0-.18h1.11a.56.56,0,0,0,.6-.59v-5.25A.55.55,0,0,0,348.22,234.69Z" transform="translate(0 15.18)"/><path class="cls-26" d="M345.87,240.11c.2-.18.4-.37.59-.57a.72.72,0,0,0,.2-.69.59.59,0,0,0-.41-.44.65.65,0,0,0-.63.17l-.87.86-.32.32-.05.06a.22.22,0,0,0,0,.29.23.23,0,0,0,.29,0,.18.18,0,0,0,.07,0l.33-.33.81-.81a.42.42,0,0,1,.12-.08.12.12,0,0,1,.13,0,.17.17,0,0,1,.06.12.32.32,0,0,1-.1.28l-.52.5-.49.47,0,0h0l-.07,0,.05.05.14.17a.77.77,0,0,1,.17.39,1.35,1.35,0,0,1-.12.76.23.23,0,0,0,.12.32l.09,0a.25.25,0,0,0,.21-.16,2,2,0,0,0,.17-.72,1.37,1.37,0,0,0-.19-.76l0,0Z" transform="translate(0 15.18)"/><path class="cls-26" d="M345.87,236.86a.28.28,0,0,0,.08.19.2.2,0,0,0,.15.06h0a.22.22,0,0,0,.22-.25v-1a.24.24,0,0,0-.07-.19.23.23,0,0,0-.16-.06c-.14,0-.22.1-.23.25v1Z" transform="translate(0 15.18)"/><text class="cls-32" transform="translate(309.97 253.26)">자동발매기<tspan class="cls-33"><tspan x="-16.03" y="7">Tic</tspan><tspan class="cls-39" x="-7.54" y="7">k</tspan><tspan class="cls-40" x="-4.24" y="7">e</tspan><tspan x="-0.91" y="7">t machine</tspan></tspan></text><rect class="cls-3" x="381.97" y="308.59" width="11.34" height="11.34" rx="1.42"/><path class="cls-26" d="M386.84,297.05a.77.77,0,0,0-.74-.61h-1.45a.76.76,0,0,0-.74.6l-.51,2.26a.24.24,0,0,0,.18.33.26.26,0,0,0,.3-.21c.06-.25.11-.49.17-.74.1-.47.21-.94.32-1.41,0,0,0-.06.05-.06h.3l-.69,3.14h.67V303a.3.3,0,1,0,.59,0v-2.65h.14v2.72a.26.26,0,0,0,.2.22A.29.29,0,0,0,386,303v-2.67h.67L386,297.2h.28c.05,0,.07,0,.08.07.1.47.21,1,.32,1.42.06.25.11.51.17.76a.26.26,0,0,0,.24.19.25.25,0,0,0,.24-.19.61.61,0,0,0,0-.19C387.17,298.52,387,297.79,386.84,297.05Z" transform="translate(0 15.18)"/><path class="cls-26" d="M391.11,296.44h-1.4a.76.76,0,0,0-.78.78v2.29a.24.24,0,0,0,.25.23.25.25,0,0,0,.24-.28v-2.25h.14v5.72a.38.38,0,0,0,.76,0v-3.21h.18v3.25a.38.38,0,0,0,.74.1,1.1,1.1,0,0,0,0-.18v-5.64h.13v2.22a.49.49,0,0,0,0,.12.25.25,0,0,0,.22.19.26.26,0,0,0,.25-.16.3.3,0,0,0,0-.13v-2.23A.76.76,0,0,0,391.11,296.44Z" transform="translate(0 15.18)"/><path class="cls-26" d="M387.66,303.29h.46v-8.43h-.46Z" transform="translate(0 15.18)"/><path class="cls-26" d="M390.41,296.17a.66.66,0,1,0-.66-.66A.66.66,0,0,0,390.41,296.17Z" transform="translate(0 15.18)"/><path class="cls-26" d="M385.37,296.17a.66.66,0,1,0-.66-.66A.66.66,0,0,0,385.37,296.17Z" transform="translate(0 15.18)"/><text class="cls-32" transform="translate(395.98 313.39)">화장실<tspan class="cls-33"><tspan class="cls-41" x="0" y="7">T</tspan><tspan x="3.19" y="7">oil</tspan><tspan class="cls-34" x="10.39" y="7">e</tspan><tspan x="13.71" y="7">t</tspan></tspan></text><rect class="cls-42" x="731.13" y="211.74" width="11.34" height="11.34" rx="1.42"/><path class="cls-43" d="M737.78,201.43h0a1.76,1.76,0,0,0,1.87-.42c.19-.18.36-.36.54-.54a.24.24,0,0,0,.08-.09.42.42,0,0,0-.08-.57.43.43,0,0,0-.58,0c-.19.18-.38.37-.56.56a.91.91,0,0,1-1.13.15l-1.15-.63a1.77,1.77,0,0,0-2,.22c-.23.21-.44.42-.65.64a.4.4,0,0,0-.12.38.44.44,0,0,0,.3.34.43.43,0,0,0,.44-.11c.19-.18.37-.38.57-.56a1.21,1.21,0,0,1,.3-.2.86.86,0,0,1,.65,0l0,.07c-.1.31-.21.61-.32.92a11.82,11.82,0,0,1-.68,1.7.8.8,0,0,1-.92.44l-1.2-.21a.46.46,0,0,0-.54.4.47.47,0,0,0,.4.53l1.2.22a1.75,1.75,0,0,0,1.91-.94l.12-.24.77.28a.74.74,0,0,1,.51.59,2.16,2.16,0,0,1,0,.44c0,.34,0,.69-.05,1a.46.46,0,0,0,.54.48.47.47,0,0,0,.41-.49c0-.41,0-.82.07-1.24a1.75,1.75,0,0,0-1.11-1.69l-.08,0,.51-1.44Z" transform="translate(0 15.18)"/><path class="cls-43" d="M738,199.91a.89.89,0,1,0-.87-.92A.9.9,0,0,0,738,199.91Z" transform="translate(0 15.18)"/><path class="cls-43" d="M741,202.5l-.78-.77a.27.27,0,0,0-.13-.07.22.22,0,0,0-.21.12.19.19,0,0,0,0,.23l.43.41h-1.46a.19.19,0,0,0-.21.21.2.2,0,0,0,.2.21h1.49l0,0-.37.4a.21.21,0,0,0,0,.31.2.2,0,0,0,.3,0c.25-.26.49-.53.72-.8A.19.19,0,0,0,741,202.5Z" transform="translate(0 15.18)"/><text class="cls-29" transform="translate(748.14 216.54)">비상대피로<tspan class="cls-33"><tspan x="0" y="7">Eme</tspan><tspan class="cls-34" x="12.64" y="7">r</tspan><tspan class="cls-35" x="15.03" y="7">g</tspan><tspan class="cls-44" x="18.4" y="7">en</tspan><tspan class="cls-45" x="25.53" y="7">c</tspan><tspan x="28.67" y="7">y</tspan></tspan></text><rect class="cls-42" x="730.13" y="252.42" width="11.34" height="11.34" rx="1.42"/><path class="cls-43" d="M736.78,242.11h0a1.76,1.76,0,0,0,1.87-.42c.19-.18.36-.36.54-.54a.24.24,0,0,0,.08-.09.42.42,0,0,0-.08-.57.43.43,0,0,0-.58,0c-.19.18-.38.37-.56.56a.91.91,0,0,1-1.13.15l-1.15-.63a1.77,1.77,0,0,0-2,.22c-.23.21-.44.42-.65.64a.4.4,0,0,0-.12.38.44.44,0,0,0,.3.34.43.43,0,0,0,.44-.11c.19-.18.37-.38.57-.56a1.21,1.21,0,0,1,.3-.2.86.86,0,0,1,.65,0l0,.07c-.1.31-.21.61-.32.92a11.82,11.82,0,0,1-.68,1.7.8.8,0,0,1-.92.44l-1.2-.21a.46.46,0,0,0-.54.4.47.47,0,0,0,.4.53l1.2.22a1.75,1.75,0,0,0,1.91-.94l.12-.24.77.28a.74.74,0,0,1,.51.58,2.26,2.26,0,0,1,0,.45c0,.34,0,.69-.05,1a.46.46,0,0,0,.54.48.47.47,0,0,0,.41-.49c0-.41,0-.82.07-1.24a1.75,1.75,0,0,0-1.11-1.69l-.08,0,.51-1.44Z" transform="translate(0 15.18)"/><path class="cls-43" d="M737,240.59a.89.89,0,1,0-.87-.92A.9.9,0,0,0,737,240.59Z" transform="translate(0 15.18)"/><path class="cls-43" d="M740,243.18l-.78-.77a.27.27,0,0,0-.13-.07.22.22,0,0,0-.21.12.19.19,0,0,0,0,.23l.43.41h-1.46a.19.19,0,0,0-.21.21.2.2,0,0,0,.2.21h1.49l0,0-.37.4a.21.21,0,0,0,0,.31.2.2,0,0,0,.3,0c.25-.26.49-.53.72-.8A.19.19,0,0,0,740,243.18Z" transform="translate(0 15.18)"/><text class="cls-29" transform="translate(747.14 257.22)">비상대피로<tspan class="cls-33"><tspan x="0" y="7">Eme</tspan><tspan class="cls-34" x="12.64" y="7">r</tspan><tspan class="cls-35" x="15.03" y="7">g</tspan><tspan class="cls-44" x="18.4" y="7">en</tspan><tspan class="cls-45" x="25.53" y="7">c</tspan><tspan x="28.67" y="7">y</tspan></tspan></text><rect class="cls-42" x="38.6" y="248.65" width="11.34" height="11.34" rx="1.42"/><path class="cls-43" d="M45.25,238.34h0a1.77,1.77,0,0,0,1.88-.42l.54-.54a.35.35,0,0,0,.07-.09.42.42,0,0,0-.08-.57.43.43,0,0,0-.58,0c-.19.18-.37.37-.56.56a.91.91,0,0,1-1.13.15l-1.14-.63a1.78,1.78,0,0,0-2.06.22c-.22.21-.44.42-.65.64a.39.39,0,0,0-.11.38.41.41,0,0,0,.29.34.43.43,0,0,0,.44-.11l.57-.56a1.43,1.43,0,0,1,.3-.2.86.86,0,0,1,.65,0,.19.19,0,0,0,0,.07l-.33.92a13,13,0,0,1-.67,1.7.81.81,0,0,1-.92.44l-1.21-.21a.46.46,0,0,0-.54.4.48.48,0,0,0,.4.53l1.2.22a1.73,1.73,0,0,0,1.34-.28,1.65,1.65,0,0,0,.57-.66l.12-.24.78.28a.74.74,0,0,1,.5.59,1.62,1.62,0,0,1,0,.44c0,.34,0,.69,0,1a.46.46,0,0,0,.54.48.47.47,0,0,0,.41-.49c0-.41.05-.82.07-1.24a1.73,1.73,0,0,0-1.11-1.69l-.08,0,.51-1.44Z" transform="translate(0 15.18)"/><path class="cls-43" d="M45.47,236.82a.89.89,0,0,0,.06-1.78.89.89,0,1,0-.06,1.78Z" transform="translate(0 15.18)"/><path class="cls-43" d="M48.46,239.41c-.26-.26-.51-.52-.77-.77a.42.42,0,0,0-.13-.07.22.22,0,0,0-.22.12.19.19,0,0,0,0,.23l.43.41H46.36a.19.19,0,0,0-.21.21.2.2,0,0,0,.2.21h1.5l-.05.05c-.12.14-.25.27-.37.4a.22.22,0,1,0,.32.29l.72-.8A.2.2,0,0,0,48.46,239.41Z" transform="translate(0 15.18)"/><text class="cls-29" transform="translate(5.33 253.45)">비상대피로<tspan class="cls-33"><tspan x="-4.33" y="7">Eme</tspan><tspan class="cls-34" x="8.31" y="7">r</tspan><tspan class="cls-35" x="10.7" y="7">g</tspan><tspan class="cls-44" x="14.06" y="7">en</tspan><tspan class="cls-45" x="21.2" y="7">c</tspan><tspan x="24.34" y="7">y</tspan></tspan></text><rect class="cls-42" x="37.6" y="208.11" width="11.34" height="11.34" rx="1.42"/><path class="cls-43" d="M44.25,197.8h0a1.77,1.77,0,0,0,1.88-.42l.54-.54a.35.35,0,0,0,.07-.09.42.42,0,0,0-.08-.57.43.43,0,0,0-.58,0l-.56.55a.9.9,0,0,1-1.13.16l-1.14-.63a1.78,1.78,0,0,0-2.06.22c-.22.21-.44.42-.65.64a.39.39,0,0,0-.11.38.41.41,0,0,0,.29.34.43.43,0,0,0,.44-.11l.57-.56a1.43,1.43,0,0,1,.3-.2.86.86,0,0,1,.65,0,.19.19,0,0,0,0,.07l-.33.92a13,13,0,0,1-.67,1.7.81.81,0,0,1-.92.44l-1.21-.22a.47.47,0,0,0-.54.41.48.48,0,0,0,.4.53l1.2.22a1.73,1.73,0,0,0,1.34-.28,1.65,1.65,0,0,0,.57-.66l.12-.24.78.28a.74.74,0,0,1,.5.58,1.69,1.69,0,0,1,0,.45c0,.34,0,.69,0,1a.46.46,0,0,0,.54.48.47.47,0,0,0,.41-.49c0-.41.05-.82.07-1.24a1.73,1.73,0,0,0-1.11-1.69l-.08,0,.51-1.44Z" transform="translate(0 15.18)"/><path class="cls-43" d="M44.47,196.27a.87.87,0,0,0,.91-.85.89.89,0,1,0-.91.85Z" transform="translate(0 15.18)"/><path class="cls-43" d="M47.46,198.87c-.26-.26-.51-.52-.77-.77a.42.42,0,0,0-.13-.07.22.22,0,0,0-.22.12.19.19,0,0,0,0,.23l.43.41H45.36a.19.19,0,0,0-.21.21.2.2,0,0,0,.2.21h1.5a.23.23,0,0,0-.05,0c-.12.14-.25.27-.37.4a.21.21,0,0,0,0,.31.22.22,0,0,0,.31,0l.72-.8A.2.2,0,0,0,47.46,198.87Z" transform="translate(0 15.18)"/><text class="cls-29" transform="translate(4.33 212.91)">비상대피로<tspan class="cls-33"><tspan x="-4.33" y="7">Eme</tspan><tspan class="cls-34" x="8.31" y="7">r</tspan><tspan class="cls-35" x="10.7" y="7">g</tspan><tspan class="cls-44" x="14.06" y="7">en</tspan><tspan class="cls-45" x="21.2" y="7">c</tspan><tspan x="24.34" y="7">y</tspan></tspan></text></g></g></svg>