<svg xmlns="http://www.w3.org/2000/svg" viewBox="0 0 777.56 174.01"><defs><style>.cls-1{fill:#eee;stroke:#666;}.cls-1,.cls-10,.cls-11,.cls-15,.cls-2,.cls-3,.cls-5,.cls-7{stroke-miterlimit:10;}.cls-1,.cls-15{stroke-width:0.5px;}.cls-11,.cls-12,.cls-15,.cls-2{fill:none;}.cls-11,.cls-12,.cls-2{stroke:#aaa;}.cls-10,.cls-11,.cls-12,.cls-2,.cls-3,.cls-5,.cls-7{stroke-width:0.25px;}.cls-3{fill:#accdf2;stroke:#8bb8ee;}.cls-4{fill:#8bb8ee;}.cls-5{fill:#ffe4a4;stroke:#f6cd80;}.cls-6{fill:#f6cd80;}.cls-7,.cls-9{fill:#b8c5c4;}.cls-7{stroke:#95a8a7;}.cls-8{fill:#95a8a7;}.cls-10{fill:#afe0d7;stroke:#8ccfc5;}.cls-11{stroke-linecap:square;}.cls-12{stroke-linecap:round;stroke-linejoin:round;}.cls-13{opacity:0.3;}.cls-14{fill:#fff;}.cls-15{stroke:#00a800;}.cls-16{fill:#00a800;}.cls-17,.cls-24,.cls-26,.cls-31{font-size:6px;font-family:NotoSansKR-Bold-KSCpc-EUC-H, Noto Sans KR;}.cls-18{font-family:NotoSansKR-Medium-KSCpc-EUC-H, Noto Sans KR;}.cls-19{letter-spacing:-0.01em;}.cls-20{letter-spacing:-0.02em;}.cls-21{letter-spacing:0em;}.cls-22{letter-spacing:0.01em;}.cls-23,.cls-24{fill:#666;}.cls-25{letter-spacing:-0.02em;}.cls-26,.cls-30{fill:#e5af5a;}.cls-27{letter-spacing:-0.08em;}.cls-28{letter-spacing:-0.03em;}.cls-29{letter-spacing:-0.04em;}.cls-31,.cls-33{fill:#639cd3;}.cls-32{letter-spacing:-0.02em;}</style></defs><g id="레이어_2" data-name="레이어 2"><g id="Layer_3" data-name="Layer 3"><polygon class="cls-1" points="736.95 101.25 737.13 68.67 725.37 68.61 725.43 51.87 616.17 51.27 616.35 23.01 450.81 22.53 450.81 14.97 439.29 15.03 439.35 22.59 259.59 24.99 260.19 53.19 52.17 59.73 52.77 76.47 40.44 76.86 41.61 109.44 53.91 108.87 54.51 125.79 261.69 119.25 262.29 147.51 439.89 144.99 439.95 152.55 451.41 152.49 451.46 144.93 615.63 145.53 615.87 117.33 725.07 117.93 725.19 101.25 736.95 101.25"/><path class="cls-2" d="M693.48,71.91V70.47l28.24.26.11-13.68L611,56.28l.13-27.87-161.93-.65,0-11.09-8.1,0V27.76S286.5,29.44,264.82,30.09l.65,28.26S84.23,63.06,56,64.77l.6,13.85,28-1,.06,1.32"/><path class="cls-2" d="M693.42,97.44l.06,1.29,28.11.27v13.65l-111-.6-.32,28.29-160.45-.63-.09,11.16-8.22,0,.09-11s-131.3.81-174.18,2.24l-.6-28.19s-154,3.87-208.86,6.47l-.54-13.85,28.26-.93-.12-1.3"/></g><g id="Layer_7" data-name="Layer 7"><path class="cls-3" d="M692.85,73.28V71.91l.06-9.06-17.22-.11L673,58.32l-63.32-.54L593.43,29.6l-86.56-.35-.24,25.92-24-.15V29.16l-23.1-.06-11.1,0L448,24.88l-5.82-.07-.77,4.33L417,29.46H394.59l.3,25.87-24.13.36-.49-25.86L282.5,31.17,267,59.56S129.32,62.91,105,64.46l-2.73,5L85,70.17l.36,8.76.06,1.31,4.08,3.28L293.67,77l257.4,2.52,142-.33Z"/><polygon class="cls-4" points="678.81 70.89 671.85 70.89 671.9 69.95 678.81 69.93 678.81 70.89"/><polygon class="cls-4" points="665.25 70.86 658.29 70.86 658.34 69.92 665.25 69.9 665.25 70.86"/><polygon class="cls-4" points="651.69 70.8 644.73 70.8 644.78 69.86 651.69 69.84 651.69 70.8"/><polygon class="cls-4" points="638.19 70.71 631.23 70.71 631.28 69.77 638.19 69.75 638.19 70.71"/><polygon class="cls-4" points="619.74 70.59 612.78 70.59 612.83 69.65 619.74 69.63 619.74 70.59"/><polygon class="cls-4" points="606.18 70.5 599.22 70.5 599.27 69.56 606.18 69.54 606.18 70.5"/><polygon class="cls-4" points="592.65 70.44 585.69 70.44 585.74 69.5 592.65 69.48 592.65 70.44"/><polygon class="cls-4" points="579.09 70.35 572.13 70.35 572.18 69.41 579.09 69.39 579.09 70.35"/><polygon class="cls-4" points="561.15 70.29 554.19 70.29 554.24 69.35 561.15 69.33 561.15 70.29"/><polygon class="cls-4" points="547.11 70.2 540.15 70.2 540.2 69.26 547.11 69.24 547.11 70.2"/><polygon class="cls-4" points="533.55 70.11 526.59 70.11 526.64 69.17 533.55 69.15 533.55 70.11"/><polygon class="cls-4" points="501.57 70.05 494.61 70.05 494.66 69.11 501.57 69.09 501.57 70.05"/><polygon class="cls-4" points="488.01 70.08 481.05 70.08 481.1 69.14 488.01 69.12 488.01 70.08"/><polygon class="cls-4" points="474.51 70.02 467.55 70.02 467.6 69.08 474.51 69.06 474.51 70.02"/><polygon class="cls-4" points="460.62 70.02 453.66 70.02 453.71 69.08 460.62 69.06 460.62 70.02"/><polygon class="cls-4" points="428.91 70.2 421.95 70.2 422 69.26 428.91 69.24 428.91 70.2"/><polygon class="cls-4" points="415.35 70.32 408.39 70.32 408.44 69.38 415.35 69.36 415.35 70.32"/><polygon class="cls-4" points="401.79 70.38 394.83 70.38 394.88 69.44 401.79 69.42 401.79 70.38"/><polygon class="cls-4" points="383.4 70.56 376.44 70.56 376.49 69.62 383.4 69.6 383.4 70.56"/><polygon class="cls-4" points="369.75 70.74 362.79 70.74 362.84 69.8 369.75 69.78 369.75 70.74"/><polygon class="cls-4" points="342.63 71.1 335.67 71.1 335.72 70.16 342.63 70.14 342.63 71.1"/><polygon class="cls-4" points="324.55 71.26 317.59 71.41 317.62 70.48 324.52 70.3 324.55 71.26"/><polygon class="cls-4" points="310.68 71.46 303.72 71.61 303.75 70.67 310.65 70.5 310.68 71.46"/><polygon class="cls-4" points="297.12 71.81 290.16 71.96 290.19 71.03 297.1 70.86 297.12 71.81"/><polygon class="cls-4" points="283.56 72.07 276.6 72.22 276.63 71.29 283.54 71.11 283.56 72.07"/><polygon class="cls-4" points="265.13 72.42 258.18 72.57 258.21 71.63 265.12 71.46 265.13 72.42"/><polygon class="cls-4" points="251.54 72.7 244.59 72.85 244.62 71.92 251.53 71.74 251.54 72.7"/><polygon class="cls-4" points="238.02 73.15 231.06 73.3 231.09 72.37 238 72.19 238.02 73.15"/><polygon class="cls-4" points="224.49 73.45 217.53 73.6 217.56 72.67 224.47 72.49 224.49 73.45"/><polygon class="cls-4" points="206.03 73.93 199.08 74.08 199.11 73.15 206.01 72.97 206.03 73.93"/><polygon class="cls-4" points="192.51 74.29 185.55 74.44 185.58 73.51 192.49 73.33 192.51 74.29"/><polygon class="cls-4" points="178.88 74.74 171.93 74.89 171.96 73.96 178.87 73.78 178.88 74.74"/><polygon class="cls-4" points="165.36 75.19 158.4 75.34 158.43 74.41 165.34 74.23 165.36 75.19"/><polygon class="cls-4" points="146.94 75.82 139.98 75.97 140.01 75.04 146.91 74.86 146.94 75.82"/><polygon class="cls-4" points="133.44 76.3 126.48 76.45 126.51 75.52 133.41 75.34 133.44 76.3"/><polygon class="cls-4" points="119.81 76.75 112.86 76.9 112.89 75.97 119.8 75.79 119.81 76.75"/><polygon class="cls-4" points="106.35 77.23 99.39 77.38 99.42 76.45 106.33 76.27 106.35 77.23"/><polygon class="cls-4" points="519.93 70.08 513.06 70.05 513.06 69.09 515.07 69.03 515.13 68.13 516.06 68.13 516.03 66.15 517.05 66.13 517.05 68.1 518.03 68.13 518.03 69.11 520.02 69.09 519.93 70.08"/><polygon class="cls-4" points="442.38 70.16 435.51 70.13 435.51 69.17 437.52 69.11 437.58 68.21 438.51 68.21 438.48 66.23 439.5 66.21 439.5 68.19 440.48 68.21 440.48 69.19 442.47 69.17 442.38 70.16"/><polygon class="cls-4" points="356.31 70.86 349.29 70.89 349.35 69.93 351.26 69.91 351.33 68.97 354.15 68.91 354.26 69.87 356.31 69.9 356.31 70.86"/></g><g id="Layer_8" data-name="Layer 8"><polygon class="cls-5" points="86.31 104.28 86.55 113.31 103.86 112.59 106.86 117.4 268.11 112.56 284.94 140.19 371.43 139.17 371.05 113.14 395.15 113 395.23 138.88 417.67 138.55 442.11 138.4 442.95 142.77 448.57 142.75 449.25 138.26 459.57 138.33 482.67 138.27 482.67 112.41 506.82 112.43 506.76 138.35 593.07 138.64 609.27 110.67 672.75 111.04 675.5 106.27 692.55 106.38 692.73 97.44 692.73 96.08 686.43 89.91 488.94 87.01 315.42 88.75 88.89 95.19 86.25 102.92 86.31 104.28"/><polygon class="cls-6" points="678.87 99.27 671.91 99.27 671.94 98.31 678.81 98.31 678.87 99.27"/><polygon class="cls-6" points="665.27 99.15 658.35 99.18 658.35 98.26 665.31 98.19 665.27 99.15"/><polygon class="cls-6" points="651.67 99.08 644.85 99.18 644.82 98.18 651.67 98.07 651.67 99.08"/><polygon class="cls-6" points="638.19 99 631.3 99.08 631.26 98.07 638.1 98.01 638.19 99"/><polygon class="cls-6" points="619.76 98.86 612.81 98.97 612.81 97.95 619.8 97.89 619.76 98.86"/><polygon class="cls-6" points="606.21 98.79 599.37 98.88 599.31 97.87 606.18 97.83 606.21 98.79"/><polygon class="cls-6" points="592.69 98.73 585.75 98.79 585.72 97.83 592.69 97.77 592.69 98.73"/><polygon class="cls-6" points="579.12 98.67 572.25 98.73 572.22 97.77 579.12 97.71 579.12 98.67"/><polygon class="cls-6" points="560.94 98.52 554.07 98.55 554.04 97.59 560.91 97.53 560.94 98.52"/><polygon class="cls-6" points="547.11 98.48 540.21 98.52 540.24 97.53 547.11 97.47 547.11 98.48"/><polygon class="cls-6" points="533.58 98.46 526.71 98.43 526.71 97.47 533.55 97.39 533.58 98.46"/><polygon class="cls-6" points="520.05 98.34 518.1 98.37 518.05 99.37 515.13 99.37 515.13 98.4 513.18 98.37 513.18 97.41 520.03 97.41 520.05 98.34"/><polygon class="cls-6" points="442.62 98.37 440.67 98.4 440.62 99.41 437.7 99.41 437.7 98.43 435.75 98.4 435.75 97.44 442.6 97.45 442.62 98.37"/><polygon class="cls-6" points="356.55 99.18 354.6 99.21 354.55 100.22 351.63 100.22 351.63 99.24 349.68 99.21 349.68 98.25 356.53 98.26 356.55 99.18"/><polygon class="cls-6" points="501.63 98.34 494.73 98.37 494.79 97.35 501.6 97.34 501.63 98.34"/><polygon class="cls-6" points="488.07 98.34 481.17 98.37 481.23 97.35 488.04 97.34 488.07 98.34"/><polygon class="cls-6" points="474.57 98.34 467.67 98.37 467.73 97.35 474.54 97.34 474.57 98.34"/><polygon class="cls-6" points="460.58 98.34 453.68 98.37 453.74 97.35 460.55 97.34 460.58 98.34"/><polygon class="cls-6" points="429.03 98.52 422.13 98.55 422.19 97.53 429 97.52 429.03 98.52"/><polygon class="cls-6" points="415.47 98.61 408.57 98.64 408.63 97.62 415.44 97.61 415.47 98.61"/><polygon class="cls-6" points="401.97 98.7 395.07 98.73 395.13 97.71 401.94 97.7 401.97 98.7"/><polygon class="cls-6" points="383.58 98.94 376.68 98.97 376.74 97.95 383.55 97.94 383.58 98.94"/><polygon class="cls-6" points="370.08 99.06 363.18 99.09 363.24 98.07 370.05 98.06 370.08 99.06"/><polygon class="cls-6" points="342.93 99.39 336.03 99.42 336.09 98.4 342.9 98.39 342.93 99.39"/><polygon class="cls-6" points="324.96 99.69 318.06 99.72 318.12 98.7 324.93 98.69 324.96 99.69"/><polygon class="cls-6" points="311.01 99.9 304.11 99.93 304.17 98.91 310.98 98.91 311.01 99.9"/><polygon class="cls-6" points="297.57 100.23 290.67 100.26 290.73 99.24 297.54 99.23 297.57 100.23"/><polygon class="cls-6" points="283.96 100.29 277.07 100.61 277.09 99.59 283.89 99.3 283.96 100.29"/><polygon class="cls-6" points="265.65 100.62 258.75 100.94 258.77 99.92 265.58 99.63 265.65 100.62"/><polygon class="cls-6" points="252.05 100.92 245.16 101.24 245.18 100.22 251.98 99.93 252.05 100.92"/><polygon class="cls-6" points="238.5 101.4 231.6 101.72 231.62 100.7 238.43 100.41 238.5 101.4"/><polygon class="cls-6" points="225.03 101.7 218.13 102.02 218.15 101 224.96 100.71 225.03 101.7"/><polygon class="cls-6" points="206.6 102.24 199.71 102.56 199.73 101.54 206.53 101.25 206.6 102.24"/><polygon class="cls-6" points="193.13 102.6 186.24 102.92 186.26 101.9 193.06 101.61 193.13 102.6"/><polygon class="cls-6" points="179.49 103.05 172.59 103.37 172.61 102.35 179.42 102.06 179.49 103.05"/><polygon class="cls-6" points="166.04 103.5 159.15 103.82 159.17 102.8 165.97 102.51 166.04 103.5"/><polygon class="cls-6" points="147.57 104.07 140.67 104.39 140.69 103.37 147.5 103.08 147.57 104.07"/><polygon class="cls-6" points="134.04 104.52 127.14 104.84 127.16 103.82 133.97 103.53 134.04 104.52"/><polygon class="cls-6" points="120.5 105 113.61 105.32 113.63 104.3 120.43 104.01 120.5 105"/><polygon class="cls-6" points="107.06 105.51 100.17 105.83 100.19 104.81 106.99 104.52 107.06 105.51"/></g><g id="Layer_6" data-name="Layer 6"><polygon class="cls-6" points="459.57 138.33 459.54 110.37 491.25 110.37 491.19 112.41 482.67 112.41 482.67 119.79 472.35 119.83 472.32 132.69 482.61 132.7 482.67 138.27 459.57 138.33"/><polygon class="cls-4" points="459.57 29.1 459.54 57.06 491.25 57.06 491.19 55.02 482.67 55.02 482.67 47.64 472.35 47.59 472.32 34.74 482.61 34.72 482.67 29.16 459.57 29.1"/><polygon class="cls-4" points="417.03 29.46 417.27 57.27 385.41 57.63 385.34 55.53 394.89 55.33 394.59 29.46 417.03 29.46"/><polygon class="cls-6" points="417.67 138.55 417.5 110.74 385.64 110.85 385.6 112.95 395.15 113 395.23 138.88 417.67 138.55"/></g><g id="Layer_5" data-name="Layer 5"><path class="cls-7" d="M735.84,72.27l-43-.36v1.37s-395.32-6.89-607.44,7l-.06-1.31-44,1.56.91,25.29,44-1.5-.06-1.36s334.33-12.19,606.48-6.84v1.36l43.17.18Z"/><path class="cls-8" d="M41.88,94.76S308,85.35,379.41,86c0,0,190-1.13,276.06.21l80.43.39-.06-3.48-221-.93s-152.27-.42-245.1,2.28c0,0-78.48,2-228,7.08Z"/><polygon class="cls-9" points="726.57 85.71 716.7 85.66 716.78 84.03 726.55 84.18 726.57 85.71"/><polygon class="cls-9" points="709.65 85.7 696.6 85.63 696.57 83.89 709.71 83.94 709.65 85.7"/><polygon class="cls-9" points="691.17 85.53 677.99 85.44 678.03 83.74 691.23 83.89 691.17 85.53"/><polygon class="cls-9" points="666.51 85.46 653.43 85.35 653.43 83.62 666.51 83.67 666.51 85.46"/><polygon class="cls-9" points="641.88 85.22 628.8 85.11 628.8 83.52 641.9 83.65 641.88 85.22"/><polygon class="cls-9" points="617.32 85.07 604.23 85.05 604.2 83.43 617.32 83.52 617.32 85.07"/><polygon class="cls-9" points="592.69 84.95 579.54 84.87 579.57 83.24 592.69 83.36 592.69 84.95"/><polygon class="cls-9" points="568.06 84.83 554.94 84.69 555 83.13 568.11 83.16 568.06 84.83"/><polygon class="cls-9" points="543.48 84.71 530.4 84.63 530.37 83.04 543.45 83.09 543.48 84.71"/><polygon class="cls-9" points="518.85 84.57 505.74 84.57 505.74 82.89 518.82 82.94 518.85 84.57"/><polygon class="cls-9" points="494.27 84.51 481.17 84.51 481.11 82.87 494.25 82.87 494.27 84.51"/><polygon class="cls-9" points="469.66 84.51 456.51 84.57 456.51 82.95 469.71 82.87 469.66 84.51"/><polygon class="cls-9" points="445.05 84.57 431.97 84.69 431.92 82.99 445.03 82.95 445.05 84.57"/><polygon class="cls-9" points="420.38 84.74 407.32 84.78 407.32 83.19 420.42 83.07 420.38 84.74"/><polygon class="cls-9" points="395.8 84.91 382.71 85.05 382.68 83.42 395.76 83.25 395.8 84.91"/><polygon class="cls-9" points="371.19 85.17 358.03 85.35 358.05 83.62 371.19 83.52 371.19 85.17"/><polygon class="cls-9" points="346.62 85.49 333.45 85.66 333.45 84.01 346.59 83.86 346.62 85.49"/><polygon class="cls-9" points="321.99 85.82 308.91 86.06 308.91 84.44 321.93 84.18 321.99 85.82"/><polygon class="cls-9" points="297.36 86.31 284.25 86.55 284.27 84.91 297.36 84.63 297.36 86.31"/><polygon class="cls-9" points="272.79 86.79 259.65 87.11 259.62 85.47 272.67 85.17 272.79 86.79"/><polygon class="cls-9" points="248.16 87.33 235.05 87.69 234.99 85.99 248.13 85.71 248.16 87.33"/><polygon class="cls-9" points="223.56 87.99 210.42 88.35 210.42 86.67 223.5 86.31 223.56 87.99"/><polygon class="cls-9" points="199.05 88.67 185.85 89.09 185.73 87.37 198.93 87.03 199.05 88.67"/><polygon class="cls-9" points="174.39 89.38 161.28 89.79 161.19 88.12 174.33 87.76 174.39 89.38"/><polygon class="cls-9" points="149.79 90.2 136.68 90.63 136.59 89.01 149.73 88.5 149.79 90.2"/><polygon class="cls-9" points="125.17 91 112.03 91.51 111.93 89.84 125.07 89.43 125.17 91"/><polygon class="cls-9" points="100.59 91.89 87.45 92.41 87.39 90.74 100.53 90.27 100.59 91.89"/><polygon class="cls-9" points="82.05 92.57 68.92 93.01 68.92 91.41 81.99 90.93 82.05 92.57"/><polygon class="cls-9" points="61.86 93.28 52.05 93.64 51.96 91.97 61.86 91.53 61.86 93.28"/><path class="cls-8" d="M683.25,95.91s1.28.35,1.32-1.56a28.35,28.35,0,0,0,0-6.63s.22-1.28-1.71-1l-56.46-.3V89l-1.62,0,.09-2.63-57.42-.25-.15,2.72-1.59,0V86.09l-57.43-.19,0,2.72-1.68-.06V85.83l-57.38.07v2.66l-1.63,0L447.5,86l-57.35.3L390,89.07l-1.56,0V86.24L331,87l0,2.78-1.5.06-.15-2.79-57.3,1-.12,2.76H270.3l-.09-2.77-57.27,1.44-.06,2.85-1.62,0-.08-2.7-57.49,1.84.21,2.71h-1.7l0-2.61-57,2a1,1,0,0,0-1.11,1,24.59,24.59,0,0,0,.36,7.65s.21.56,1.41.35l56.61-2,0-2.85,1.59,0,.12,2.82,57.39-2,0-2.81,1.5,0,.08,2.74,57.48-1.36V94.36l1.6.1L272,97l57.48-1,0-2.79h1.56l0,2.74,57.47-.68.07-2.84,1.53,0,.09,2.78,57.42-.46,0-2.71,1.51-.07.09,2.82,57.33-.09.1-2.66h1.67l-.06,2.64,57.39.31.06-2.78h1.56l.09,2.82,57.35.25v-2.9l1.6,0,.06,3Z"/><path class="cls-8" d="M683.25,82.52s1.28.35,1.32-1.56a28.35,28.35,0,0,0,0-6.63s.22-1.28-1.71-1L626.4,73v2.6l-1.62,0,.09-2.63-57.42-.25-.15,2.72-1.59,0V72.7l-57.43-.19,0,2.72-1.68-.06V72.44l-57.38.07v2.66l-1.63,0-.07-2.56-57.35.3L390,75.68l-1.56,0V72.85L331,73.62l0,2.78-1.5.06-.15-2.79-57.3,1-.12,2.76H270.3l-.09-2.77-57.27,1.44L212.88,79l-1.62,0-.08-2.7-57.49,1.84.21,2.71h-1.7l0-2.61-57,2a1,1,0,0,0-1.11,1,24.59,24.59,0,0,0,.36,7.65s.21.56,1.41.35l56.61-2,0-2.85,1.59,0,.12,2.82,57.39-2,0-2.82,1.5,0,.08,2.74,57.48-1.36V81l1.6.09L272,83.64l57.48-1,0-2.79h1.56l0,2.74L388.52,82l.07-2.85,1.53,0,.09,2.78,57.42-.46,0-2.71,1.51-.07.09,2.82,57.33-.09.1-2.66h1.67l-.06,2.64,57.39.31.06-2.78h1.56l.09,2.82,57.35.25v-2.9l1.6,0,.06,3Z"/></g><g id="Layer_9" data-name="Layer 9"><polygon class="cls-10" points="103.16 118.63 86.78 119.21 86.55 114.09 102.93 113.49 103.16 118.63"/><polygon class="cls-10" points="101.22 63.02 101.34 68.55 85.02 69.14 84.78 63.57 101.22 63.02"/><polygon class="cls-10" points="676.56 62.13 676.62 56.74 692.87 56.85 692.79 62.24 676.56 62.13"/><polygon class="cls-10" points="692.61 112.49 676.23 112.4 676.29 107.13 692.65 107.16 692.61 112.49"/></g><g id="Layer_10" data-name="Layer 10"><line class="cls-2" x1="65.73" y1="118.47" x2="65.34" y2="106.18"/><line class="cls-2" x1="66.72" y1="118.4" x2="66.33" y2="106.15"/><line class="cls-2" x1="67.71" y1="118.36" x2="67.32" y2="106.12"/><line class="cls-2" x1="68.7" y1="118.34" x2="68.31" y2="106.09"/><line class="cls-2" x1="69.69" y1="118.29" x2="69.3" y2="106.06"/><line class="cls-2" x1="70.68" y1="118.28" x2="70.29" y2="106.03"/><line class="cls-2" x1="71.66" y1="118.25" x2="71.28" y2="106"/><line class="cls-2" x1="72.65" y1="118.18" x2="72.27" y2="105.96"/><line class="cls-2" x1="73.64" y1="118.21" x2="73.26" y2="105.93"/><line class="cls-2" x1="74.63" y1="118.18" x2="74.25" y2="105.9"/><line class="cls-2" x1="75.62" y1="118.09" x2="75.24" y2="105.87"/><line class="cls-2" x1="76.61" y1="118.09" x2="76.23" y2="105.84"/><line class="cls-2" x1="77.6" y1="118.05" x2="77.22" y2="105.83"/><line class="cls-2" x1="78.59" y1="118.04" x2="78.21" y2="105.8"/><line class="cls-11" x1="78.59" y1="118.04" x2="65.73" y2="118.47"/><line class="cls-11" x1="78.2" y1="105.89" x2="65.34" y2="106.32"/><line class="cls-2" x1="78.39" y1="111.97" x2="65.52" y2="112.39"/><line class="cls-2" x1="64.44" y1="78.23" x2="64.11" y2="65.9"/><line class="cls-2" x1="65.43" y1="78.17" x2="65.1" y2="65.87"/><line class="cls-2" x1="66.42" y1="78.13" x2="66.09" y2="65.85"/><line class="cls-2" x1="67.41" y1="78.12" x2="67.08" y2="65.82"/><line class="cls-2" x1="68.4" y1="78.07" x2="68.07" y2="65.79"/><line class="cls-2" x1="69.39" y1="78.06" x2="69.06" y2="65.77"/><line class="cls-2" x1="70.38" y1="78.04" x2="70.05" y2="65.74"/><line class="cls-2" x1="71.37" y1="77.97" x2="71.04" y2="65.71"/><line class="cls-2" x1="72.36" y1="78" x2="72.03" y2="65.69"/><line class="cls-2" x1="73.35" y1="77.99" x2="73.02" y2="65.66"/><line class="cls-2" x1="74.33" y1="77.9" x2="74.01" y2="65.63"/><line class="cls-2" x1="75.32" y1="77.9" x2="75" y2="65.61"/><line class="cls-2" x1="76.31" y1="77.86" x2="75.99" y2="65.6"/><line class="cls-2" x1="77.3" y1="77.87" x2="76.98" y2="65.57"/><line class="cls-11" x1="77.3" y1="77.87" x2="64.44" y2="78.23"/><line class="cls-11" x1="76.97" y1="65.67" x2="64.11" y2="66.03"/><line class="cls-2" x1="77.13" y1="71.77" x2="64.26" y2="72.13"/><line class="cls-2" x1="713.45" y1="111.11" x2="713.56" y2="98.82"/><line class="cls-2" x1="712.46" y1="111.07" x2="712.57" y2="98.81"/><line class="cls-2" x1="711.47" y1="111.05" x2="711.58" y2="98.8"/><line class="cls-2" x1="710.48" y1="111.05" x2="710.59" y2="98.79"/><line class="cls-2" x1="709.49" y1="111.02" x2="709.6" y2="98.78"/><line class="cls-2" x1="708.5" y1="111.03" x2="708.61" y2="98.77"/><line class="cls-2" x1="707.51" y1="111.03" x2="707.62" y2="98.77"/><line class="cls-2" x1="706.52" y1="110.98" x2="706.63" y2="98.76"/><line class="cls-2" x1="705.53" y1="111.03" x2="705.64" y2="98.75"/><line class="cls-2" x1="704.54" y1="111.03" x2="704.65" y2="98.74"/><line class="cls-2" x1="703.55" y1="110.96" x2="703.66" y2="98.73"/><line class="cls-2" x1="702.56" y1="110.98" x2="702.67" y2="98.72"/><line class="cls-2" x1="701.57" y1="110.96" x2="701.68" y2="98.74"/><line class="cls-2" x1="700.58" y1="110.98" x2="700.69" y2="98.73"/><line class="cls-11" x1="700.58" y1="110.98" x2="713.45" y2="111.11"/><line class="cls-11" x1="700.69" y1="98.82" x2="713.56" y2="98.95"/><line class="cls-2" x1="700.65" y1="104.9" x2="713.52" y2="105.03"/><line class="cls-2" x1="700.95" y1="70.51" x2="701.03" y2="58.18"/><line class="cls-2" x1="701.95" y1="70.49" x2="702.02" y2="58.19"/><line class="cls-2" x1="702.94" y1="70.48" x2="703.01" y2="58.19"/><line class="cls-2" x1="703.93" y1="70.5" x2="704" y2="58.2"/><line class="cls-2" x1="704.92" y1="70.49" x2="704.99" y2="58.2"/><line class="cls-2" x1="705.91" y1="70.51" x2="705.98" y2="58.21"/><line class="cls-2" x1="706.89" y1="70.52" x2="706.97" y2="58.22"/><line class="cls-2" x1="707.89" y1="70.49" x2="707.96" y2="58.22"/><line class="cls-2" x1="708.87" y1="70.55" x2="708.95" y2="58.23"/><line class="cls-2" x1="709.86" y1="70.56" x2="709.94" y2="58.23"/><line class="cls-2" x1="710.86" y1="70.5" x2="710.93" y2="58.24"/><line class="cls-2" x1="711.85" y1="70.54" x2="711.92" y2="58.25"/><line class="cls-2" x1="712.84" y1="70.54" x2="712.91" y2="58.27"/><line class="cls-2" x1="713.83" y1="70.57" x2="713.9" y2="58.28"/><line class="cls-11" x1="713.83" y1="70.57" x2="700.95" y2="70.51"/><line class="cls-11" x1="713.89" y1="58.37" x2="701.02" y2="58.31"/><line class="cls-2" x1="713.85" y1="64.47" x2="700.98" y2="64.41"/><line class="cls-2" x1="483.29" y1="137.6" x2="483.33" y2="127.13"/><line class="cls-2" x1="485.24" y1="137.73" x2="485.31" y2="127.23"/><line class="cls-2" x1="487.22" y1="137.73" x2="487.29" y2="127.21"/><line class="cls-2" x1="489.2" y1="137.59" x2="489.27" y2="127.26"/><line class="cls-2" x1="491.18" y1="137.63" x2="491.25" y2="127.23"/><line class="cls-2" x1="493.16" y1="137.65" x2="493.23" y2="127.16"/><line class="cls-2" x1="495.14" y1="137.7" x2="495.21" y2="127.18"/><line class="cls-2" x1="497.12" y1="137.64" x2="497.19" y2="127.12"/><line class="cls-2" x1="499.1" y1="137.66" x2="499.17" y2="127.13"/><line class="cls-2" x1="501.08" y1="137.67" x2="501.15" y2="127.22"/><line class="cls-12" x1="483.3" y1="137.6" x2="506.08" y2="137.68"/><line class="cls-12" x1="483.33" y1="132.29" x2="506.08" y2="132.37"/><line class="cls-12" x1="483.33" y1="127.13" x2="506.08" y2="127.21"/><line class="cls-2" x1="501.16" y1="127.24" x2="501.25" y2="113.01"/><line class="cls-2" x1="499.18" y1="127.24" x2="499.27" y2="113.01"/><line class="cls-2" x1="500.15" y1="127.15" x2="500.24" y2="112.99"/><line class="cls-2" x1="497.19" y1="127.24" x2="497.29" y2="113.01"/><line class="cls-2" x1="498.16" y1="127.15" x2="498.26" y2="112.99"/><line class="cls-2" x1="495.21" y1="127.24" x2="495.3" y2="113.01"/><line class="cls-2" x1="496.18" y1="127.15" x2="496.27" y2="112.99"/><line class="cls-2" x1="493.23" y1="127.24" x2="493.32" y2="113.01"/><line class="cls-2" x1="494.2" y1="127.15" x2="494.29" y2="112.99"/><line class="cls-2" x1="491.26" y1="127.24" x2="491.35" y2="113.01"/><line class="cls-2" x1="492.23" y1="127.15" x2="492.32" y2="112.99"/><line class="cls-2" x1="489.28" y1="127.24" x2="489.37" y2="113.01"/><line class="cls-2" x1="490.25" y1="127.15" x2="490.34" y2="112.99"/><line class="cls-2" x1="487.29" y1="127.24" x2="487.39" y2="113.01"/><line class="cls-2" x1="488.27" y1="127.15" x2="488.36" y2="112.98"/><line class="cls-2" x1="485.31" y1="127.24" x2="485.41" y2="113.01"/><line class="cls-2" x1="486.28" y1="127.15" x2="486.38" y2="112.98"/><line class="cls-2" x1="483.33" y1="127.24" x2="483.42" y2="112.89"/><line class="cls-2" x1="484.3" y1="127.15" x2="484.39" y2="112.98"/><line class="cls-12" x1="483.42" y1="112.89" x2="506.08" y2="112.96"/><line class="cls-2" x1="394.65" y1="138.31" x2="394.61" y2="127.84"/><line class="cls-2" x1="392.7" y1="138.44" x2="392.63" y2="127.94"/><line class="cls-2" x1="390.72" y1="138.44" x2="390.65" y2="127.92"/><line class="cls-2" x1="388.74" y1="138.3" x2="388.67" y2="127.97"/><line class="cls-2" x1="386.76" y1="138.34" x2="386.69" y2="127.94"/><line class="cls-2" x1="384.78" y1="138.36" x2="384.71" y2="127.87"/><line class="cls-2" x1="382.8" y1="138.41" x2="382.73" y2="127.89"/><line class="cls-2" x1="380.82" y1="138.35" x2="380.75" y2="127.83"/><line class="cls-2" x1="378.84" y1="138.36" x2="378.77" y2="127.84"/><line class="cls-2" x1="376.86" y1="138.38" x2="376.79" y2="127.93"/><line class="cls-12" x1="394.64" y1="138.31" x2="371.86" y2="138.39"/><line class="cls-12" x1="394.61" y1="133" x2="371.86" y2="133.08"/><line class="cls-12" x1="394.61" y1="127.84" x2="371.86" y2="127.92"/><line class="cls-2" x1="376.78" y1="127.95" x2="376.69" y2="113.72"/><line class="cls-2" x1="378.76" y1="127.95" x2="378.67" y2="113.72"/><line class="cls-2" x1="377.79" y1="127.86" x2="377.7" y2="113.7"/><line class="cls-2" x1="380.75" y1="127.95" x2="380.65" y2="113.72"/><line class="cls-2" x1="379.78" y1="127.86" x2="379.68" y2="113.7"/><line class="cls-2" x1="382.73" y1="127.95" x2="382.64" y2="113.72"/><line class="cls-2" x1="381.76" y1="127.86" x2="381.67" y2="113.7"/><line class="cls-2" x1="384.71" y1="127.95" x2="384.62" y2="113.72"/><line class="cls-2" x1="383.74" y1="127.86" x2="383.65" y2="113.7"/><line class="cls-2" x1="386.68" y1="127.95" x2="386.59" y2="113.72"/><line class="cls-2" x1="385.71" y1="127.86" x2="385.62" y2="113.7"/><line class="cls-2" x1="388.66" y1="127.95" x2="388.57" y2="113.72"/><line class="cls-2" x1="387.69" y1="127.86" x2="387.6" y2="113.7"/><line class="cls-2" x1="390.65" y1="127.95" x2="390.55" y2="113.72"/><line class="cls-2" x1="389.67" y1="127.86" x2="389.58" y2="113.69"/><line class="cls-2" x1="392.63" y1="127.95" x2="392.53" y2="113.72"/><line class="cls-2" x1="391.66" y1="127.86" x2="391.56" y2="113.69"/><line class="cls-2" x1="394.61" y1="127.95" x2="394.52" y2="113.6"/><line class="cls-2" x1="393.64" y1="127.86" x2="393.55" y2="113.69"/><line class="cls-12" x1="394.52" y1="113.6" x2="371.86" y2="113.67"/><line class="cls-2" x1="483.24" y1="29.82" x2="483.19" y2="40.29"/><line class="cls-2" x1="485.18" y1="29.7" x2="485.17" y2="40.2"/><line class="cls-2" x1="487.16" y1="29.72" x2="487.15" y2="40.24"/><line class="cls-2" x1="489.14" y1="29.88" x2="489.13" y2="40.21"/><line class="cls-2" x1="491.12" y1="29.85" x2="491.11" y2="40.25"/><line class="cls-2" x1="493.1" y1="29.85" x2="493.09" y2="40.34"/><line class="cls-2" x1="495.08" y1="29.81" x2="495.07" y2="40.34"/><line class="cls-2" x1="497.06" y1="29.89" x2="497.05" y2="40.41"/><line class="cls-2" x1="499.04" y1="29.89" x2="499.03" y2="40.41"/><line class="cls-2" x1="501.02" y1="29.89" x2="501.01" y2="40.34"/><line class="cls-12" x1="483.24" y1="29.82" x2="506.03" y2="29.92"/><line class="cls-12" x1="483.23" y1="35.13" x2="505.98" y2="35.23"/><line class="cls-12" x1="483.19" y1="40.29" x2="505.94" y2="40.39"/><line class="cls-2" x1="501.02" y1="40.32" x2="501" y2="54.55"/><line class="cls-2" x1="499.04" y1="40.3" x2="499.02" y2="54.53"/><line class="cls-2" x1="500.01" y1="40.4" x2="499.99" y2="54.56"/><line class="cls-2" x1="497.05" y1="40.29" x2="497.04" y2="54.52"/><line class="cls-2" x1="498.02" y1="40.39" x2="498.01" y2="54.55"/><line class="cls-2" x1="495.07" y1="40.27" x2="495.05" y2="54.5"/><line class="cls-2" x1="496.04" y1="40.37" x2="496.02" y2="54.53"/><line class="cls-2" x1="493.09" y1="40.26" x2="493.07" y2="54.49"/><line class="cls-2" x1="494.06" y1="40.36" x2="494.04" y2="54.52"/><line class="cls-2" x1="491.12" y1="40.24" x2="491.1" y2="54.47"/><line class="cls-2" x1="492.09" y1="40.34" x2="492.07" y2="54.5"/><line class="cls-2" x1="489.14" y1="40.23" x2="489.12" y2="54.46"/><line class="cls-2" x1="490.11" y1="40.33" x2="490.09" y2="54.49"/><line class="cls-2" x1="487.15" y1="40.21" x2="487.14" y2="54.44"/><line class="cls-2" x1="488.13" y1="40.31" x2="488.11" y2="54.47"/><line class="cls-2" x1="485.17" y1="40.2" x2="485.15" y2="54.43"/><line class="cls-2" x1="486.14" y1="40.3" x2="486.12" y2="54.46"/><line class="cls-2" x1="483.19" y1="40.18" x2="483.17" y2="54.53"/><line class="cls-2" x1="484.16" y1="40.28" x2="484.14" y2="54.44"/><line class="cls-12" x1="483.17" y1="54.53" x2="505.83" y2="54.63"/><line class="cls-2" x1="394.04" y1="30.11" x2="394.19" y2="40.58"/><line class="cls-2" x1="392.09" y1="30.02" x2="392.21" y2="40.51"/><line class="cls-2" x1="390.11" y1="30.06" x2="390.23" y2="40.58"/><line class="cls-2" x1="388.13" y1="30.23" x2="388.25" y2="40.56"/><line class="cls-2" x1="386.15" y1="30.22" x2="386.27" y2="40.62"/><line class="cls-2" x1="384.17" y1="30.24" x2="384.29" y2="40.73"/><line class="cls-2" x1="382.19" y1="30.22" x2="382.31" y2="40.75"/><line class="cls-2" x1="380.21" y1="30.32" x2="380.33" y2="40.84"/><line class="cls-2" x1="378.23" y1="30.34" x2="378.35" y2="40.86"/><line class="cls-2" x1="376.25" y1="30.37" x2="376.37" y2="40.82"/><line class="cls-12" x1="394.03" y1="30.11" x2="371.25" y2="30.45"/><line class="cls-12" x1="394.1" y1="35.42" x2="371.34" y2="35.76"/><line class="cls-12" x1="394.19" y1="40.58" x2="371.44" y2="40.92"/><line class="cls-2" x1="376.36" y1="40.79" x2="376.53" y2="55.02"/><line class="cls-2" x1="378.34" y1="40.76" x2="378.51" y2="54.99"/><line class="cls-2" x1="377.37" y1="40.86" x2="377.54" y2="55.03"/><line class="cls-2" x1="380.33" y1="40.72" x2="380.49" y2="54.95"/><line class="cls-2" x1="379.36" y1="40.83" x2="379.52" y2="54.99"/><line class="cls-2" x1="382.31" y1="40.69" x2="382.47" y2="54.92"/><line class="cls-2" x1="381.34" y1="40.79" x2="381.5" y2="54.96"/><line class="cls-2" x1="384.29" y1="40.65" x2="384.45" y2="54.88"/><line class="cls-2" x1="383.32" y1="40.76" x2="383.48" y2="54.92"/><line class="cls-2" x1="386.26" y1="40.62" x2="386.42" y2="54.85"/><line class="cls-2" x1="385.29" y1="40.72" x2="385.45" y2="54.89"/><line class="cls-2" x1="388.24" y1="40.58" x2="388.4" y2="54.81"/><line class="cls-2" x1="387.27" y1="40.69" x2="387.43" y2="54.85"/><line class="cls-2" x1="390.22" y1="40.55" x2="390.39" y2="54.78"/><line class="cls-2" x1="389.25" y1="40.65" x2="389.42" y2="54.81"/><line class="cls-2" x1="392.21" y1="40.51" x2="392.37" y2="54.74"/><line class="cls-2" x1="391.24" y1="40.62" x2="391.4" y2="54.78"/><line class="cls-2" x1="394.19" y1="40.48" x2="394.36" y2="54.82"/><line class="cls-2" x1="393.22" y1="40.58" x2="393.38" y2="54.74"/><line class="cls-12" x1="394.36" y1="54.82" x2="371.69" y2="55.16"/></g><g id="Layer_4" data-name="Layer 4" class="cls-13"><circle class="cls-14" cx="438.39" cy="56.19" r="2.31"/><circle class="cls-14" cx="438.57" cy="111.54" r="2.31"/><circle class="cls-14" cx="365.04" cy="112.17" r="2.31"/><circle class="cls-14" cx="340.47" cy="112.47" r="2.31"/><circle class="cls-14" cx="315.87" cy="112.92" r="2.31"/><circle class="cls-14" cx="291.36" cy="113.31" r="2.31"/><circle class="cls-14" cx="290.22" cy="57.78" r="2.31"/><circle class="cls-14" cx="314.97" cy="57.3" r="2.31"/><circle class="cls-14" cx="339.75" cy="56.94" r="2.31"/><circle class="cls-14" cx="364.38" cy="56.58" r="2.31"/><circle class="cls-14" cx="512.31" cy="111.36" r="2.31"/><circle class="cls-14" cx="536.76" cy="111.45" r="2.31"/><circle class="cls-14" cx="561.45" cy="111.78" r="2.31"/><circle class="cls-14" cx="585.99" cy="111.9" r="2.31"/><circle class="cls-14" cx="586.29" cy="56.34" r="2.31"/><circle class="cls-14" cx="561.72" cy="56.22" r="2.31"/><circle class="cls-14" cx="537.09" cy="56.04" r="2.31"/><circle class="cls-14" cx="512.37" cy="55.95" r="2.31"/></g><g id="Layer_11_copy" data-name="Layer 11 copy"><rect class="cls-15" x="728.62" y="54.35" width="11.34" height="11.34" rx="1.42"/><path class="cls-16" d="M735.27,59.22l0,0a1.79,1.79,0,0,0,1.88-.43l.54-.53.07-.09a.44.44,0,0,0-.08-.58.43.43,0,0,0-.58,0l-.56.55a.9.9,0,0,1-1.13.16l-1.14-.64a1.78,1.78,0,0,0-2.06.23c-.22.2-.44.42-.65.64a.38.38,0,0,0-.11.38.4.4,0,0,0,.29.33.42.42,0,0,0,.44-.1c.19-.19.38-.38.58-.56a1,1,0,0,1,.3-.2.79.79,0,0,1,.64,0s0,.05,0,.08c-.11.3-.21.61-.33.91a11.33,11.33,0,0,1-.67,1.7.82.82,0,0,1-.92.45l-1.21-.22a.47.47,0,0,0-.54.41.49.49,0,0,0,.4.53l1.2.22A1.72,1.72,0,0,0,733,62.2a1.68,1.68,0,0,0,.57-.67l.12-.23.78.28a.73.73,0,0,1,.5.58,2.16,2.16,0,0,1,0,.44c0,.35-.05.69-.06,1a.47.47,0,0,0,.54.48.49.49,0,0,0,.41-.49c0-.41,0-.83.07-1.24a1.74,1.74,0,0,0-1.1-1.69l-.09,0,.51-1.44Z"/><path class="cls-16" d="M735.49,57.7a.89.89,0,0,0,.06-1.78.91.91,0,0,0-.93.86A.89.89,0,0,0,735.49,57.7Z"/><path class="cls-16" d="M738.48,60.29l-.77-.77a.38.38,0,0,0-.13-.06.2.2,0,0,0-.22.11.22.22,0,0,0,0,.24l.43.4h-1.46a.21.21,0,0,0,0,.41h1.5l0,.06c-.12.13-.25.26-.37.4a.21.21,0,0,0,0,.3.22.22,0,0,0,.31,0l.72-.8A.22.22,0,0,0,738.48,60.29Z"/><text class="cls-17" transform="translate(745.63 59.15)">비상대피로<tspan class="cls-18"><tspan x="0" y="7">Eme</tspan><tspan class="cls-19" x="12.64" y="7">r</tspan><tspan class="cls-20" x="15.03" y="7">g</tspan><tspan class="cls-21" x="18.4" y="7">en</tspan><tspan class="cls-22" x="25.53" y="7">c</tspan><tspan x="28.67" y="7">y</tspan></tspan></text><rect class="cls-15" x="728.62" y="105.29" width="11.34" height="11.34" rx="1.42"/><path class="cls-16" d="M735.27,110.15l0,0a1.79,1.79,0,0,0,1.88-.43l.54-.53.07-.09a.44.44,0,0,0-.08-.58.43.43,0,0,0-.58,0l-.56.55a.9.9,0,0,1-1.13.16l-1.14-.64a1.78,1.78,0,0,0-2.06.23c-.22.2-.44.42-.65.64a.38.38,0,0,0-.11.38.4.4,0,0,0,.29.33.42.42,0,0,0,.44-.1c.19-.19.38-.38.58-.56a1,1,0,0,1,.3-.2.79.79,0,0,1,.64,0s0,0,0,.08c-.11.3-.21.61-.33.91a11.33,11.33,0,0,1-.67,1.7.8.8,0,0,1-.92.45l-1.21-.22a.47.47,0,0,0-.54.41.48.48,0,0,0,.4.53l1.2.22a1.72,1.72,0,0,0,1.34-.28,1.68,1.68,0,0,0,.57-.67l.12-.23.78.28a.73.73,0,0,1,.5.58,2.16,2.16,0,0,1,0,.44c0,.35-.05.69-.06,1a.47.47,0,0,0,.54.48.48.48,0,0,0,.41-.49c0-.41,0-.83.07-1.24a1.74,1.74,0,0,0-1.1-1.69l-.09,0,.51-1.45Z"/><path class="cls-16" d="M735.49,108.63a.89.89,0,0,0,.06-1.77.89.89,0,1,0-.06,1.77Z"/><path class="cls-16" d="M738.48,111.23l-.77-.78a.38.38,0,0,0-.13-.06.2.2,0,0,0-.22.11.22.22,0,0,0,0,.24l.43.41h-1.46a.21.21,0,1,0,0,.41h1.5l0,.06c-.12.13-.25.26-.37.4a.21.21,0,0,0,0,.3.22.22,0,0,0,.31,0l.72-.8A.2.2,0,0,0,738.48,111.23Z"/><text class="cls-17" transform="translate(745.63 110.09)">비상대피로<tspan class="cls-18"><tspan x="0" y="7">Eme</tspan><tspan class="cls-19" x="12.64" y="7">r</tspan><tspan class="cls-20" x="15.03" y="7">g</tspan><tspan class="cls-21" x="18.4" y="7">en</tspan><tspan class="cls-22" x="25.53" y="7">c</tspan><tspan x="28.67" y="7">y</tspan></tspan></text><rect class="cls-15" x="37.6" y="113.29" width="11.34" height="11.34" rx="1.42"/><path class="cls-16" d="M44.25,118.15l0,0a1.79,1.79,0,0,0,1.88-.43l.54-.53.07-.09a.44.44,0,0,0-.08-.58.43.43,0,0,0-.58,0l-.56.55a.9.9,0,0,1-1.13.16l-1.14-.64a1.78,1.78,0,0,0-2.06.23c-.22.2-.44.42-.65.64a.38.38,0,0,0-.11.38.4.4,0,0,0,.29.33.42.42,0,0,0,.44-.1l.57-.56a1.43,1.43,0,0,1,.3-.2.82.82,0,0,1,.65,0s0,0,0,.08l-.33.91a12.51,12.51,0,0,1-.67,1.7.8.8,0,0,1-.92.45l-1.21-.22a.47.47,0,0,0-.54.41.48.48,0,0,0,.4.53l1.2.22a1.73,1.73,0,0,0,1.34-.28,1.68,1.68,0,0,0,.57-.67l.12-.23.78.28a.73.73,0,0,1,.5.58,1.62,1.62,0,0,1,0,.44c0,.35,0,.69,0,1a.46.46,0,0,0,.54.48.48.48,0,0,0,.41-.49c0-.41.05-.83.07-1.24a1.73,1.73,0,0,0-1.11-1.69l-.08,0,.51-1.45Z"/><path class="cls-16" d="M44.47,116.63a.89.89,0,0,0,.06-1.77.89.89,0,1,0-.06,1.77Z"/><path class="cls-16" d="M47.46,119.23l-.77-.78a.38.38,0,0,0-.13-.06.2.2,0,0,0-.17.35l.43.41H45.36a.19.19,0,0,0-.21.21.2.2,0,0,0,.2.2h1.5l-.05.06c-.12.13-.25.26-.37.4a.21.21,0,0,0,0,.3.22.22,0,0,0,.31,0l.72-.8A.2.2,0,0,0,47.46,119.23Z"/><text class="cls-17" transform="translate(4.33 118.09)">비상대피로<tspan class="cls-18"><tspan x="-4.33" y="7">Eme</tspan><tspan class="cls-19" x="8.31" y="7">r</tspan><tspan class="cls-20" x="10.7" y="7">g</tspan><tspan class="cls-21" x="14.06" y="7">en</tspan><tspan class="cls-22" x="21.2" y="7">c</tspan><tspan x="24.34" y="7">y</tspan></tspan></text><rect class="cls-15" x="37.6" y="62.13" width="11.34" height="11.34" rx="1.42"/><path class="cls-16" d="M44.25,67l0,0a1.79,1.79,0,0,0,1.88-.43l.54-.53.07-.09a.44.44,0,0,0-.08-.58.43.43,0,0,0-.58,0l-.56.55a.9.9,0,0,1-1.13.16l-1.14-.64a1.78,1.78,0,0,0-2.06.23c-.22.2-.44.42-.65.64a.38.38,0,0,0-.11.38.4.4,0,0,0,.29.33.42.42,0,0,0,.44-.1l.57-.56a1.43,1.43,0,0,1,.3-.2.82.82,0,0,1,.65,0s0,0,0,.08l-.33.91a12.51,12.51,0,0,1-.67,1.7.8.8,0,0,1-.92.45l-1.21-.22a.47.47,0,0,0-.54.41.48.48,0,0,0,.4.53l1.2.22A1.73,1.73,0,0,0,42,70a1.68,1.68,0,0,0,.57-.67l.12-.23.78.28a.73.73,0,0,1,.5.58,1.62,1.62,0,0,1,0,.44c0,.35,0,.69,0,1a.46.46,0,0,0,.54.48.48.48,0,0,0,.41-.49c0-.41.05-.83.07-1.24a1.73,1.73,0,0,0-1.11-1.69l-.08,0L44.22,67Z"/><path class="cls-16" d="M44.47,65.47a.89.89,0,0,0,.06-1.77.89.89,0,1,0-.06,1.77Z"/><path class="cls-16" d="M47.46,68.07l-.77-.78a.38.38,0,0,0-.13-.06.2.2,0,0,0-.17.35l.43.41H45.36a.19.19,0,0,0-.21.21.2.2,0,0,0,.2.2h1.5l-.05.06c-.12.13-.25.26-.37.4a.21.21,0,0,0,0,.3.22.22,0,0,0,.31,0l.72-.8A.2.2,0,0,0,47.46,68.07Z"/><text class="cls-17" transform="translate(4.33 66.93)">비상대피로<tspan class="cls-18"><tspan x="-4.33" y="7">Eme</tspan><tspan class="cls-19" x="8.31" y="7">r</tspan><tspan class="cls-20" x="10.7" y="7">g</tspan><tspan class="cls-21" x="14.06" y="7">en</tspan><tspan class="cls-22" x="21.2" y="7">c</tspan><tspan x="24.34" y="7">y</tspan></tspan></text><rect class="cls-23" x="439.9" y="155.93" width="11.34" height="11.34" rx="1.42"/><path class="cls-14" d="M448.76,160.43a.86.86,0,0,0,0-.16.76.76,0,0,0-.76-.64h-4.82a.55.55,0,0,0-.18,0,.76.76,0,0,0-.61.76v4.64a.77.77,0,0,0,.79.8H448a.77.77,0,0,0,.79-.8Zm-.41,4.6a.37.37,0,0,1-.4.41h-4.76a.37.37,0,0,1-.4-.41v-4.58a.37.37,0,0,1,.41-.41H448a.36.36,0,0,1,.4.4V165Z"/><path class="cls-14" d="M445,161.46c-.25,0-.49,0-.73,0a.41.41,0,0,0-.41.39c0,.36,0,.72,0,1.08a.14.14,0,0,0,.15.14.15.15,0,0,0,.14-.14v-1c.09,0,.07,0,.07.08v2.34a1.21,1.21,0,0,0,0,.19.18.18,0,0,0,.12.18.19.19,0,0,0,.26-.2v-1.5c.08,0,.07,0,.07.06v1.43a.2.2,0,0,0,.12.21.19.19,0,0,0,.26-.2c0-.71,0-1.42,0-2.13,0-.13,0-.27,0-.41s0-.07.07,0v.92a.14.14,0,0,0,.15.16.14.14,0,0,0,.14-.16v-1A.41.41,0,0,0,445,161.46Z"/><path class="cls-14" d="M444.63,161.36A.33.33,0,0,0,445,161a.34.34,0,0,0-.34-.34.34.34,0,1,0,0,.67Z"/><path class="cls-14" d="M446.88,161.46c-.24,0-.49,0-.73,0a.39.39,0,0,0-.4.39c0,.36,0,.72,0,1.08a.15.15,0,0,0,.15.14.14.14,0,0,0,.14-.14v-1c.09,0,.07,0,.07.08v2.53a.17.17,0,0,0,.13.18c.13,0,.25,0,.25-.2,0-.47,0-.95,0-1.42v-.08c.08,0,.07,0,.07.06v1.43a.2.2,0,1,0,.39,0V162s0-.07.06,0v.92a.14.14,0,0,0,.15.16.14.14,0,0,0,.14-.16v-1A.41.41,0,0,0,446.88,161.46Z"/><path class="cls-14" d="M446.52,161.36a.33.33,0,0,0,.33-.33.34.34,0,0,0-.34-.34.34.34,0,1,0,0,.67Z"/><path class="cls-14" d="M443.87,158.37a.17.17,0,0,0,.22-.05l.23-.24.05-.06v1.13a.2.2,0,0,0,.21.2h0a.18.18,0,0,0,.19-.19.13.13,0,0,0,0-.06V158a.47.47,0,0,0,.1.1,2.09,2.09,0,0,0,.22.2.2.2,0,0,0,.29,0,.17.17,0,0,0,.05-.15.2.2,0,0,0-.06-.14l-.66-.59a.19.19,0,0,0-.27,0l-.63.63a.23.23,0,0,0-.06.12A.19.19,0,0,0,443.87,158.37Z"/><path class="cls-14" d="M446.42,159.29a.19.19,0,0,0,.13.06.2.2,0,0,0,.14-.06l.63-.64a.24.24,0,0,0,.07-.12.21.21,0,0,0-.11-.21.2.2,0,0,0-.23.05l-.23.24-.05.06v-1.12a.19.19,0,0,0-.21-.2.17.17,0,0,0-.19.19v1.16l-.11-.1-.21-.2a.21.21,0,0,0-.3,0,.17.17,0,0,0-.05.15.16.16,0,0,0,.07.14Z"/><text class="cls-24" transform="translate(453.91 160.73)">승강기<tspan class="cls-18"><tspan x="0" y="7">Ele</tspan><tspan class="cls-25" x="8.78" y="7">v</tspan><tspan class="cls-20" x="11.92" y="7">at</tspan><tspan x="17.54" y="7">or</tspan></tspan></text><rect class="cls-23" x="439.18" y="0.48" width="11.34" height="11.34" rx="1.42"/><path class="cls-14" d="M448,5a.78.78,0,0,0-.77-.8h-4.82a.55.55,0,0,0-.18,0,.75.75,0,0,0-.61.76V9.6a.76.76,0,0,0,.79.8h4.79a.77.77,0,0,0,.8-.8Zm-.41,4.6a.37.37,0,0,1-.41.41h-4.75a.37.37,0,0,1-.41-.41V5a.37.37,0,0,1,.41-.41h4.76a.36.36,0,0,1,.4.4V9.58Z"/><path class="cls-14" d="M444.27,6h-.74a.41.41,0,0,0-.4.39c0,.36,0,.72,0,1.08a.14.14,0,0,0,.14.14.15.15,0,0,0,.15-.14v-1c.09,0,.06,0,.06.08V9.15a.17.17,0,0,0,.13.17.19.19,0,0,0,.26-.2V7.62c.08,0,.06,0,.06.06V9.11a.2.2,0,1,0,.39,0V6.59s0-.08.07,0v.92a.14.14,0,0,0,.14.16.14.14,0,0,0,.15-.16v-1A.42.42,0,0,0,444.27,6Z"/><path class="cls-14" d="M443.91,5.91a.33.33,0,0,0,0-.66.32.32,0,0,0-.33.33A.33.33,0,0,0,443.91,5.91Z"/><path class="cls-14" d="M446.16,6h-.74a.41.41,0,0,0-.4.39c0,.36,0,.72,0,1.08a.14.14,0,0,0,.15.14.15.15,0,0,0,.14-.14v-1c.09,0,.06,0,.06.08,0,.78,0,1.56,0,2.34a1.34,1.34,0,0,0,0,.2.17.17,0,0,0,.12.17.19.19,0,0,0,.26-.2V7.62c.08,0,.07,0,.07.06V9.11a.2.2,0,0,0,.12.21.19.19,0,0,0,.26-.2V7c0-.14,0-.28,0-.41s0-.08.07,0v.92a.14.14,0,0,0,.14.16.14.14,0,0,0,.15-.16v-1A.42.42,0,0,0,446.16,6Z"/><path class="cls-14" d="M445.8,5.91a.34.34,0,0,0,.33-.33.33.33,0,0,0-.34-.33.33.33,0,1,0,0,.66Z"/><path class="cls-14" d="M443.14,2.92a.19.19,0,0,0,.23,0l.23-.24,0,0V3.7a.19.19,0,0,0,.2.2h0a.19.19,0,0,0,.19-.19V2.54l.11.1.21.2a.21.21,0,0,0,.3,0,.25.25,0,0,0,.05-.15.21.21,0,0,0-.07-.14L444,2a.19.19,0,0,0-.27,0l-.64.63a.45.45,0,0,0-.06.12A.2.2,0,0,0,443.14,2.92Z"/><path class="cls-14" d="M445.7,3.84a.19.19,0,0,0,.13.06.2.2,0,0,0,.14-.06c.18-.18.41-.4.63-.64a.2.2,0,0,0,.06-.12.18.18,0,0,0-.11-.2.2.2,0,0,0-.23,0l-.22.24-.06.06V2.1a.19.19,0,0,0-.2-.2.19.19,0,0,0-.2.19V3.25l-.1-.1-.22-.2A.21.21,0,0,0,445,3a.22.22,0,0,0-.06.15.26.26,0,0,0,.07.15Z"/><text class="cls-24" transform="translate(453.19 5.28)">승강기<tspan class="cls-18"><tspan x="0" y="7">Ele</tspan><tspan class="cls-25" x="8.78" y="7">v</tspan><tspan class="cls-20" x="11.92" y="7">at</tspan><tspan x="17.54" y="7">or</tspan></tspan></text><rect class="cls-23" x="489.09" y="119.97" width="11.34" height="11.34" rx="1.42"/><path class="cls-14" d="M498.8,123.75a.73.73,0,0,0-.3-.22,1.57,1.57,0,0,0-.48-.09c-.5,0-1,0-1.5,0a.65.65,0,0,0-.5.22c-.16.17-.34.34-.51.51s-.22.23-.36.36v-.39a.4.4,0,0,0-.43-.43h-.58a.42.42,0,0,0-.47.47c0,.59,0,1.17,0,1.76a.17.17,0,0,1,0,.12l-.94.94a.34.34,0,0,1-.25.11c-.33,0-.66,0-1,0a1,1,0,0,0-.94.93,1,1,0,0,0,.86,1h1.74a.72.72,0,0,0,.49-.22l3.33-3.34.06,0a.25.25,0,0,1,.2-.09H498a.91.91,0,0,0,.88-.55A.94.94,0,0,0,498.8,123.75Zm-.4.85a.44.44,0,0,1-.46.32c-.33,0-.66,0-1,0a.39.39,0,0,0-.32.14l-2.69,2.68c-.27.27-.53.55-.81.81a.25.25,0,0,1-.19.07h-1.53a.47.47,0,0,1-.45-.32.49.49,0,0,1,.49-.65h1.14a.33.33,0,0,0,.24-.1l3.47-3.47a.37.37,0,0,1,.31-.13h1.28A.51.51,0,0,1,498.4,124.6Z"/><path class="cls-14" d="M494.39,123.43a.61.61,0,1,0-.6-.61A.6.6,0,0,0,494.39,123.43Z"/><text class="cls-24" transform="translate(503.1 124.76)">나가는 곳<tspan class="cls-18"><tspan x="0" y="7">Es</tspan><tspan class="cls-19" x="6.48" y="7">c</tspan><tspan x="9.52" y="7">al</tspan><tspan class="cls-20" x="14.75" y="7">at</tspan><tspan x="20.38" y="7">or</tspan></tspan></text><rect class="cls-23" x="490.09" y="37.29" width="11.34" height="11.34" rx="1.42"/><path class="cls-14" d="M499.8,41.08a.86.86,0,0,0-.3-.23,1.93,1.93,0,0,0-.48-.08c-.5,0-1,0-1.5,0a.64.64,0,0,0-.5.21c-.16.18-.34.34-.51.51l-.36.37v-.39a.4.4,0,0,0-.43-.43h-.58a.43.43,0,0,0-.47.48c0,.58,0,1.17,0,1.75a.15.15,0,0,1,0,.12l-.94.95a.34.34,0,0,1-.25.11h-1a1,1,0,0,0-.08,1.92c.2,0,.4,0,.6,0l1.14,0a.71.71,0,0,0,.49-.21c1.1-1.12,2.22-2.23,3.33-3.34l.06-.06a.28.28,0,0,1,.2-.08H499a.91.91,0,0,0,.88-.55A.94.94,0,0,0,499.8,41.08Zm-.4.84a.44.44,0,0,1-.46.33h-1a.38.38,0,0,0-.32.13l-2.69,2.69c-.27.27-.53.54-.81.81a.36.36,0,0,1-.19.07h-1.53a.48.48,0,0,1-.45-.32.49.49,0,0,1,.14-.53.5.5,0,0,1,.35-.12h1.14a.33.33,0,0,0,.24-.1l3.47-3.48a.36.36,0,0,1,.31-.12h1.28A.5.5,0,0,1,499.4,41.92Z"/><path class="cls-14" d="M495.39,40.76a.61.61,0,1,0-.6-.61A.61.61,0,0,0,495.39,40.76Z"/><text class="cls-24" transform="translate(504.1 42.09)">나가는 곳<tspan class="cls-18"><tspan x="0" y="7">Es</tspan><tspan class="cls-19" x="6.48" y="7">c</tspan><tspan x="9.52" y="7">al</tspan><tspan class="cls-20" x="14.75" y="7">at</tspan><tspan x="20.38" y="7">or</tspan></tspan></text><rect class="cls-23" x="377.85" y="119.97" width="11.34" height="11.34" rx="1.42"/><path class="cls-14" d="M387.56,123.75a.73.73,0,0,0-.3-.22,1.63,1.63,0,0,0-.48-.09c-.5,0-1,0-1.51,0a.63.63,0,0,0-.49.22c-.16.17-.34.34-.51.51l-.36.36v-.39a.4.4,0,0,0-.43-.43h-.58a.43.43,0,0,0-.48.47v1.76a.25.25,0,0,1,0,.12l-.94.94a.36.36,0,0,1-.26.11c-.32,0-.65,0-1,0a1,1,0,0,0-.93.93,1,1,0,0,0,.86,1h1.74a.68.68,0,0,0,.48-.22c1.11-1.12,2.23-2.23,3.34-3.34l.06,0a.25.25,0,0,1,.2-.09h.83a.91.91,0,0,0,.88-.55A.94.94,0,0,0,387.56,123.75Zm-.4.85a.44.44,0,0,1-.47.32c-.33,0-.66,0-1,0a.37.37,0,0,0-.32.14l-2.69,2.68c-.27.27-.54.55-.81.81a.28.28,0,0,1-.19.07h-1.53a.46.46,0,0,1-.45-.32.48.48,0,0,1,.14-.53.5.5,0,0,1,.35-.12h1.14a.29.29,0,0,0,.23-.1l3.47-3.47a.4.4,0,0,1,.32-.13h1.28C387,123.94,387.21,124.2,387.16,124.6Z"/><path class="cls-14" d="M383.15,123.43a.61.61,0,1,0,0-1.21.61.61,0,0,0,0,1.21Z"/><text class="cls-24" transform="translate(391.86 124.76)">나가는 곳<tspan class="cls-18"><tspan x="0" y="7">Es</tspan><tspan class="cls-19" x="6.48" y="7">c</tspan><tspan x="9.52" y="7">al</tspan><tspan class="cls-20" x="14.75" y="7">at</tspan><tspan x="20.38" y="7">or</tspan></tspan></text><rect class="cls-23" x="377.85" y="37.29" width="11.34" height="11.34" rx="1.42"/><path class="cls-14" d="M387.56,41.08a.86.86,0,0,0-.3-.23,2,2,0,0,0-.48-.08c-.5,0-1,0-1.51,0a.62.62,0,0,0-.49.21c-.16.18-.34.34-.51.51l-.36.37v-.39a.4.4,0,0,0-.43-.43h-.58a.43.43,0,0,0-.48.47v1.76a.18.18,0,0,1,0,.11l-.94.95a.36.36,0,0,1-.26.11h-1a1,1,0,0,0-.07,1.92c.2,0,.4,0,.6,0l1.14,0a.67.67,0,0,0,.48-.21c1.11-1.12,2.23-2.23,3.34-3.34l.06-.06a.28.28,0,0,1,.2-.08h.83a.91.91,0,0,0,.88-.55A.94.94,0,0,0,387.56,41.08Zm-.4.84a.45.45,0,0,1-.47.33h-1a.37.37,0,0,0-.32.13l-2.69,2.69-.81.81a.34.34,0,0,1-.19.07h-1.53a.47.47,0,0,1-.45-.32.48.48,0,0,1,.14-.53.5.5,0,0,1,.35-.12h1.14a.29.29,0,0,0,.23-.1c1.16-1.16,2.32-2.31,3.47-3.48a.39.39,0,0,1,.32-.12h1.28A.51.51,0,0,1,387.16,41.92Z"/><path class="cls-14" d="M383.15,40.76a.61.61,0,0,0,.61-.61.61.61,0,1,0-.61.61Z"/><text class="cls-24" transform="translate(391.86 42.09)">나가는 곳<tspan class="cls-18"><tspan x="0" y="7">Es</tspan><tspan class="cls-19" x="6.48" y="7">c</tspan><tspan x="9.52" y="7">al</tspan><tspan class="cls-20" x="14.75" y="7">at</tspan><tspan x="20.38" y="7">or</tspan></tspan></text><text class="cls-26" transform="translate(297.48 118.66)">센트럴파크방면<tspan class="cls-18"><tspan class="cls-27" x="-2.41" y="7">T</tspan><tspan x="0.79" y="7">o Cent</tspan><tspan class="cls-28" x="19.21" y="7">r</tspan><tspan x="21.49" y="7">al </tspan><tspan class="cls-29" x="28.08" y="7">P</tspan><tspan x="31.69" y="7">ark</tspan></tspan></text><path class="cls-30" d="M354,119.49h0l-4.38-4.07a.54.54,0,0,0-.39-.1.47.47,0,0,0-.36.21.43.43,0,0,0,.08.58l3.06,2.84.46.43H341.85a.49.49,0,1,0,0,1h10.61l-.56.53-.29.28-1.71,1.6-.91.85a.41.41,0,0,0-.17.48.46.46,0,0,0,.34.32.58.58,0,0,0,.53-.15l3.56-3.31.75-.7a.55.55,0,0,0,.22-.42A.58.58,0,0,0,354,119.49Z"/><text class="cls-31" transform="translate(306.41 47.08)">지식정보단지방면<tspan class="cls-18"><tspan class="cls-27" x="5.37" y="7">T</tspan><tspan x="8.56" y="7">o BIT </tspan><tspan class="cls-32" x="24.46" y="7">Z</tspan><tspan class="cls-21" x="27.97" y="7">one</tspan></tspan></text><path class="cls-33" d="M303.09,47.94H292.45l.47-.43,3-2.82a.44.44,0,0,0,.12-.61.53.53,0,0,0-.35-.21s0,0-.08,0a.55.55,0,0,0-.33.11l-.06.05-4.33,4a.54.54,0,0,0-.19.38.51.51,0,0,0,.2.36l.77.72,3.55,3.3a.57.57,0,0,0,.54.15.42.42,0,0,0,.33-.3.4.4,0,0,0-.14-.48l-.93-.87-1.71-1.59-.85-.81h10.61a.49.49,0,1,0,0-1Z"/></g></g></svg>