<svg xmlns="http://www.w3.org/2000/svg" width="15" height="10.818" viewBox="0 0 15 10.818">
  <g id="표시" transform="translate(-1483.273 56.333)">
    <path id="패스_152" data-name="패스 152" d="M1498.138-51.51l-.022-.046a9.254,9.254,0,0,0-.713-1.3,7.907,7.907,0,0,0-6.768-3.475c-.1.009-.213.017-.332.025a7.886,7.886,0,0,0-.961.1,7.8,7.8,0,0,0-5.939,4.687,1.433,1.433,0,0,0,0,1.184,7.8,7.8,0,0,0,3.231,3.694,7.778,7.778,0,0,0,4.036,1.123,8.707,8.707,0,0,0,1.523-.137,7.7,7.7,0,0,0,5.951-4.689A1.347,1.347,0,0,0,1498.138-51.51Zm-.954.809a7.136,7.136,0,0,1-2.011,2.646,7.115,7.115,0,0,1-3.026,1.375,4.9,4.9,0,0,1-.574.084c-.182.016-.368.025-.564.034l-.283.014h0a6.829,6.829,0,0,1-5.872-3.221,6.19,6.19,0,0,1-.365-.672c-.042-.086-.085-.174-.13-.26a.487.487,0,0,1,0-.443,6.7,6.7,0,0,1,5.033-4.02,6.915,6.915,0,0,1,5.177.944,6.8,6.8,0,0,1,2.616,3.063A.528.528,0,0,1,1497.184-50.7Z" transform="translate(0)" fill="#7f7f7f"/>
    <path id="패스_153" data-name="패스 153" d="M1651.588,37.894a.514.514,0,0,0-.4.37.487.487,0,0,0,.105.479.585.585,0,0,0,.561.147,1.581,1.581,0,0,1,1.685.565,1.561,1.561,0,0,1,.207,1.751,1.605,1.605,0,0,1-1.474.945h0l-.091-.007a1.63,1.63,0,0,1-.19-.02,1.648,1.648,0,0,1-1.331-2.045.515.515,0,0,0-.369-.66.549.549,0,0,0-.129-.016.519.519,0,0,0-.5.421,2.68,2.68,0,1,0,4.969-.579A2.7,2.7,0,0,0,1651.588,37.894Z" transform="translate(-161.483 -91.419)" fill="#7f7f7f"/>
  </g>
</svg>
